solid Mesh
  facet normal 0 0 -1
    outer loop
      vertex 2.96821 3.77519 0
      vertex 2.96821 2.07806 0
      vertex 0.1 3.77519 0
    endloop
  endfacet
  facet normal 0 0 -1
    outer loop
      vertex 2.96821 2.07806 0
      vertex 0.1 2.07806 0
      vertex 0.1 3.77519 0
    endloop
  endfacet
  facet normal 0 0 1
    outer loop
      vertex 2.96821 2.07806 3
      vertex 2.96821 3.77519 3
      vertex 0.1 2.07806 3
    endloop
  endfacet
  facet normal 0 0 1
    outer loop
      vertex 2.96821 3.77519 3
      vertex 0.1 3.77519 3
      vertex 0.1 2.07806 3
    endloop
  endfacet
  facet normal 0 1 0
    outer loop
      vertex 0.1 3.77519 3
      vertex 2.96821 3.77519 3
      vertex 0.1 3.77519 0
    endloop
  endfacet
  facet normal 0 1 0
    outer loop
      vertex 2.96821 3.77519 3
      vertex 2.96821 3.77519 0
      vertex 0.1 3.77519 0
    endloop
  endfacet
  facet normal 1 0 0
    outer loop
      vertex 2.96821 3.77519 3
      vertex 2.96821 2.07806 3
      vertex 2.96821 3.77519 0
    endloop
  endfacet
  facet normal 1 0 0
    outer loop
      vertex 2.96821 2.07806 3
      vertex 2.96821 2.07806 0
      vertex 2.96821 3.77519 0
    endloop
  endfacet
  facet normal -1 0 0
    outer loop
      vertex 0.1 2.07806 3
      vertex 0.1 3.77519 3
      vertex 0.1 2.07806 0
    endloop
  endfacet
  facet normal -1 0 0
    outer loop
      vertex 0.1 3.77519 3
      vertex 0.1 3.77519 0
      vertex 0.1 2.07806 0
    endloop
  endfacet
  facet normal 0 -1 0
    outer loop
      vertex 2.96821 2.07806 3
      vertex 0.1 2.07806 3
      vertex 2.96821 2.07806 0
    endloop
  endfacet
  facet normal 0 -1 0
    outer loop
      vertex 0.1 2.07806 3
      vertex 0.1 2.07806 0
      vertex 2.96821 2.07806 0
    endloop
  endfacet
  facet normal 0 0 -1
    outer loop
      vertex 14.753 4.14474 0
      vertex 11.7328 4.14474 0
      vertex 14.753 5 0
    endloop
  endfacet
  facet normal 0 0 -1
    outer loop
      vertex 11.7328 4.14474 0
      vertex 11.7328 5 0
      vertex 14.753 5 0
    endloop
  endfacet
  facet normal 0 0 1
    outer loop
      vertex 11.7328 4.14474 3
      vertex 14.753 4.14474 3
      vertex 11.7328 5 3
    endloop
  endfacet
  facet normal 0 0 1
    outer loop
      vertex 14.753 4.14474 3
      vertex 14.753 5 3
      vertex 11.7328 5 3
    endloop
  endfacet
  facet normal 1 0 0
    outer loop
      vertex 14.753 5 3
      vertex 14.753 4.14474 3
      vertex 14.753 5 0
    endloop
  endfacet
  facet normal 1 0 0
    outer loop
      vertex 14.753 4.14474 3
      vertex 14.753 4.14474 0
      vertex 14.753 5 0
    endloop
  endfacet
  facet normal 0 -1 0
    outer loop
      vertex 14.753 4.14474 3
      vertex 11.7328 4.14474 3
      vertex 14.753 4.14474 0
    endloop
  endfacet
  facet normal 0 -1 0
    outer loop
      vertex 11.7328 4.14474 3
      vertex 11.7328 4.14474 0
      vertex 14.753 4.14474 0
    endloop
  endfacet
  facet normal 0 1 0
    outer loop
      vertex 11.7328 5 3
      vertex 14.753 5 3
      vertex 11.7328 5 0
    endloop
  endfacet
  facet normal 0 1 0
    outer loop
      vertex 14.753 5 3
      vertex 14.753 5 0
      vertex 11.7328 5 0
    endloop
  endfacet
  facet normal -1 0 0
    outer loop
      vertex 11.7328 4.14474 3
      vertex 11.7328 5 3
      vertex 11.7328 4.14474 0
    endloop
  endfacet
  facet normal -1 0 0
    outer loop
      vertex 11.7328 5 3
      vertex 11.7328 5 0
      vertex 11.7328 4.14474 0
    endloop
  endfacet
  facet normal 0 0 1
    outer loop
      vertex 33.681 1.58445 3
      vertex 32.6418 1.58445 3
      vertex 33.681 0.0998039 3
    endloop
  endfacet
  facet normal 0 0 1
    outer loop
      vertex 32.6418 1.58445 3
      vertex 32.6418 0.0998039 3
      vertex 33.681 0.0998039 3
    endloop
  endfacet
  facet normal 0 0 -1
    outer loop
      vertex 32.6418 1.58445 0
      vertex 33.681 1.58445 0
      vertex 32.6418 0.0998039 0
    endloop
  endfacet
  facet normal 0 0 -1
    outer loop
      vertex 33.681 1.58445 0
      vertex 33.681 0.0998039 0
      vertex 32.6418 0.0998039 0
    endloop
  endfacet
  facet normal -1 0 0
    outer loop
      vertex 32.6418 0.0998039 3
      vertex 32.6418 1.58445 3
      vertex 32.6418 0.0998039 0
    endloop
  endfacet
  facet normal -1 0 0
    outer loop
      vertex 32.6418 1.58445 3
      vertex 32.6418 1.58445 0
      vertex 32.6418 0.0998039 0
    endloop
  endfacet
  facet normal 0 -1 0
    outer loop
      vertex 33.681 0.0998039 3
      vertex 32.6418 0.0998039 3
      vertex 33.681 0.0998039 0
    endloop
  endfacet
  facet normal 0 -1 0
    outer loop
      vertex 32.6418 0.0998039 3
      vertex 32.6418 0.0998039 0
      vertex 33.681 0.0998039 0
    endloop
  endfacet
  facet normal 0 1 0
    outer loop
      vertex 32.6418 1.58445 3
      vertex 33.681 1.58445 3
      vertex 32.6418 1.58445 0
    endloop
  endfacet
  facet normal 0 1 0
    outer loop
      vertex 33.681 1.58445 3
      vertex 33.681 1.58445 0
      vertex 32.6418 1.58445 0
    endloop
  endfacet
  facet normal 1 0 0
    outer loop
      vertex 33.681 1.58445 3
      vertex 33.681 0.0998039 3
      vertex 33.681 1.58445 0
    endloop
  endfacet
  facet normal 1 0 0
    outer loop
      vertex 33.681 0.0998039 3
      vertex 33.681 0.0998039 0
      vertex 33.681 1.58445 0
    endloop
  endfacet
  facet normal 0 0 1
    outer loop
      vertex 34.9 2.55887 3
      vertex 34.0389 2.55887 3
      vertex 34.9 1.90797 3
    endloop
  endfacet
  facet normal 0 0 1
    outer loop
      vertex 34.0389 2.55887 3
      vertex 34.0389 1.90797 3
      vertex 34.9 1.90797 3
    endloop
  endfacet
  facet normal 0 0 -1
    outer loop
      vertex 34.0389 2.55887 0
      vertex 34.9 2.55887 0
      vertex 34.0389 1.90797 0
    endloop
  endfacet
  facet normal 0 0 -1
    outer loop
      vertex 34.9 2.55887 0
      vertex 34.9 1.90797 0
      vertex 34.0389 1.90797 0
    endloop
  endfacet
  facet normal -1 0 0
    outer loop
      vertex 34.0389 1.90797 3
      vertex 34.0389 2.55887 3
      vertex 34.0389 1.90797 0
    endloop
  endfacet
  facet normal -1 0 0
    outer loop
      vertex 34.0389 2.55887 3
      vertex 34.0389 2.55887 0
      vertex 34.0389 1.90797 0
    endloop
  endfacet
  facet normal 0 1 0
    outer loop
      vertex 34.0389 2.55887 3
      vertex 34.9 2.55887 3
      vertex 34.0389 2.55887 0
    endloop
  endfacet
  facet normal 0 1 0
    outer loop
      vertex 34.9 2.55887 3
      vertex 34.9 2.55887 0
      vertex 34.0389 2.55887 0
    endloop
  endfacet
  facet normal 0 -1 0
    outer loop
      vertex 34.9 1.90797 3
      vertex 34.0389 1.90797 3
      vertex 34.9 1.90797 0
    endloop
  endfacet
  facet normal 0 -1 0
    outer loop
      vertex 34.0389 1.90797 3
      vertex 34.0389 1.90797 0
      vertex 34.9 1.90797 0
    endloop
  endfacet
  facet normal 1 0 0
    outer loop
      vertex 34.9 2.55887 3
      vertex 34.9 1.90797 3
      vertex 34.9 2.55887 0
    endloop
  endfacet
  facet normal 1 0 0
    outer loop
      vertex 34.9 1.90797 3
      vertex 34.9 1.90797 0
      vertex 34.9 2.55887 0
    endloop
  endfacet
  facet normal 0 0 1
    outer loop
      vertex 10 34.8998 3
      vertex 6.92031 34.8998 3
      vertex 10 31.9676 3
    endloop
  endfacet
  facet normal 0 0 1
    outer loop
      vertex 6.92031 34.8998 3
      vertex 6.92031 31.9676 3
      vertex 10 31.9676 3
    endloop
  endfacet
  facet normal -1 0 0
    outer loop
      vertex 6.92031 31.9676 3
      vertex 6.92031 34.8998 3
      vertex 6.92031 31.9676 0
    endloop
  endfacet
  facet normal -1 0 0
    outer loop
      vertex 6.92031 34.8998 3
      vertex 6.92031 34.8998 0
      vertex 6.92031 31.9676 0
    endloop
  endfacet
  facet normal 0 0 -1
    outer loop
      vertex 6.92031 34.8998 0
      vertex 10 34.8998 0
      vertex 6.92031 31.9676 0
    endloop
  endfacet
  facet normal 0 0 -1
    outer loop
      vertex 10 34.8998 0
      vertex 10 31.9676 0
      vertex 6.92031 31.9676 0
    endloop
  endfacet
  facet normal 0 1 0
    outer loop
      vertex 6.92031 34.8998 3
      vertex 10 34.8998 3
      vertex 6.92031 34.8998 0
    endloop
  endfacet
  facet normal 0 1 0
    outer loop
      vertex 10 34.8998 3
      vertex 10 34.8998 0
      vertex 6.92031 34.8998 0
    endloop
  endfacet
  facet normal 0 -1 0
    outer loop
      vertex 10 31.9676 3
      vertex 6.92031 31.9676 3
      vertex 10 31.9676 0
    endloop
  endfacet
  facet normal 0 -1 0
    outer loop
      vertex 6.92031 31.9676 3
      vertex 6.92031 31.9676 0
      vertex 10 31.9676 0
    endloop
  endfacet
  facet normal 1 0 0
    outer loop
      vertex 10 34.8998 3
      vertex 10 31.9676 3
      vertex 10 34.8998 0
    endloop
  endfacet
  facet normal 1 0 0
    outer loop
      vertex 10 31.9676 3
      vertex 10 31.9676 0
      vertex 10 34.8998 0
    endloop
  endfacet
endsolid Mesh
