<?xml version="1.0" encoding="UTF-8" standalone="no" ?>
<COLLADA version="1.4.1" xmlns="http://www.collada.org/2005/11/COLLADASchema">

  <asset>
    <created>2024-06-24T16:46:03</created>
    <modified>2024-06-24T16:46:03</modified>
    <unit meter="1" name="meters"/>
    <up_axis>Z_UP</up_axis>
  </asset>

  <library_materials>
    <material id="ID10" name="ID10">
      <instance_effect url="#ID10-fx"/>
    </material>
    <material id="ID18" name="ID18">
      <instance_effect url="#ID18-fx"/>
    </material>
    <material id="ID26" name="ID26">
      <instance_effect url="#ID26-fx"/>
    </material>
    <material id="ID34" name="ID34">
      <instance_effect url="#ID34-fx"/>
    </material>
    <material id="ID42" name="ID42">
      <instance_effect url="#ID42-fx"/>
    </material>
    <material id="ID50" name="ID50">
      <instance_effect url="#ID50-fx"/>
    </material>
    <material id="ID58" name="ID58">
      <instance_effect url="#ID58-fx"/>
    </material>
  </library_materials>

  <library_effects>
    <effect id="ID10-fx" name="ID10">
      <profile_COMMON>
        <technique sid="COMMON">
          <lambert>
            <diffuse>
              <color sid="diffuse">0.976471 0.709804 0.00392157 1</color>
            </diffuse>
            <transparent opaque="A_ONE">
              <color sid="transparent">1 1 1 1</color>
            </transparent>
            <transparency>
              <float sid="transparency">1</float>
            </transparency>
          </lambert>
        </technique>
        <extra>
          <technique profile="OTHER">
            <double_sided>1</double_sided>
          </technique>
        </extra>
      </profile_COMMON>
    </effect>
    <effect id="ID18-fx" name="ID18">
      <profile_COMMON>
        <technique sid="COMMON">
          <lambert>
            <diffuse>
              <color sid="diffuse">0.764706 0.886275 0.94902 1</color>
            </diffuse>
            <transparent opaque="A_ONE">
              <color sid="transparent">1 1 1 1</color>
            </transparent>
            <transparency>
              <float sid="transparency">1</float>
            </transparency>
          </lambert>
        </technique>
        <extra>
          <technique profile="OTHER">
            <double_sided>1</double_sided>
          </technique>
        </extra>
      </profile_COMMON>
    </effect>
    <effect id="ID26-fx" name="ID26">
      <profile_COMMON>
        <technique sid="COMMON">
          <lambert>
            <diffuse>
              <color sid="diffuse">0.231373 0.376471 0.705882 1</color>
            </diffuse>
            <transparent opaque="A_ONE">
              <color sid="transparent">1 1 1 1</color>
            </transparent>
            <transparency>
              <float sid="transparency">1</float>
            </transparency>
          </lambert>
        </technique>
        <extra>
          <technique profile="OTHER">
            <double_sided>1</double_sided>
          </technique>
        </extra>
      </profile_COMMON>
    </effect>
    <effect id="ID34-fx" name="ID34">
      <profile_COMMON>
        <technique sid="COMMON">
          <lambert>
            <diffuse>
              <color sid="diffuse">0.913725 0.913725 0.913725 1</color>
            </diffuse>
            <transparent opaque="A_ONE">
              <color sid="transparent">1 1 1 1</color>
            </transparent>
            <transparency>
              <float sid="transparency">1</float>
            </transparency>
          </lambert>
        </technique>
        <extra>
          <technique profile="OTHER">
            <double_sided>1</double_sided>
          </technique>
        </extra>
      </profile_COMMON>
    </effect>
    <effect id="ID42-fx" name="ID42">
      <profile_COMMON>
        <technique sid="COMMON">
          <lambert>
            <diffuse>
              <color sid="diffuse">0.498039 0.498039 0.498039 1</color>
            </diffuse>
            <transparent opaque="A_ONE">
              <color sid="transparent">1 1 1 1</color>
            </transparent>
            <transparency>
              <float sid="transparency">1</float>
            </transparency>
          </lambert>
        </technique>
        <extra>
          <technique profile="OTHER">
            <double_sided>1</double_sided>
          </technique>
        </extra>
      </profile_COMMON>
    </effect>
    <effect id="ID50-fx" name="ID50">
      <profile_COMMON>
        <technique sid="COMMON">
          <lambert>
            <diffuse>
              <color sid="diffuse">0.647059 0.647059 0.647059 1</color>
            </diffuse>
            <transparent opaque="A_ONE">
              <color sid="transparent">1 1 1 1</color>
            </transparent>
            <transparency>
              <float sid="transparency">1</float>
            </transparency>
          </lambert>
        </technique>
        <extra>
          <technique profile="OTHER">
            <double_sided>1</double_sided>
          </technique>
        </extra>
      </profile_COMMON>
    </effect>
    <effect id="ID58-fx" name="ID58">
      <profile_COMMON>
        <technique sid="COMMON">
          <lambert>
            <diffuse>
              <color sid="diffuse">0.615686 0.811765 0.92549 1</color>
            </diffuse>
            <transparent opaque="A_ONE">
              <color sid="transparent">1 1 1 1</color>
            </transparent>
            <transparency>
              <float sid="transparency">1</float>
            </transparency>
          </lambert>
        </technique>
        <extra>
          <technique profile="OTHER">
            <double_sided>1</double_sided>
          </technique>
        </extra>
      </profile_COMMON>
    </effect>
  </library_effects>

  <library_geometries>
    <geometry id="ID4">
      <mesh>
        <source id="ID5">
          <float_array count="72" id="ID6">34.9 1.90797 0 34.9 0.0998039 4.5 34.9 1.90797 4.5 34.9 0.0998039 0 34.9 1.90797 4.5 33.681 1.90797 4.5 33.681 1.90797 0 34.9 1.90797 0 33.681 1.90797 0 33.681 1.90797 4.5 33.681 0.0998039 4.5 33.681 0.0998039 0 33.681 0.0998039 0 34.9 0.0998039 4.5 34.9 0.0998039 0 33.681 0.0998039 4.5 34.9 0.0998039 4.5 33.681 1.90797 4.5 34.9 1.90797 4.5 33.681 0.0998039 4.5 33.681 1.90797 0 33.681 0.0998039 0 34.9 0.0998039 0 34.9 1.90797 0</float_array>
          <technique_common>
            <accessor count="24" source="#ID6" stride="3">
              <param name="X" type="float"/>
              <param name="Y" type="float"/>
              <param name="Z" type="float"/>
            </accessor>
          </technique_common>
        </source>
        <source id="ID7">
          <float_array count="72" id="ID8">1 0 0 1 0 0 1 0 0 1 0 0 0 1 0 0 1 0 0 1 0 0 1 0 -1 0 0 -1 0 0 -1 0 0 -1 0 0 0 -1 0 0 -1 0 0 -1 0 0 -1 0 0 0 1 0 0 1 0 0 1 0 0 1 -0 -0 -1 -0 -0 -1 -0 -0 -1 -0 -0 -1</float_array>
          <technique_common>
            <accessor count="24" source="#ID8" stride="3">
              <param name="X" type="float"/>
              <param name="Y" type="float"/>
              <param name="Z" type="float"/>
            </accessor>
          </technique_common>
        </source>
        <vertices id="ID9">
          <input semantic="POSITION" source="#ID5"/>
          <input semantic="NORMAL" source="#ID7"/>
        </vertices>
        <triangles count="12" material="ID10">
          <input offset="0" semantic="VERTEX" source="#ID9"/>
          <p>0 2 1 1 3 0 4 6 5 4 7 6 8 10 9 10 8 11 12 14 13 12 13 15 16 18 17 16 17 19 20 22 21 20 23 22</p>
        </triangles>
      </mesh>
    </geometry>
    <geometry id="ID12">
      <mesh>
        <source id="ID13">
          <float_array count="72" id="ID14">34.9 33.9234 0 34.9 34.8998 0 34.9 34.8998 4.5 34.9 33.9234 4.5 34.9 34.8998 4.5 27.6804 34.8998 0 27.6804 34.8998 4.5 34.9 34.8998 0 27.6804 34.8998 4.5 27.6804 33.9234 0 27.6804 33.9234 4.5 27.6804 34.8998 0 27.6804 33.9234 0 34.9 33.9234 0 34.9 33.9234 4.5 27.6804 33.9234 4.5 34.9 33.9234 4.5 34.9 34.8998 4.5 27.6804 34.8998 4.5 27.6804 33.9234 4.5 27.6804 34.8998 0 34.9 33.9234 0 27.6804 33.9234 0 34.9 34.8998 0</float_array>
          <technique_common>
            <accessor count="24" source="#ID14" stride="3">
              <param name="X" type="float"/>
              <param name="Y" type="float"/>
              <param name="Z" type="float"/>
            </accessor>
          </technique_common>
        </source>
        <source id="ID15">
          <float_array count="72" id="ID16">1 0 0 1 0 0 1 0 0 1 0 0 0 1 0 0 1 0 0 1 0 0 1 0 -1 -0 -0 -1 -0 -0 -1 -0 -0 -1 -0 -0 0 -1 0 0 -1 0 0 -1 0 0 -1 0 0 0 1 0 0 1 0 0 1 0 0 1 -0 -0 -1 -0 -0 -1 -0 -0 -1 -0 -0 -1</float_array>
          <technique_common>
            <accessor count="24" source="#ID16" stride="3">
              <param name="X" type="float"/>
              <param name="Y" type="float"/>
              <param name="Z" type="float"/>
            </accessor>
          </technique_common>
        </source>
        <vertices id="ID17">
          <input semantic="POSITION" source="#ID13"/>
          <input semantic="NORMAL" source="#ID15"/>
        </vertices>
        <triangles count="12" material="ID18">
          <input offset="0" semantic="VERTEX" source="#ID17"/>
          <p>0 1 2 0 2 3 4 5 6 4 7 5 8 9 10 8 11 9 12 13 14 12 14 15 16 17 18 16 18 19 20 21 22 20 23 21</p>
        </triangles>
      </mesh>
    </geometry>
    <geometry id="ID20">
      <mesh>
        <source id="ID21">
          <float_array count="72" id="ID22">30 26.1069 0 30 14.0407 4.5 30 26.1069 4.5 30 14.0407 0 30.5604 14.0407 0 30.5604 14.0407 4.5 30 14.0407 4.5 30 14.0407 0 30.5604 26.1069 0 30.5604 26.1069 4.5 30.5604 14.0407 4.5 30.5604 14.0407 0 30.5604 26.1069 0 30 26.1069 4.5 30.5604 26.1069 4.5 30 26.1069 0 30 26.1069 4.5 30.5604 14.0407 4.5 30.5604 26.1069 4.5 30 14.0407 4.5 30 26.1069 0 30.5604 26.1069 0 30.5604 14.0407 0 30 14.0407 0</float_array>
          <technique_common>
            <accessor count="24" source="#ID22" stride="3">
              <param name="X" type="float"/>
              <param name="Y" type="float"/>
              <param name="Z" type="float"/>
            </accessor>
          </technique_common>
        </source>
        <source id="ID23">
          <float_array count="72" id="ID24">-1 0 0 -1 0 0 -1 0 0 -1 0 0 -0 -1 -0 -0 -1 -0 -0 -1 -0 -0 -1 -0 1 0 0 1 0 0 1 0 0 1 0 0 0 1 0 0 1 0 0 1 0 0 1 0 0 0 1 0 0 1 0 0 1 0 0 1 -0 -0 -1 -0 -0 -1 -0 -0 -1 -0 -0 -1</float_array>
          <technique_common>
            <accessor count="24" source="#ID24" stride="3">
              <param name="X" type="float"/>
              <param name="Y" type="float"/>
              <param name="Z" type="float"/>
            </accessor>
          </technique_common>
        </source>
        <vertices id="ID25">
          <input semantic="POSITION" source="#ID21"/>
          <input semantic="NORMAL" source="#ID23"/>
        </vertices>
        <triangles count="12" material="ID26">
          <input offset="0" semantic="VERTEX" source="#ID25"/>
          <p>0 1 2 1 0 3 4 5 6 6 7 4 8 9 10 10 11 8 12 13 14 13 12 15 16 17 18 17 16 19 20 21 22 22 23 20</p>
        </triangles>
      </mesh>
    </geometry>
    <geometry id="ID28">
      <mesh>
        <source id="ID29">
          <float_array count="72" id="ID30">18.4673 20.6252 0 16.9673 20.6252 4.5 18.4673 20.6252 4.5 16.9673 20.6252 0 18.4673 22.1252 0 18.4673 20.6252 4.5 18.4673 22.1252 4.5 18.4673 20.6252 0 18.4673 22.1252 0 18.4673 22.1252 4.5 16.9673 22.1252 4.5 16.9673 22.1252 0 16.9673 22.1252 0 16.9673 22.1252 4.5 16.9673 20.6252 4.5 16.9673 20.6252 0 16.9673 22.1252 4.5 18.4673 22.1252 4.5 18.4673 20.6252 4.5 16.9673 20.6252 4.5 18.4673 20.6252 0 18.4673 22.1252 0 16.9673 22.1252 0 16.9673 20.6252 0</float_array>
          <technique_common>
            <accessor count="24" source="#ID30" stride="3">
              <param name="X" type="float"/>
              <param name="Y" type="float"/>
              <param name="Z" type="float"/>
            </accessor>
          </technique_common>
        </source>
        <source id="ID31">
          <float_array count="72" id="ID32">-0 -1 -0 -0 -1 -0 -0 -1 -0 -0 -1 -0 1 0 0 1 0 0 1 0 0 1 0 0 0 1 0 0 1 0 0 1 0 0 1 0 -1 0 0 -1 0 0 -1 0 0 -1 0 0 0 0 1 0 0 1 0 0 1 0 0 1 -0 -0 -1 -0 -0 -1 -0 -0 -1 -0 -0 -1</float_array>
          <technique_common>
            <accessor count="24" source="#ID32" stride="3">
              <param name="X" type="float"/>
              <param name="Y" type="float"/>
              <param name="Z" type="float"/>
            </accessor>
          </technique_common>
        </source>
        <vertices id="ID33">
          <input semantic="POSITION" source="#ID29"/>
          <input semantic="NORMAL" source="#ID31"/>
        </vertices>
        <triangles count="12" material="ID34">
          <input offset="0" semantic="VERTEX" source="#ID33"/>
          <p>0 2 1 1 3 0 4 6 5 5 7 4 8 10 9 10 8 11 12 14 13 14 12 15 16 18 17 18 16 19 20 22 21 20 23 22</p>
        </triangles>
      </mesh>
    </geometry>
    <geometry id="ID36">
      <mesh>
        <source id="ID37">
          <float_array count="72" id="ID38">23.9659 18.3749 0 25 18.3749 0 25 18.3749 4.5 23.9659 18.3749 4.5 25 25.1677 0 25 25.1677 4.5 25 18.3749 4.5 25 18.3749 0 25 25.1677 4.5 23.9659 25.1677 0 23.9659 25.1677 4.5 25 25.1677 0 23.9659 25.1677 0 23.9659 18.3749 4.5 23.9659 25.1677 4.5 23.9659 18.3749 0 23.9659 25.1677 4.5 25 18.3749 4.5 25 25.1677 4.5 23.9659 18.3749 4.5 25 18.3749 0 23.9659 25.1677 0 25 25.1677 0 23.9659 18.3749 0</float_array>
          <technique_common>
            <accessor count="24" source="#ID38" stride="3">
              <param name="X" type="float"/>
              <param name="Y" type="float"/>
              <param name="Z" type="float"/>
            </accessor>
          </technique_common>
        </source>
        <source id="ID39">
          <float_array count="72" id="ID40">0 -1 0 0 -1 0 0 -1 0 0 -1 0 1 0 0 1 0 0 1 0 0 1 0 0 0 1 0 0 1 0 0 1 0 0 1 0 -1 0 0 -1 0 0 -1 0 0 -1 0 0 0 0 1 0 0 1 0 0 1 0 0 1 -0 -0 -1 -0 -0 -1 -0 -0 -1 -0 -0 -1</float_array>
          <technique_common>
            <accessor count="24" source="#ID40" stride="3">
              <param name="X" type="float"/>
              <param name="Y" type="float"/>
              <param name="Z" type="float"/>
            </accessor>
          </technique_common>
        </source>
        <vertices id="ID41">
          <input semantic="POSITION" source="#ID37"/>
          <input semantic="NORMAL" source="#ID39"/>
        </vertices>
        <triangles count="12" material="ID42">
          <input offset="0" semantic="VERTEX" source="#ID41"/>
          <p>0 1 2 0 2 3 4 5 6 6 7 4 8 9 10 8 11 9 12 13 14 13 12 15 16 17 18 17 16 19 20 21 22 20 23 21</p>
        </triangles>
      </mesh>
    </geometry>
    <geometry id="ID44">
      <mesh>
        <source id="ID45">
          <float_array count="108" id="ID46">1.06239 18.8403 0 0.758038 18.8403 4.5 1.06239 18.8403 4.5 0.758038 18.8403 0 0.758038 18.8403 0 0.758038 23.9889 0 0.758038 23.9889 4.5 0.758038 18.8403 4.5 0.758038 23.9889 0 0.1 23.9889 4.5 0.758038 23.9889 4.5 0.1 23.9889 0 0.1 23.9889 4.5 0.1 15.5916 0 0.1 15.5916 4.5 0.1 23.9889 0 1.06239 15.5916 0 1.06239 15.5916 4.5 0.1 15.5916 4.5 0.1 15.5916 0 1.06239 15.5916 0 1.06239 18.8403 0 1.06239 18.8403 4.5 1.06239 15.5916 4.5 0.758038 18.8403 4.5 0.1 15.5916 4.5 1.06239 15.5916 4.5 0.758038 23.9889 4.5 0.1 23.9889 4.5 1.06239 18.8403 4.5 0.758038 18.8403 0 0.1 23.9889 0 0.758038 23.9889 0 1.06239 18.8403 0 1.06239 15.5916 0 0.1 15.5916 0</float_array>
          <technique_common>
            <accessor count="36" source="#ID46" stride="3">
              <param name="X" type="float"/>
              <param name="Y" type="float"/>
              <param name="Z" type="float"/>
            </accessor>
          </technique_common>
        </source>
        <source id="ID47">
          <float_array count="108" id="ID48">0 1 0 0 1 0 0 1 0 0 1 0 1 0 0 1 0 0 1 0 0 1 0 0 0 1 0 0 1 0 0 1 0 0 1 0 -1 -0 -0 -1 -0 -0 -1 -0 -0 -1 -0 -0 -0 -1 -0 -0 -1 -0 -0 -1 -0 -0 -1 -0 1 0 0 1 0 0 1 0 0 1 0 0 0 0 1 0 0 1 0 0 1 0 0 1 0 0 1 0 0 1 -0 -0 -1 -0 -0 -1 -0 -0 -1 -0 -0 -1 -0 -0 -1 -0 -0 -1</float_array>
          <technique_common>
            <accessor count="36" source="#ID48" stride="3">
              <param name="X" type="float"/>
              <param name="Y" type="float"/>
              <param name="Z" type="float"/>
            </accessor>
          </technique_common>
        </source>
        <vertices id="ID49">
          <input semantic="POSITION" source="#ID45"/>
          <input semantic="NORMAL" source="#ID47"/>
        </vertices>
        <triangles count="20" material="ID50">
          <input offset="0" semantic="VERTEX" source="#ID49"/>
          <p>0 1 2 1 0 3 4 5 6 4 6 7 8 9 10 9 8 11 12 13 14 12 15 13 16 17 18 18 19 16 20 21 22 20 22 23 24 25 26 24 27 28 24 28 25 24 26 29 30 31 32 33 34 30 30 35 31 30 34 35</p>
        </triangles>
      </mesh>
    </geometry>
    <geometry id="ID52">
      <mesh>
        <source id="ID53">
          <float_array count="72" id="ID54">4.91884 2.07806 0 0.1 2.07806 4.5 4.91884 2.07806 4.5 0.1 2.07806 0 0.1 2.07806 0 0.1 0.0998039 4.5 0.1 2.07806 4.5 0.1 0.0998039 0 4.91884 0.0998039 0 4.91884 0.0998039 4.5 0.1 0.0998039 4.5 0.1 0.0998039 0 4.91884 2.07806 0 4.91884 2.07806 4.5 4.91884 0.0998039 4.5 4.91884 0.0998039 0 0.1 2.07806 4.5 0.1 0.0998039 4.5 4.91884 0.0998039 4.5 4.91884 2.07806 4.5 0.1 2.07806 0 4.91884 2.07806 0 4.91884 0.0998039 0 0.1 0.0998039 0</float_array>
          <technique_common>
            <accessor count="24" source="#ID54" stride="3">
              <param name="X" type="float"/>
              <param name="Y" type="float"/>
              <param name="Z" type="float"/>
            </accessor>
          </technique_common>
        </source>
        <source id="ID55">
          <float_array count="72" id="ID56">0 1 0 0 1 0 0 1 0 0 1 0 -1 0 0 -1 0 0 -1 0 0 -1 0 0 -0 -1 -0 -0 -1 -0 -0 -1 -0 -0 -1 -0 1 0 0 1 0 0 1 0 0 1 0 0 0 0 1 0 0 1 0 0 1 0 0 1 -0 -0 -1 -0 -0 -1 -0 -0 -1 -0 -0 -1</float_array>
          <technique_common>
            <accessor count="24" source="#ID56" stride="3">
              <param name="X" type="float"/>
              <param name="Y" type="float"/>
              <param name="Z" type="float"/>
            </accessor>
          </technique_common>
        </source>
        <vertices id="ID57">
          <input semantic="POSITION" source="#ID53"/>
          <input semantic="NORMAL" source="#ID55"/>
        </vertices>
        <triangles count="12" material="ID58">
          <input offset="0" semantic="VERTEX" source="#ID57"/>
          <p>0 1 2 1 0 3 4 5 6 5 4 7 8 9 10 10 11 8 12 13 14 14 15 12 16 17 18 16 18 19 20 21 22 22 23 20</p>
        </triangles>
      </mesh>
    </geometry>
  </library_geometries>

  <library_visual_scenes>
    <visual_scene id="ID1">
      <node id="ID2" name="Assembly 1">
        <node>
          <matrix>1 0 0 0 0 1 0 0 0 0 1 0 0 0 0 1</matrix>
          <instance_node url="#ID3"/>
        </node>
        <node>
          <matrix>1 0 0 0 0 1 0 0 0 0 1 0 0 0 0 1</matrix>
          <instance_node url="#ID11"/>
        </node>
        <node>
          <matrix>1 0 0 0 0 1 0 0 0 0 1 0 0 0 0 1</matrix>
          <instance_node url="#ID19"/>
        </node>
        <node>
          <matrix>1 0 0 0 0 1 0 0 0 0 1 0 0 0 0 1</matrix>
          <instance_node url="#ID27"/>
        </node>
        <node>
          <matrix>1 0 0 0 0 1 0 0 0 0 1 0 0 0 0 1</matrix>
          <instance_node url="#ID35"/>
        </node>
        <node>
          <matrix>1 0 0 0 0 1 0 0 0 0 1 0 0 0 0 1</matrix>
          <instance_node url="#ID43"/>
        </node>
        <node>
          <matrix>1 0 0 0 0 1 0 0 0 0 1 0 0 0 0 1</matrix>
          <instance_node url="#ID51"/>
        </node>
      </node>
    </visual_scene>
  </library_visual_scenes>

  <scene>
    <instance_visual_scene url="#ID1"/>
  </scene>

  <library_nodes>
    <node id="ID3" name="Part 9">
      <instance_geometry url="#ID4">
        <bind_material>
          <technique_common>
            <instance_material symbol="ID10" target="#ID10"/>
          </technique_common>
        </bind_material>
      </instance_geometry>
    </node>
    <node id="ID11" name="Part 14">
      <instance_geometry url="#ID12">
        <bind_material>
          <technique_common>
            <instance_material symbol="ID18" target="#ID18"/>
          </technique_common>
        </bind_material>
      </instance_geometry>
    </node>
    <node id="ID19" name="Part 12">
      <instance_geometry url="#ID20">
        <bind_material>
          <technique_common>
            <instance_material symbol="ID26" target="#ID26"/>
          </technique_common>
        </bind_material>
      </instance_geometry>
    </node>
    <node id="ID27" name="Part 13">
      <instance_geometry url="#ID28">
        <bind_material>
          <technique_common>
            <instance_material symbol="ID34" target="#ID34"/>
          </technique_common>
        </bind_material>
      </instance_geometry>
    </node>
    <node id="ID35" name="Part 8">
      <instance_geometry url="#ID36">
        <bind_material>
          <technique_common>
            <instance_material symbol="ID42" target="#ID42"/>
          </technique_common>
        </bind_material>
      </instance_geometry>
    </node>
    <node id="ID43" name="Part 11">
      <instance_geometry url="#ID44">
        <bind_material>
          <technique_common>
            <instance_material symbol="ID50" target="#ID50"/>
          </technique_common>
        </bind_material>
      </instance_geometry>
    </node>
    <node id="ID51" name="Part 10">
      <instance_geometry url="#ID52">
        <bind_material>
          <technique_common>
            <instance_material symbol="ID58" target="#ID58"/>
          </technique_common>
        </bind_material>
      </instance_geometry>
    </node>
  </library_nodes>

</COLLADA>
