solid Mesh
  facet normal 0 0 -1
    outer loop
      vertex 34.9 34.8998 0
      vertex 35 35 0
      vertex 34.9 0.0998039 0
    endloop
  endfacet
  facet normal 0 0 -1
    outer loop
      vertex 35 35 0
      vertex 35 0 0
      vertex 34.9 0.0998039 0
    endloop
  endfacet
  facet normal 0 0 -1
    outer loop
      vertex 34.9 0.0998039 0
      vertex 35 0 0
      vertex 0.1 0.0998039 0
    endloop
  endfacet
  facet normal 0 0 -1
    outer loop
      vertex 35 0 0
      vertex 0 0 0
      vertex 0.1 0.0998039 0
    endloop
  endfacet
  facet normal 0 0 -1
    outer loop
      vertex 0.1 0.0998039 0
      vertex 0 0 0
      vertex 0.1 34.8998 0
    endloop
  endfacet
  facet normal 0 0 -1
    outer loop
      vertex 0 0 0
      vertex -6.42889e-15 35 0
      vertex 0.1 34.8998 0
    endloop
  endfacet
  facet normal 0 0 -1
    outer loop
      vertex 0.1 34.8998 0
      vertex -6.42889e-15 35 0
      vertex 34.9 34.8998 0
    endloop
  endfacet
  facet normal 0 0 -1
    outer loop
      vertex -6.42889e-15 35 0
      vertex 35 35 0
      vertex 34.9 34.8998 0
    endloop
  endfacet
  facet normal 0 0 1
    outer loop
      vertex 0.1 34.8998 5
      vertex -6.42889e-15 35 5
      vertex 0.1 0.0998039 5
    endloop
  endfacet
  facet normal 0 0 1
    outer loop
      vertex -6.42889e-15 35 5
      vertex 0 0 5
      vertex 0.1 0.0998039 5
    endloop
  endfacet
  facet normal 0 0 1
    outer loop
      vertex 0.1 0.0998039 5
      vertex 0 0 5
      vertex 34.9 0.0998039 5
    endloop
  endfacet
  facet normal 0 0 1
    outer loop
      vertex 0 0 5
      vertex 35 0 5
      vertex 34.9 0.0998039 5
    endloop
  endfacet
  facet normal 0 0 1
    outer loop
      vertex 34.9 0.0998039 5
      vertex 35 0 5
      vertex 34.9 34.8998 5
    endloop
  endfacet
  facet normal 0 0 1
    outer loop
      vertex 35 0 5
      vertex 35 35 5
      vertex 34.9 34.8998 5
    endloop
  endfacet
  facet normal 0 0 1
    outer loop
      vertex 34.9 34.8998 5
      vertex 35 35 5
      vertex 0.1 34.8998 5
    endloop
  endfacet
  facet normal 0 0 1
    outer loop
      vertex 35 35 5
      vertex -6.42889e-15 35 5
      vertex 0.1 34.8998 5
    endloop
  endfacet
  facet normal -1 0 0
    outer loop
      vertex 34.9 0.0998039 5
      vertex 34.9 34.8998 5
      vertex 34.9 0.0998039 0
    endloop
  endfacet
  facet normal -1 0 0
    outer loop
      vertex 34.9 34.8998 5
      vertex 34.9 34.8998 0
      vertex 34.9 0.0998039 0
    endloop
  endfacet
  facet normal 0 1 0
    outer loop
      vertex -6.42889e-15 35 5
      vertex 35 35 5
      vertex -6.42889e-15 35 0
    endloop
  endfacet
  facet normal 0 1 0
    outer loop
      vertex 35 35 5
      vertex 35 35 0
      vertex -6.42889e-15 35 0
    endloop
  endfacet
  facet normal 1 0 0
    outer loop
      vertex 0.1 34.8998 5
      vertex 0.1 0.0998039 5
      vertex 0.1 34.8998 0
    endloop
  endfacet
  facet normal 1 0 0
    outer loop
      vertex 0.1 0.0998039 5
      vertex 0.1 0.0998039 0
      vertex 0.1 34.8998 0
    endloop
  endfacet
  facet normal 0 1 0
    outer loop
      vertex 0.1 0.0998039 5
      vertex 34.9 0.0998039 5
      vertex 0.1 0.0998039 0
    endloop
  endfacet
  facet normal 0 1 0
    outer loop
      vertex 34.9 0.0998039 5
      vertex 34.9 0.0998039 0
      vertex 0.1 0.0998039 0
    endloop
  endfacet
  facet normal 0 -1 0
    outer loop
      vertex 34.9 34.8998 5
      vertex 0.1 34.8998 5
      vertex 34.9 34.8998 0
    endloop
  endfacet
  facet normal 0 -1 0
    outer loop
      vertex 0.1 34.8998 5
      vertex 0.1 34.8998 0
      vertex 34.9 34.8998 0
    endloop
  endfacet
  facet normal 0 -1 0
    outer loop
      vertex 35 0 5
      vertex 0 0 5
      vertex 35 0 0
    endloop
  endfacet
  facet normal 0 -1 0
    outer loop
      vertex 0 0 5
      vertex 0 0 0
      vertex 35 0 0
    endloop
  endfacet
  facet normal -1 -1.83682e-16 0
    outer loop
      vertex 0 0 5
      vertex -6.42889e-15 35 5
      vertex 0 0 0
    endloop
  endfacet
  facet normal -1 -1.83682e-16 0
    outer loop
      vertex -6.42889e-15 35 5
      vertex -6.42889e-15 35 0
      vertex 0 0 0
    endloop
  endfacet
  facet normal 1 0 0
    outer loop
      vertex 35 35 5
      vertex 35 0 5
      vertex 35 35 0
    endloop
  endfacet
  facet normal 1 0 0
    outer loop
      vertex 35 0 5
      vertex 35 0 0
      vertex 35 35 0
    endloop
  endfacet
endsolid Mesh
