<?xml version="1.0" encoding="UTF-8" standalone="no" ?>
<COLLADA version="1.4.1" xmlns="http://www.collada.org/2005/11/COLLADASchema">

  <asset>
    <created>2024-06-24T16:42:12</created>
    <modified>2024-06-24T16:42:12</modified>
    <unit meter="1" name="meters"/>
    <up_axis>Z_UP</up_axis>
  </asset>

  <library_materials>
    <material id="ID9" name="ID9">
      <instance_effect url="#ID9-fx"/>
    </material>
  </library_materials>

  <library_effects>
    <effect id="ID9-fx" name="ID9">
      <profile_COMMON>
        <technique sid="COMMON">
          <lambert>
            <diffuse>
              <color sid="diffuse">0.615686 0.811765 0.92549 1</color>
            </diffuse>
            <transparent opaque="A_ONE">
              <color sid="transparent">1 1 1 1</color>
            </transparent>
            <transparency>
              <float sid="transparency">1</float>
            </transparency>
          </lambert>
        </technique>
        <extra>
          <technique profile="OTHER">
            <double_sided>1</double_sided>
          </technique>
        </extra>
      </profile_COMMON>
    </effect>
  </library_effects>

  <library_geometries>
    <geometry id="ID3">
      <mesh>
        <source id="ID4">
          <float_array count="144" id="ID5">34.9 0.0998039 0 0.1 0.0998039 5 34.9 0.0998039 5 0.1 0.0998039 0 0.1 34.8998 0 0.1 34.8998 5 0.1 0.0998039 5 0.1 0.0998039 0 34.9 34.8998 0 34.9 34.8998 5 0.1 34.8998 5 0.1 34.8998 0 0 35 0 0 0 5 0 35 5 0 0 0 35 0 0 35 0 5 0 0 5 0 0 0 35 0 0 35 35 5 35 0 5 35 35 0 35 35 0 0 35 5 35 35 5 0 35 0 34.9 34.8998 5 34.9 0.0998039 0 34.9 0.0998039 5 34.9 34.8998 0 0 35 5 0.1 34.8998 5 34.9 34.8998 5 35 0 5 35 35 5 34.9 0.0998039 5 0.1 0.0998039 5 0 0 5 34.9 34.8998 0 0.1 34.8998 0 0 35 0 0.1 0.0998039 0 0 0 0 35 0 0 35 35 0 34.9 0.0998039 0</float_array>
          <technique_common>
            <accessor count="48" source="#ID5" stride="3">
              <param name="X" type="float"/>
              <param name="Y" type="float"/>
              <param name="Z" type="float"/>
            </accessor>
          </technique_common>
        </source>
        <source id="ID6">
          <float_array count="144" id="ID7">0 1 0 0 1 0 0 1 0 0 1 0 1 0 0 1 0 0 1 0 0 1 0 0 -0 -1 -0 -0 -1 -0 -0 -1 -0 -0 -1 -0 -1 0 0 -1 0 0 -1 0 0 -1 0 0 -0 -1 -0 -0 -1 -0 -0 -1 -0 -0 -1 -0 1 2.03012e-16 0 1 2.03012e-16 0 1 2.03012e-16 0 1 2.03012e-16 0 0 1 0 0 1 0 0 1 0 0 1 0 -1 -2.04179e-16 0 -1 -2.04179e-16 0 -1 -2.04179e-16 0 -1 -2.04179e-16 0 0 0 1 0 0 1 0 0 1 0 0 1 0 0 1 0 0 1 0 0 1 0 0 1 -0 -0 -1 -0 -0 -1 -0 -0 -1 -0 -0 -1 -0 -0 -1 -0 -0 -1 -0 -0 -1 -0 -0 -1</float_array>
          <technique_common>
            <accessor count="48" source="#ID7" stride="3">
              <param name="X" type="float"/>
              <param name="Y" type="float"/>
              <param name="Z" type="float"/>
            </accessor>
          </technique_common>
        </source>
        <vertices id="ID8">
          <input semantic="POSITION" source="#ID4"/>
          <input semantic="NORMAL" source="#ID6"/>
        </vertices>
        <triangles count="32" material="ID9">
          <input offset="0" semantic="VERTEX" source="#ID8"/>
          <p>0 1 2 1 0 3 4 5 6 6 7 4 8 9 10 10 11 8 12 13 14 13 12 15 16 17 18 18 19 16 20 21 22 20 23 21 24 25 26 25 24 27 28 29 30 29 28 31 32 33 34 34 35 36 37 35 34 35 37 38 32 39 38 35 38 39 32 38 33 32 34 36 40 41 42 43 44 42 44 43 45 41 43 42 42 46 40 45 40 46 43 47 45 40 45 47</p>
        </triangles>
      </mesh>
    </geometry>
  </library_geometries>

  <library_visual_scenes>
    <visual_scene id="ID1">
      <node id="ID2">
        <instance_geometry url="#ID3">
          <bind_material>
            <technique_common>
              <instance_material symbol="ID9" target="#ID9"/>
            </technique_common>
          </bind_material>
        </instance_geometry>
      </node>
    </visual_scene>
  </library_visual_scenes>

  <scene>
    <instance_visual_scene url="#ID1"/>
  </scene>

  <library_nodes/>

</COLLADA>
