<?xml version="1.0" encoding="UTF-8" standalone="no" ?>
<COLLADA version="1.4.1" xmlns="http://www.collada.org/2005/11/COLLADASchema">

  <asset>
    <created>2024-08-09T21:35:58</created>
    <modified>2024-08-09T21:35:58</modified>
    <unit meter="1" name="meters"/>
    <up_axis>Z_UP</up_axis>
  </asset>

  <library_materials>
    <material id="ID10" name="ID10">
      <instance_effect url="#ID10-fx"/>
    </material>
    <material id="ID18" name="ID18">
      <instance_effect url="#ID18-fx"/>
    </material>
    <material id="ID26" name="ID26">
      <instance_effect url="#ID26-fx"/>
    </material>
    <material id="ID34" name="ID34">
      <instance_effect url="#ID34-fx"/>
    </material>
    <material id="ID49" name="ID49">
      <instance_effect url="#ID49-fx"/>
    </material>
    <material id="ID57" name="ID57">
      <instance_effect url="#ID57-fx"/>
    </material>
    <material id="ID65" name="ID65">
      <instance_effect url="#ID65-fx"/>
    </material>
    <material id="ID73" name="ID73">
      <instance_effect url="#ID73-fx"/>
    </material>
  </library_materials>

  <library_effects>
    <effect id="ID10-fx" name="ID10">
      <profile_COMMON>
        <technique sid="COMMON">
          <lambert>
            <diffuse>
              <color sid="diffuse">0.913725 0.913725 0.913725 1</color>
            </diffuse>
            <transparent opaque="A_ONE">
              <color sid="transparent">1 1 1 1</color>
            </transparent>
            <transparency>
              <float sid="transparency">1</float>
            </transparency>
          </lambert>
        </technique>
        <extra>
          <technique profile="OTHER">
            <double_sided>1</double_sided>
          </technique>
        </extra>
      </profile_COMMON>
    </effect>
    <effect id="ID18-fx" name="ID18">
      <profile_COMMON>
        <technique sid="COMMON">
          <lambert>
            <diffuse>
              <color sid="diffuse">0.498039 0.498039 0.498039 1</color>
            </diffuse>
            <transparent opaque="A_ONE">
              <color sid="transparent">1 1 1 1</color>
            </transparent>
            <transparency>
              <float sid="transparency">1</float>
            </transparency>
          </lambert>
        </technique>
        <extra>
          <technique profile="OTHER">
            <double_sided>1</double_sided>
          </technique>
        </extra>
      </profile_COMMON>
    </effect>
    <effect id="ID26-fx" name="ID26">
      <profile_COMMON>
        <technique sid="COMMON">
          <lambert>
            <diffuse>
              <color sid="diffuse">0.615686 0.811765 0.92549 1</color>
            </diffuse>
            <transparent opaque="A_ONE">
              <color sid="transparent">1 1 1 1</color>
            </transparent>
            <transparency>
              <float sid="transparency">1</float>
            </transparency>
          </lambert>
        </technique>
        <extra>
          <technique profile="OTHER">
            <double_sided>1</double_sided>
          </technique>
        </extra>
      </profile_COMMON>
    </effect>
    <effect id="ID34-fx" name="ID34">
      <profile_COMMON>
        <technique sid="COMMON">
          <lambert>
            <diffuse>
              <color sid="diffuse">0.231373 0.376471 0.705882 1</color>
            </diffuse>
            <transparent opaque="A_ONE">
              <color sid="transparent">1 1 1 1</color>
            </transparent>
            <transparency>
              <float sid="transparency">1</float>
            </transparency>
          </lambert>
        </technique>
        <extra>
          <technique profile="OTHER">
            <double_sided>1</double_sided>
          </technique>
        </extra>
      </profile_COMMON>
    </effect>
    <effect id="ID49-fx" name="ID49">
      <profile_COMMON>
        <technique sid="COMMON">
          <lambert>
            <diffuse>
              <color sid="diffuse">0.764706 0.886275 0.94902 1</color>
            </diffuse>
            <transparent opaque="A_ONE">
              <color sid="transparent">1 1 1 1</color>
            </transparent>
            <transparency>
              <float sid="transparency">1</float>
            </transparency>
          </lambert>
        </technique>
        <extra>
          <technique profile="OTHER">
            <double_sided>1</double_sided>
          </technique>
        </extra>
      </profile_COMMON>
    </effect>
    <effect id="ID57-fx" name="ID57">
      <profile_COMMON>
        <technique sid="COMMON">
          <lambert>
            <diffuse>
              <color sid="diffuse">0.647059 0.647059 0.647059 1</color>
            </diffuse>
            <transparent opaque="A_ONE">
              <color sid="transparent">1 1 1 1</color>
            </transparent>
            <transparency>
              <float sid="transparency">1</float>
            </transparency>
          </lambert>
        </technique>
        <extra>
          <technique profile="OTHER">
            <double_sided>1</double_sided>
          </technique>
        </extra>
      </profile_COMMON>
    </effect>
    <effect id="ID65-fx" name="ID65">
      <profile_COMMON>
        <technique sid="COMMON">
          <lambert>
            <diffuse>
              <color sid="diffuse">0.968627 0.52549 0.00392157 1</color>
            </diffuse>
            <transparent opaque="A_ONE">
              <color sid="transparent">1 1 1 1</color>
            </transparent>
            <transparency>
              <float sid="transparency">1</float>
            </transparency>
          </lambert>
        </technique>
        <extra>
          <technique profile="OTHER">
            <double_sided>1</double_sided>
          </technique>
        </extra>
      </profile_COMMON>
    </effect>
    <effect id="ID73-fx" name="ID73">
      <profile_COMMON>
        <technique sid="COMMON">
          <lambert>
            <diffuse>
              <color sid="diffuse">0.976471 0.709804 0.00392157 1</color>
            </diffuse>
            <transparent opaque="A_ONE">
              <color sid="transparent">1 1 1 1</color>
            </transparent>
            <transparency>
              <float sid="transparency">1</float>
            </transparency>
          </lambert>
        </technique>
        <extra>
          <technique profile="OTHER">
            <double_sided>1</double_sided>
          </technique>
        </extra>
      </profile_COMMON>
    </effect>
  </library_effects>

  <library_geometries>
    <geometry id="ID4">
      <mesh>
        <source id="ID5">
          <float_array count="72" id="ID6">31.0504 4.99111 0 29.5328 4.99111 3 31.0504 4.99111 3 29.5328 4.99111 0 29.5328 4.99111 3 29.5328 4.41889 0 29.5328 4.41889 3 29.5328 4.99111 0 31.0504 4.41889 0 31.0504 4.41889 3 29.5328 4.41889 3 29.5328 4.41889 0 31.0504 4.41889 0 31.0504 4.99111 0 31.0504 4.99111 3 31.0504 4.41889 3 29.5328 4.99111 3 29.5328 4.41889 3 31.0504 4.41889 3 31.0504 4.99111 3 29.5328 4.99111 0 31.0504 4.99111 0 31.0504 4.41889 0 29.5328 4.41889 0</float_array>
          <technique_common>
            <accessor count="24" source="#ID6" stride="3">
              <param name="X" type="float"/>
              <param name="Y" type="float"/>
              <param name="Z" type="float"/>
            </accessor>
          </technique_common>
        </source>
        <source id="ID7">
          <float_array count="72" id="ID8">0 1 0 0 1 0 0 1 0 0 1 0 -1 -0 -0 -1 -0 -0 -1 -0 -0 -1 -0 -0 -0 -1 -0 -0 -1 -0 -0 -1 -0 -0 -1 -0 1 0 0 1 0 0 1 0 0 1 0 0 0 0 1 0 0 1 0 0 1 0 0 1 -0 -0 -1 -0 -0 -1 -0 -0 -1 -0 -0 -1</float_array>
          <technique_common>
            <accessor count="24" source="#ID8" stride="3">
              <param name="X" type="float"/>
              <param name="Y" type="float"/>
              <param name="Z" type="float"/>
            </accessor>
          </technique_common>
        </source>
        <vertices id="ID9">
          <input semantic="POSITION" source="#ID5"/>
          <input semantic="NORMAL" source="#ID7"/>
        </vertices>
        <triangles count="12" material="ID10">
          <input offset="0" semantic="VERTEX" source="#ID9"/>
          <p>0 1 2 1 0 3 4 5 6 4 7 5 8 9 10 10 11 8 12 13 14 12 14 15 16 17 18 16 18 19 20 21 22 22 23 20</p>
        </triangles>
      </mesh>
    </geometry>
    <geometry id="ID12">
      <mesh>
        <source id="ID13">
          <float_array count="72" id="ID14">6.92031 31.9676 0 10 31.9676 0 10 31.9676 3 6.92031 31.9676 3 10 34.8998 0 10 34.8998 3 10 31.9676 3 10 31.9676 0 10 34.8998 3 6.92031 34.8998 0 6.92031 34.8998 3 10 34.8998 0 6.92031 34.8998 3 6.92031 31.9676 0 6.92031 31.9676 3 6.92031 34.8998 0 6.92031 34.8998 3 10 31.9676 3 10 34.8998 3 6.92031 31.9676 3 10 31.9676 0 6.92031 34.8998 0 10 34.8998 0 6.92031 31.9676 0</float_array>
          <technique_common>
            <accessor count="24" source="#ID14" stride="3">
              <param name="X" type="float"/>
              <param name="Y" type="float"/>
              <param name="Z" type="float"/>
            </accessor>
          </technique_common>
        </source>
        <source id="ID15">
          <float_array count="72" id="ID16">0 -1 0 0 -1 0 0 -1 0 0 -1 0 1 0 0 1 0 0 1 0 0 1 0 0 0 1 0 0 1 0 0 1 0 0 1 0 -1 -0 -0 -1 -0 -0 -1 -0 -0 -1 -0 -0 0 0 1 0 0 1 0 0 1 0 0 1 -0 -0 -1 -0 -0 -1 -0 -0 -1 -0 -0 -1</float_array>
          <technique_common>
            <accessor count="24" source="#ID16" stride="3">
              <param name="X" type="float"/>
              <param name="Y" type="float"/>
              <param name="Z" type="float"/>
            </accessor>
          </technique_common>
        </source>
        <vertices id="ID17">
          <input semantic="POSITION" source="#ID13"/>
          <input semantic="NORMAL" source="#ID15"/>
        </vertices>
        <triangles count="12" material="ID18">
          <input offset="0" semantic="VERTEX" source="#ID17"/>
          <p>0 1 2 0 2 3 4 5 6 6 7 4 8 9 10 8 11 9 12 13 14 12 15 13 16 17 18 17 16 19 20 21 22 20 23 21</p>
        </triangles>
      </mesh>
    </geometry>
    <geometry id="ID20">
      <mesh>
        <source id="ID21">
          <float_array count="72" id="ID22">34.0389 1.90797 0 34.9 1.90797 0 34.9 1.90797 3 34.0389 1.90797 3 34.9 2.55887 0 34.9 2.55887 3 34.9 1.90797 3 34.9 1.90797 0 34.9 2.55887 3 34.0389 2.55887 0 34.0389 2.55887 3 34.9 2.55887 0 34.0389 2.55887 0 34.0389 1.90797 3 34.0389 2.55887 3 34.0389 1.90797 0 34.0389 2.55887 3 34.9 1.90797 3 34.9 2.55887 3 34.0389 1.90797 3 34.9 1.90797 0 34.0389 2.55887 0 34.9 2.55887 0 34.0389 1.90797 0</float_array>
          <technique_common>
            <accessor count="24" source="#ID22" stride="3">
              <param name="X" type="float"/>
              <param name="Y" type="float"/>
              <param name="Z" type="float"/>
            </accessor>
          </technique_common>
        </source>
        <source id="ID23">
          <float_array count="72" id="ID24">0 -1 0 0 -1 0 0 -1 0 0 -1 0 1 0 0 1 0 0 1 0 0 1 0 0 0 1 0 0 1 0 0 1 0 0 1 0 -1 0 0 -1 0 0 -1 0 0 -1 0 0 0 0 1 0 0 1 0 0 1 0 0 1 -0 -0 -1 -0 -0 -1 -0 -0 -1 -0 -0 -1</float_array>
          <technique_common>
            <accessor count="24" source="#ID24" stride="3">
              <param name="X" type="float"/>
              <param name="Y" type="float"/>
              <param name="Z" type="float"/>
            </accessor>
          </technique_common>
        </source>
        <vertices id="ID25">
          <input semantic="POSITION" source="#ID21"/>
          <input semantic="NORMAL" source="#ID23"/>
        </vertices>
        <triangles count="12" material="ID26">
          <input offset="0" semantic="VERTEX" source="#ID25"/>
          <p>0 1 2 0 2 3 4 5 6 6 7 4 8 9 10 8 11 9 12 13 14 13 12 15 16 17 18 17 16 19 20 21 22 20 23 21</p>
        </triangles>
      </mesh>
    </geometry>
    <geometry id="ID28">
      <mesh>
        <source id="ID29">
          <float_array count="72" id="ID30">0.1 3.77519 0 0.1 2.07806 3 0.1 3.77519 3 0.1 2.07806 0 2.96821 2.07806 0 2.96821 2.07806 3 0.1 2.07806 3 0.1 2.07806 0 2.96821 3.77519 0 2.96821 3.77519 3 2.96821 2.07806 3 2.96821 2.07806 0 2.96821 3.77519 3 0.1 3.77519 0 0.1 3.77519 3 2.96821 3.77519 0 0.1 3.77519 3 2.96821 2.07806 3 2.96821 3.77519 3 0.1 2.07806 3 0.1 3.77519 0 2.96821 3.77519 0 2.96821 2.07806 0 0.1 2.07806 0</float_array>
          <technique_common>
            <accessor count="24" source="#ID30" stride="3">
              <param name="X" type="float"/>
              <param name="Y" type="float"/>
              <param name="Z" type="float"/>
            </accessor>
          </technique_common>
        </source>
        <source id="ID31">
          <float_array count="72" id="ID32">-1 0 0 -1 0 0 -1 0 0 -1 0 0 -0 -1 -0 -0 -1 -0 -0 -1 -0 -0 -1 -0 1 0 0 1 0 0 1 0 0 1 0 0 0 1 0 0 1 0 0 1 0 0 1 0 0 0 1 0 0 1 0 0 1 0 0 1 -0 -0 -1 -0 -0 -1 -0 -0 -1 -0 -0 -1</float_array>
          <technique_common>
            <accessor count="24" source="#ID32" stride="3">
              <param name="X" type="float"/>
              <param name="Y" type="float"/>
              <param name="Z" type="float"/>
            </accessor>
          </technique_common>
        </source>
        <vertices id="ID33">
          <input semantic="POSITION" source="#ID29"/>
          <input semantic="NORMAL" source="#ID31"/>
        </vertices>
        <triangles count="12" material="ID34">
          <input offset="0" semantic="VERTEX" source="#ID33"/>
          <p>0 1 2 1 0 3 4 5 6 6 7 4 8 9 10 10 11 8 12 13 14 12 15 13 16 17 18 17 16 19 20 21 22 22 23 20</p>
        </triangles>
      </mesh>
    </geometry>
    <geometry id="ID36">
      <mesh>
        <source id="ID37">
          <float_array count="72" id="ID38">5 14.1662 0 4.11166 14.1662 3 5 14.1662 3 4.11166 14.1662 0 4.11166 14.1662 0 4.11166 13.2698 3 4.11166 14.1662 3 4.11166 13.2698 0 4.11166 13.2698 0 5 13.2698 0 5 13.2698 3 4.11166 13.2698 3 5 13.2698 0 5 14.1662 0 5 14.1662 3 5 13.2698 3 4.11166 14.1662 3 4.11166 13.2698 3 5 13.2698 3 5 14.1662 3 4.11166 14.1662 0 5 14.1662 0 5 13.2698 0 4.11166 13.2698 0</float_array>
          <technique_common>
            <accessor count="24" source="#ID38" stride="3">
              <param name="X" type="float"/>
              <param name="Y" type="float"/>
              <param name="Z" type="float"/>
            </accessor>
          </technique_common>
        </source>
        <source id="ID39">
          <float_array count="72" id="ID40">0 1 0 0 1 0 0 1 0 0 1 0 -1 0 0 -1 0 0 -1 0 0 -1 0 0 0 -1 0 0 -1 0 0 -1 0 0 -1 0 1 0 0 1 0 0 1 0 0 1 0 0 0 0 1 0 0 1 0 0 1 0 0 1 -0 -0 -1 -0 -0 -1 -0 -0 -1 -0 -0 -1</float_array>
          <technique_common>
            <accessor count="24" source="#ID40" stride="3">
              <param name="X" type="float"/>
              <param name="Y" type="float"/>
              <param name="Z" type="float"/>
            </accessor>
          </technique_common>
        </source>
        <vertices id="ID41">
          <input semantic="POSITION" source="#ID37"/>
          <input semantic="NORMAL" source="#ID39"/>
        </vertices>
        <triangles count="12" material="ID18">
          <input offset="0" semantic="VERTEX" source="#ID41"/>
          <p>0 1 2 1 0 3 4 5 6 5 4 7 8 9 10 8 10 11 12 13 14 12 14 15 16 17 18 16 18 19 20 21 22 22 23 20</p>
        </triangles>
      </mesh>
    </geometry>
    <geometry id="ID43">
      <mesh>
        <source id="ID44">
          <float_array count="72" id="ID45">4.42282 7.55226 0 4.42282 6.63765 3 4.42282 7.55226 3 4.42282 6.63765 0 6.04632 6.63765 0 6.04632 6.63765 3 4.42282 6.63765 3 4.42282 6.63765 0 6.04632 7.55226 0 6.04632 7.55226 3 6.04632 6.63765 3 6.04632 6.63765 0 6.04632 7.55226 0 4.42282 7.55226 3 6.04632 7.55226 3 4.42282 7.55226 0 4.42282 7.55226 3 6.04632 6.63765 3 6.04632 7.55226 3 4.42282 6.63765 3 4.42282 7.55226 0 6.04632 7.55226 0 6.04632 6.63765 0 4.42282 6.63765 0</float_array>
          <technique_common>
            <accessor count="24" source="#ID45" stride="3">
              <param name="X" type="float"/>
              <param name="Y" type="float"/>
              <param name="Z" type="float"/>
            </accessor>
          </technique_common>
        </source>
        <source id="ID46">
          <float_array count="72" id="ID47">-1 0 0 -1 0 0 -1 0 0 -1 0 0 -0 -1 -0 -0 -1 -0 -0 -1 -0 -0 -1 -0 1 0 0 1 0 0 1 0 0 1 0 0 0 1 0 0 1 0 0 1 0 0 1 0 0 0 1 0 0 1 0 0 1 0 0 1 -0 -0 -1 -0 -0 -1 -0 -0 -1 -0 -0 -1</float_array>
          <technique_common>
            <accessor count="24" source="#ID47" stride="3">
              <param name="X" type="float"/>
              <param name="Y" type="float"/>
              <param name="Z" type="float"/>
            </accessor>
          </technique_common>
        </source>
        <vertices id="ID48">
          <input semantic="POSITION" source="#ID44"/>
          <input semantic="NORMAL" source="#ID46"/>
        </vertices>
        <triangles count="12" material="ID49">
          <input offset="0" semantic="VERTEX" source="#ID48"/>
          <p>0 1 2 1 0 3 4 5 6 6 7 4 8 9 10 10 11 8 12 13 14 13 12 15 16 17 18 17 16 19 20 21 22 22 23 20</p>
        </triangles>
      </mesh>
    </geometry>
    <geometry id="ID51">
      <mesh>
        <source id="ID52">
          <float_array count="162" id="ID53">2.32322 34.8998 0 0.1 34.8998 3 2.32322 34.8998 3 0.1 34.8998 0 0.1 34.8998 0 0.1 32.6766 3 0.1 34.8998 3 0.1 32.6766 0 1.67206 33.3277 3 1.67206 33.3277 0 1.89863 33.593 0 2.08091 33.8905 0 1.89863 33.593 3 2.21441 34.2128 0 2.08091 33.8905 3 2.21441 34.2128 3 2.29585 34.552 0 2.32322 34.8998 0 2.29585 34.552 3 2.32322 34.8998 3 1.40678 33.1012 3 1.40678 33.1012 0 1.10932 32.9189 3 0.787014 32.7854 3 1.10932 32.9189 0 0.447789 32.704 3 0.787014 32.7854 0 0.447789 32.704 0 0.1 32.6766 3 0.1 32.6766 0 0.1 34.8998 3 0.1 32.6766 3 0.447789 32.704 3 0.787014 32.7854 3 1.10932 32.9189 3 1.40678 33.1012 3 1.67206 33.3277 3 1.89863 33.593 3 2.08091 33.8905 3 2.21441 34.2128 3 2.32322 34.8998 3 2.29585 34.552 3 0.1 34.8998 0 0.787014 32.7854 0 0.447789 32.704 0 1.10932 32.9189 0 0.1 32.6766 0 1.67206 33.3277 0 1.40678 33.1012 0 2.08091 33.8905 0 1.89863 33.593 0 2.29585 34.552 0 2.21441 34.2128 0 2.32322 34.8998 0</float_array>
          <technique_common>
            <accessor count="54" source="#ID53" stride="3">
              <param name="X" type="float"/>
              <param name="Y" type="float"/>
              <param name="Z" type="float"/>
            </accessor>
          </technique_common>
        </source>
        <source id="ID54">
          <float_array count="162" id="ID55">0 1 0 0 1 0 0 1 0 0 1 0 -1 -1.24844e-16 -0 -1 -1.24844e-16 -0 -1 -1.24844e-16 -0 -1 -1.24844e-16 -0 0.707107 -0.707107 7.06224e-17 0.707107 -0.707107 7.06223e-17 0.809017 -0.587785 5.87051e-17 0.891007 -0.45399 4.53423e-17 0.809017 -0.587785 5.87051e-17 0.951057 -0.309017 3.08631e-17 0.891007 -0.45399 4.53423e-17 0.951057 -0.309017 3.08631e-17 0.987688 -0.156435 1.56239e-17 1 -5.96244e-09 5.95499e-25 0.987688 -0.156435 1.56239e-17 1 -5.96244e-09 5.95499e-25 0.587785 -0.809017 8.08006e-17 0.587785 -0.809017 8.08006e-17 0.453991 -0.891007 8.89893e-17 0.309017 -0.951057 9.49868e-17 0.453991 -0.891007 8.89893e-17 0.156435 -0.987688 9.86454e-17 0.309017 -0.951057 9.49868e-17 0.156434 -0.987688 9.86455e-17 6.95355e-08 -1 9.98751e-17 -1.68883e-07 -1 9.98751e-17 0 0 1 0 0 1 0 0 1 0 0 1 0 0 1 0 0 1 0 0 1 0 0 1 0 0 1 0 0 1 0 0 1 0 0 1 -0 -0 -1 -0 -0 -1 -0 -0 -1 -0 -0 -1 -0 -0 -1 -0 -0 -1 -0 -0 -1 -0 -0 -1 -0 -0 -1 -0 -0 -1 -0 -0 -1 -0 -0 -1</float_array>
          <technique_common>
            <accessor count="54" source="#ID55" stride="3">
              <param name="X" type="float"/>
              <param name="Y" type="float"/>
              <param name="Z" type="float"/>
            </accessor>
          </technique_common>
        </source>
        <vertices id="ID56">
          <input semantic="POSITION" source="#ID52"/>
          <input semantic="NORMAL" source="#ID54"/>
        </vertices>
        <triangles count="44" material="ID57">
          <input offset="0" semantic="VERTEX" source="#ID56"/>
          <p>0 1 2 1 0 3 4 5 6 4 7 5 8 9 10 11 12 10 8 10 12 11 13 14 14 12 11 15 13 16 13 15 14 17 18 16 15 16 18 19 18 17 20 9 8 21 20 22 20 21 9 23 24 22 21 22 24 23 25 26 26 24 23 27 25 28 25 27 26 27 28 29 30 31 32 32 33 30 30 34 35 33 34 30 30 36 37 35 36 30 30 38 39 37 38 30 40 30 41 39 41 30 42 43 44 43 42 45 42 44 46 42 47 48 45 42 48 42 49 50 47 42 50 42 51 52 49 42 52 51 42 53</p>
        </triangles>
      </mesh>
    </geometry>
    <geometry id="ID59">
      <mesh>
        <source id="ID60">
          <float_array count="270" id="ID61">5 20.6593 0 4.11166 20.6593 3 5 20.6593 3 4.11166 20.6593 0 4.264 19.8598 0 4.264 19.8598 3 4.19064 19.9142 3 4.34532 19.8181 0 4.34532 19.8181 3 4.43238 19.7905 3 4.43238 19.7905 0 4.52281 19.7775 0 4.52281 19.7775 3 4.61414 19.7796 0 4.61414 19.7796 3 4.70388 19.7967 3 4.70388 19.7967 0 4.78958 19.8283 0 4.78958 19.8283 3 4.8689 19.8736 0 4.8689 19.8736 3 4.93969 19.9314 3 4.93969 19.9314 0 5 20 0 5 20 3 4.19064 19.9142 0 4.12725 19.98 3 4.12725 19.98 0 4.07554 20.0553 3 4.07554 20.0553 0 4.03693 20.1381 0 4.03693 20.1381 3 4.01248 20.2261 3 4.01248 20.2261 0 4.00285 20.3169 3 4.00285 20.3169 0 4.00831 20.4081 0 4.00831 20.4081 3 4.02869 20.4972 3 4.02869 20.4972 0 4.06346 20.5817 3 4.06346 20.5817 0 4.11166 20.6593 3 4.11166 20.6593 0 5 20 0 5 20.6593 0 5 20.6593 3 5 20 3 5 20.6593 3 4.11166 20.6593 3 4.06346 20.5817 3 4.02869 20.4972 3 4.00831 20.4081 3 5 20 3 4.03693 20.1381 3 4.07554 20.0553 3 4.00285 20.3169 3 4.264 19.8598 3 4.78958 19.8283 3 4.8689 19.8736 3 4.19064 19.9142 3 4.93969 19.9314 3 4.12725 19.98 3 4.43238 19.7905 3 4.52281 19.7775 3 4.61414 19.7796 3 4.70388 19.7967 3 4.34532 19.8181 3 4.01248 20.2261 3 4.8689 19.8736 0 4.78958 19.8283 0 4.264 19.8598 0 4.19064 19.9142 0 4.12725 19.98 0 5 20 0 4.93969 19.9314 0 4.43238 19.7905 0 4.61414 19.7796 0 4.52281 19.7775 0 4.70388 19.7967 0 4.34532 19.8181 0 4.07554 20.0553 0 4.03693 20.1381 0 4.01248 20.2261 0 4.00285 20.3169 0 4.00831 20.4081 0 5 20.6593 0 4.02869 20.4972 0 4.06346 20.5817 0 4.11166 20.6593 0</float_array>
          <technique_common>
            <accessor count="90" source="#ID61" stride="3">
              <param name="X" type="float"/>
              <param name="Y" type="float"/>
              <param name="Z" type="float"/>
            </accessor>
          </technique_common>
        </source>
        <source id="ID62">
          <float_array count="270" id="ID63">0 1 0 0 1 0 0 1 0 0 1 0 -0.527597 -0.849495 3.4102e-16 -0.527597 -0.849495 3.4102e-16 -0.660223 -0.751069 3.01508e-16 -0.380579 -0.924749 3.7123e-16 -0.380579 -0.924749 3.7123e-16 -0.22318 -0.974777 3.91313e-16 -0.22318 -0.974777 3.91313e-16 -0.0596925 -0.998217 4.00723e-16 -0.0596925 -0.998217 4.00723e-16 0.105423 -0.994428 3.99201e-16 0.105423 -0.994428 3.99201e-16 0.267662 -0.963513 3.86791e-16 0.267662 -0.963513 3.86791e-16 0.422601 -0.906316 3.6383e-16 0.422601 -0.906316 3.6383e-16 0.566012 -0.824397 3.30945e-16 0.566012 -0.824397 3.30945e-16 0.693983 -0.719991 2.89032e-16 0.693983 -0.719991 2.89032e-16 0.803025 -0.595946 2.39235e-16 0.803025 -0.595946 2.39235e-16 -0.660223 -0.751069 3.01508e-16 -0.774841 -0.632157 2.53772e-16 -0.774841 -0.632157 2.53772e-16 -0.868322 -0.496 1.99114e-16 -0.868322 -0.496 1.99114e-16 -0.938119 -0.346314 1.39024e-16 -0.938119 -0.346314 1.39024e-16 -0.982325 -0.187182 7.5142e-17 -0.982325 -0.187182 7.5142e-17 -0.999737 -0.0229434 9.21035e-18 -0.999737 -0.0229434 9.21035e-18 -0.989878 0.141921 -5.69725e-17 -0.989878 0.141921 -5.69725e-17 -0.953018 0.302914 -1.21601e-16 -0.953018 0.302914 -1.21601e-16 -0.890162 0.455644 -1.82913e-16 -0.890162 0.455644 -1.82913e-16 -0.803025 0.595945 -2.39235e-16 -0.803025 0.595945 -2.39235e-16 1 0 0 1 0 0 1 0 0 1 0 0 0 0 1 0 0 1 0 0 1 0 0 1 0 0 1 0 0 1 0 0 1 0 0 1 0 0 1 0 0 1 0 0 1 0 0 1 0 0 1 0 0 1 0 0 1 0 0 1 0 0 1 0 0 1 0 0 1 0 0 1 0 0 1 -0 -0 -1 -0 -0 -1 -0 -0 -1 -0 -0 -1 -0 -0 -1 -0 -0 -1 -0 -0 -1 -0 -0 -1 -0 -0 -1 -0 -0 -1 -0 -0 -1 -0 -0 -1 -0 -0 -1 -0 -0 -1 -0 -0 -1 -0 -0 -1 -0 -0 -1 -0 -0 -1 -0 -0 -1 -0 -0 -1 -0 -0 -1</float_array>
          <technique_common>
            <accessor count="90" source="#ID63" stride="3">
              <param name="X" type="float"/>
              <param name="Y" type="float"/>
              <param name="Z" type="float"/>
            </accessor>
          </technique_common>
        </source>
        <vertices id="ID64">
          <input semantic="POSITION" source="#ID60"/>
          <input semantic="NORMAL" source="#ID62"/>
        </vertices>
        <triangles count="80" material="ID65">
          <input offset="0" semantic="VERTEX" source="#ID64"/>
          <p>0 1 2 1 0 3 4 5 6 5 7 8 7 5 4 9 8 10 7 10 8 11 12 9 9 10 11 12 13 14 13 12 11 15 14 16 13 16 14 17 18 15 15 16 17 18 19 20 19 18 17 21 20 22 19 22 20 23 24 21 21 22 23 4 6 25 26 27 25 25 6 26 27 28 29 28 27 26 30 29 31 28 31 29 32 33 30 30 31 32 33 34 35 34 33 32 36 35 37 34 37 35 38 39 36 36 37 38 39 40 41 40 39 38 40 42 41 41 42 43 44 45 46 44 46 47 48 49 50 48 51 52 50 51 48 53 54 55 56 53 52 57 58 59 60 61 62 63 64 65 66 67 63 63 65 66 67 58 57 67 66 58 60 59 61 60 57 59 55 62 53 53 62 61 68 53 56 54 53 68 53 48 52 69 70 71 71 72 69 73 74 75 76 77 78 70 79 80 80 79 76 77 76 79 75 69 72 70 80 71 72 73 75 81 82 74 73 81 74 74 83 84 82 83 74 85 86 74 74 84 85 86 87 88 85 87 86 86 88 89</p>
        </triangles>
      </mesh>
    </geometry>
    <geometry id="ID67">
      <mesh>
        <source id="ID68">
          <float_array count="72" id="ID69">34.8942 13.729 0 33.4227 13.729 3 34.8942 13.729 3 33.4227 13.729 0 33.4227 13.729 3 33.4227 13.3299 0 33.4227 13.3299 3 33.4227 13.729 0 34.8942 13.3299 0 34.8942 13.3299 3 33.4227 13.3299 3 33.4227 13.3299 0 34.8942 13.3299 0 34.8942 13.729 0 34.8942 13.729 3 34.8942 13.3299 3 33.4227 13.729 3 33.4227 13.3299 3 34.8942 13.3299 3 34.8942 13.729 3 33.4227 13.729 0 34.8942 13.729 0 34.8942 13.3299 0 33.4227 13.3299 0</float_array>
          <technique_common>
            <accessor count="24" source="#ID69" stride="3">
              <param name="X" type="float"/>
              <param name="Y" type="float"/>
              <param name="Z" type="float"/>
            </accessor>
          </technique_common>
        </source>
        <source id="ID70">
          <float_array count="72" id="ID71">0 1 0 0 1 0 0 1 0 0 1 0 -1 -0 -0 -1 -0 -0 -1 -0 -0 -1 -0 -0 -0 -1 -0 -0 -1 -0 -0 -1 -0 -0 -1 -0 1 0 0 1 0 0 1 0 0 1 0 0 0 0 1 0 0 1 0 0 1 0 0 1 -0 -0 -1 -0 -0 -1 -0 -0 -1 -0 -0 -1</float_array>
          <technique_common>
            <accessor count="24" source="#ID71" stride="3">
              <param name="X" type="float"/>
              <param name="Y" type="float"/>
              <param name="Z" type="float"/>
            </accessor>
          </technique_common>
        </source>
        <vertices id="ID72">
          <input semantic="POSITION" source="#ID68"/>
          <input semantic="NORMAL" source="#ID70"/>
        </vertices>
        <triangles count="12" material="ID73">
          <input offset="0" semantic="VERTEX" source="#ID72"/>
          <p>0 1 2 1 0 3 4 5 6 4 7 5 8 9 10 10 11 8 12 13 14 12 14 15 16 17 18 16 18 19 20 21 22 22 23 20</p>
        </triangles>
      </mesh>
    </geometry>
    <geometry id="ID75">
      <mesh>
        <source id="ID76">
          <float_array count="144" id="ID77">30.2546 21.3203 0 30.2546 16.7948 3 30.2546 21.3203 3 30.2546 16.7948 0 30.9506 16.7948 0 30.9506 16.7948 3 30.2546 16.7948 3 30.2546 16.7948 0 30.9506 16.7948 0 30.9506 17.1688 0 30.9506 17.1688 3 30.9506 16.7948 3 30.9506 17.1688 0 30.587 17.1688 3 30.9506 17.1688 3 30.587 17.1688 0 30.587 17.1688 0 30.587 19.7995 0 30.587 19.7995 3 30.587 17.1688 3 30.587 19.7995 3 30.4208 19.7995 0 30.4208 19.7995 3 30.587 19.7995 0 30.4208 21.3203 0 30.4208 21.3203 3 30.4208 19.7995 3 30.4208 19.7995 0 30.4208 21.3203 3 30.2546 21.3203 0 30.2546 21.3203 3 30.4208 21.3203 0 30.587 17.1688 3 30.9506 16.7948 3 30.9506 17.1688 3 30.587 19.7995 3 30.4208 19.7995 3 30.2546 16.7948 3 30.2546 21.3203 3 30.4208 21.3203 3 30.587 17.1688 0 30.9506 17.1688 0 30.9506 16.7948 0 30.2546 16.7948 0 30.4208 19.7995 0 30.587 19.7995 0 30.2546 21.3203 0 30.4208 21.3203 0</float_array>
          <technique_common>
            <accessor count="48" source="#ID77" stride="3">
              <param name="X" type="float"/>
              <param name="Y" type="float"/>
              <param name="Z" type="float"/>
            </accessor>
          </technique_common>
        </source>
        <source id="ID78">
          <float_array count="144" id="ID79">-1 0 0 -1 0 0 -1 0 0 -1 0 0 -0 -1 -0 -0 -1 -0 -0 -1 -0 -0 -1 -0 1 0 0 1 0 0 1 0 0 1 0 0 0 1 0 0 1 0 0 1 0 0 1 0 1 0 0 1 0 0 1 0 0 1 0 0 0 1 0 0 1 0 0 1 0 0 1 0 1 0 0 1 0 0 1 0 0 1 0 0 0 1 0 0 1 0 0 1 0 0 1 0 0 0 1 0 0 1 0 0 1 0 0 1 0 0 1 0 0 1 0 0 1 0 0 1 -0 -0 -1 -0 -0 -1 -0 -0 -1 -0 -0 -1 -0 -0 -1 -0 -0 -1 -0 -0 -1 -0 -0 -1</float_array>
          <technique_common>
            <accessor count="48" source="#ID79" stride="3">
              <param name="X" type="float"/>
              <param name="Y" type="float"/>
              <param name="Z" type="float"/>
            </accessor>
          </technique_common>
        </source>
        <vertices id="ID80">
          <input semantic="POSITION" source="#ID76"/>
          <input semantic="NORMAL" source="#ID78"/>
        </vertices>
        <triangles count="28" material="ID49">
          <input offset="0" semantic="VERTEX" source="#ID80"/>
          <p>0 1 2 1 0 3 4 5 6 6 7 4 8 9 10 8 10 11 12 13 14 13 12 15 16 17 18 16 18 19 20 21 22 20 23 21 24 25 26 26 27 24 28 29 30 28 31 29 32 33 34 32 35 36 33 32 37 38 37 36 32 36 37 36 39 38 40 41 42 40 43 44 40 44 45 42 43 40 44 43 46 47 44 46</p>
        </triangles>
      </mesh>
    </geometry>
    <geometry id="ID82">
      <mesh>
        <source id="ID83">
          <float_array count="144" id="ID84">15 10.475 0 14.0949 10.475 3 15 10.475 3 14.0949 10.475 0 14.0949 10.7914 0 14.0949 10.7914 3 14.0949 10.475 3 14.0949 10.475 0 14.0949 10.7914 3 13.276 10.7914 0 13.276 10.7914 3 14.0949 10.7914 0 13.276 10.7914 0 13.276 10.475 3 13.276 10.7914 3 13.276 10.475 0 13.276 10.475 0 12.5 10.475 3 13.276 10.475 3 12.5 10.475 0 12.5 10.475 0 12.5 10 3 12.5 10.475 3 12.5 10 0 15 10 0 15 10 3 12.5 10 3 12.5 10 0 15 10.475 0 15 10.475 3 15 10 3 15 10 0 14.0949 10.475 3 12.5 10 3 15 10 3 14.0949 10.7914 3 13.276 10.7914 3 13.276 10.475 3 12.5 10.475 3 15 10.475 3 14.0949 10.475 0 12.5 10 0 13.276 10.475 0 13.276 10.7914 0 14.0949 10.7914 0 15 10.475 0 15 10 0 12.5 10.475 0</float_array>
          <technique_common>
            <accessor count="48" source="#ID84" stride="3">
              <param name="X" type="float"/>
              <param name="Y" type="float"/>
              <param name="Z" type="float"/>
            </accessor>
          </technique_common>
        </source>
        <source id="ID85">
          <float_array count="144" id="ID86">0 1 0 0 1 0 0 1 0 0 1 0 1 0 0 1 0 0 1 0 0 1 0 0 0 1 0 0 1 0 0 1 0 0 1 0 -1 0 0 -1 0 0 -1 0 0 -1 0 0 0 1 0 0 1 0 0 1 0 0 1 0 -1 0 0 -1 0 0 -1 0 0 -1 0 0 -0 -1 -0 -0 -1 -0 -0 -1 -0 -0 -1 -0 1 0 0 1 0 0 1 0 0 1 0 0 0 0 1 0 0 1 0 0 1 0 0 1 0 0 1 0 0 1 0 0 1 0 0 1 -0 -0 -1 -0 -0 -1 -0 -0 -1 -0 -0 -1 -0 -0 -1 -0 -0 -1 -0 -0 -1 -0 -0 -1</float_array>
          <technique_common>
            <accessor count="48" source="#ID86" stride="3">
              <param name="X" type="float"/>
              <param name="Y" type="float"/>
              <param name="Z" type="float"/>
            </accessor>
          </technique_common>
        </source>
        <vertices id="ID87">
          <input semantic="POSITION" source="#ID83"/>
          <input semantic="NORMAL" source="#ID85"/>
        </vertices>
        <triangles count="28" material="ID26">
          <input offset="0" semantic="VERTEX" source="#ID87"/>
          <p>0 1 2 1 0 3 4 5 6 6 7 4 8 9 10 8 11 9 12 13 14 13 12 15 16 17 18 17 16 19 20 21 22 21 20 23 24 25 26 26 27 24 28 29 30 30 31 28 32 33 34 32 35 36 37 33 32 38 33 37 32 36 37 39 32 34 40 41 42 40 43 44 45 46 40 47 42 41 40 42 43 41 40 46</p>
        </triangles>
      </mesh>
    </geometry>
    <geometry id="ID89">
      <mesh>
        <source id="ID90">
          <float_array count="72" id="ID91">32.6418 0.0998039 0 33.681 0.0998039 0 33.681 0.0998039 3 32.6418 0.0998039 3 33.681 1.58445 0 33.681 1.58445 3 33.681 0.0998039 3 33.681 0.0998039 0 33.681 1.58445 3 32.6418 1.58445 0 32.6418 1.58445 3 33.681 1.58445 0 32.6418 1.58445 0 32.6418 0.0998039 3 32.6418 1.58445 3 32.6418 0.0998039 0 32.6418 1.58445 3 33.681 0.0998039 3 33.681 1.58445 3 32.6418 0.0998039 3 33.681 0.0998039 0 32.6418 1.58445 0 33.681 1.58445 0 32.6418 0.0998039 0</float_array>
          <technique_common>
            <accessor count="24" source="#ID91" stride="3">
              <param name="X" type="float"/>
              <param name="Y" type="float"/>
              <param name="Z" type="float"/>
            </accessor>
          </technique_common>
        </source>
        <source id="ID92">
          <float_array count="72" id="ID93">0 -1 0 0 -1 0 0 -1 0 0 -1 0 1 0 0 1 0 0 1 0 0 1 0 0 0 1 0 0 1 0 0 1 0 0 1 0 -1 0 0 -1 0 0 -1 0 0 -1 0 0 0 0 1 0 0 1 0 0 1 0 0 1 -0 -0 -1 -0 -0 -1 -0 -0 -1 -0 -0 -1</float_array>
          <technique_common>
            <accessor count="24" source="#ID93" stride="3">
              <param name="X" type="float"/>
              <param name="Y" type="float"/>
              <param name="Z" type="float"/>
            </accessor>
          </technique_common>
        </source>
        <vertices id="ID94">
          <input semantic="POSITION" source="#ID90"/>
          <input semantic="NORMAL" source="#ID92"/>
        </vertices>
        <triangles count="12" material="ID57">
          <input offset="0" semantic="VERTEX" source="#ID94"/>
          <p>0 1 2 0 2 3 4 5 6 6 7 4 8 9 10 8 11 9 12 13 14 13 12 15 16 17 18 17 16 19 20 21 22 20 23 21</p>
        </triangles>
      </mesh>
    </geometry>
    <geometry id="ID96">
      <mesh>
        <source id="ID97">
          <float_array count="108" id="ID98">30.2546 26.6436 0 30.2546 26.1069 3 30.2546 26.6436 3 30.2546 26.1069 0 30.1896 27.0903 3 30.1096 27.302 0 30.1896 27.0903 0 30 27.5 4.54747e-16 30.1096 27.302 3 30 27.5 3 30.2382 26.8693 3 30.2382 26.8693 0 30.2546 26.6436 3 30.2546 26.6436 0 30 27.5 3 30 26.1069 3 30 26.1069 0 30 27.5 4.54747e-16 30.2546 26.1069 0 30 26.1069 3 30.2546 26.1069 3 30 26.1069 0 30.2546 26.6436 3 30.1896 27.0903 3 30.2382 26.8693 3 30 26.1069 3 30.1096 27.302 3 30 27.5 3 30.2546 26.1069 3 30 26.1069 0 30.2546 26.6436 0 30.1896 27.0903 0 30.1096 27.302 0 30.2382 26.8693 0 30 27.5 4.54747e-16 30.2546 26.1069 0</float_array>
          <technique_common>
            <accessor count="36" source="#ID98" stride="3">
              <param name="X" type="float"/>
              <param name="Y" type="float"/>
              <param name="Z" type="float"/>
            </accessor>
          </technique_common>
        </source>
        <source id="ID99">
          <float_array count="108" id="ID100">1 0 0 1 0 0 1 0 0 1 0 0 0.958543 0.284947 -4.03585e-17 0.907532 0.419983 -5.94843e-17 0.958543 0.284947 -4.03585e-17 0.837611 0.546268 -7.73707e-17 0.907532 0.419983 -5.94843e-17 0.837611 0.546268 -7.73707e-17 0.989582 0.143973 -2.03917e-17 0.989582 0.143973 -2.03917e-17 1 -5.20006e-08 7.36511e-24 1 -5.20006e-08 7.36511e-24 -1 -0 -0 -1 -0 -0 -1 -0 -0 -1 -0 -0 -0 -1 -0 -0 -1 -0 -0 -1 -0 -0 -1 -0 0 0 1 0 0 1 0 0 1 0 0 1 0 0 1 0 0 1 0 0 1 -0 -0 -1 -0 -0 -1 -0 -0 -1 -0 -0 -1 -0 -0 -1 -0 -0 -1 -0 -0 -1</float_array>
          <technique_common>
            <accessor count="36" source="#ID100" stride="3">
              <param name="X" type="float"/>
              <param name="Y" type="float"/>
              <param name="Z" type="float"/>
            </accessor>
          </technique_common>
        </source>
        <vertices id="ID101">
          <input semantic="POSITION" source="#ID97"/>
          <input semantic="NORMAL" source="#ID99"/>
        </vertices>
        <triangles count="24" material="ID10">
          <input offset="0" semantic="VERTEX" source="#ID101"/>
          <p>0 2 1 1 3 0 4 6 5 7 8 5 4 5 8 9 8 7 10 6 4 11 10 12 10 11 6 11 12 13 14 16 15 14 17 16 18 20 19 19 21 18 22 24 23 23 26 25 25 22 23 27 25 26 28 22 25 29 31 30 31 29 32 30 31 33 34 32 29 30 35 29</p>
        </triangles>
      </mesh>
    </geometry>
    <geometry id="ID103">
      <mesh>
        <source id="ID104">
          <float_array count="72" id="ID105">14.753 5 0 11.7328 5 3 14.753 5 3 11.7328 5 0 11.7328 5 3 11.7328 4.14474 0 11.7328 4.14474 3 11.7328 5 0 14.753 4.14474 0 14.753 4.14474 3 11.7328 4.14474 3 11.7328 4.14474 0 14.753 4.14474 0 14.753 5 0 14.753 5 3 14.753 4.14474 3 11.7328 5 3 11.7328 4.14474 3 14.753 4.14474 3 14.753 5 3 11.7328 5 0 14.753 5 0 14.753 4.14474 0 11.7328 4.14474 0</float_array>
          <technique_common>
            <accessor count="24" source="#ID105" stride="3">
              <param name="X" type="float"/>
              <param name="Y" type="float"/>
              <param name="Z" type="float"/>
            </accessor>
          </technique_common>
        </source>
        <source id="ID106">
          <float_array count="72" id="ID107">0 1 0 0 1 0 0 1 0 0 1 0 -1 -0 -0 -1 -0 -0 -1 -0 -0 -1 -0 -0 -0 -1 -0 -0 -1 -0 -0 -1 -0 -0 -1 -0 1 0 0 1 0 0 1 0 0 1 0 0 0 0 1 0 0 1 0 0 1 0 0 1 -0 -0 -1 -0 -0 -1 -0 -0 -1 -0 -0 -1</float_array>
          <technique_common>
            <accessor count="24" source="#ID107" stride="3">
              <param name="X" type="float"/>
              <param name="Y" type="float"/>
              <param name="Z" type="float"/>
            </accessor>
          </technique_common>
        </source>
        <vertices id="ID108">
          <input semantic="POSITION" source="#ID104"/>
          <input semantic="NORMAL" source="#ID106"/>
        </vertices>
        <triangles count="12" material="ID73">
          <input offset="0" semantic="VERTEX" source="#ID108"/>
          <p>0 1 2 1 0 3 4 5 6 4 7 5 8 9 10 10 11 8 12 13 14 12 14 15 16 17 18 16 18 19 20 21 22 22 23 20</p>
        </triangles>
      </mesh>
    </geometry>
    <geometry id="ID110">
      <mesh>
        <source id="ID111">
          <float_array count="72" id="ID112">15 7.42889 0 15 6.80052 3 15 7.42889 3 15 6.80052 0 15.6255 6.80052 0 15.6255 6.80052 3 15 6.80052 3 15 6.80052 0 15.6255 7.42889 0 15.6255 7.42889 3 15.6255 6.80052 3 15.6255 6.80052 0 15.6255 7.42889 0 15 7.42889 3 15.6255 7.42889 3 15 7.42889 0 15 7.42889 3 15.6255 6.80052 3 15.6255 7.42889 3 15 6.80052 3 15 7.42889 0 15.6255 7.42889 0 15.6255 6.80052 0 15 6.80052 0</float_array>
          <technique_common>
            <accessor count="24" source="#ID112" stride="3">
              <param name="X" type="float"/>
              <param name="Y" type="float"/>
              <param name="Z" type="float"/>
            </accessor>
          </technique_common>
        </source>
        <source id="ID113">
          <float_array count="72" id="ID114">-1 0 0 -1 0 0 -1 0 0 -1 0 0 -0 -1 -0 -0 -1 -0 -0 -1 -0 -0 -1 -0 1 0 0 1 0 0 1 0 0 1 0 0 0 1 0 0 1 0 0 1 0 0 1 0 0 0 1 0 0 1 0 0 1 0 0 1 -0 -0 -1 -0 -0 -1 -0 -0 -1 -0 -0 -1</float_array>
          <technique_common>
            <accessor count="24" source="#ID114" stride="3">
              <param name="X" type="float"/>
              <param name="Y" type="float"/>
              <param name="Z" type="float"/>
            </accessor>
          </technique_common>
        </source>
        <vertices id="ID115">
          <input semantic="POSITION" source="#ID111"/>
          <input semantic="NORMAL" source="#ID113"/>
        </vertices>
        <triangles count="12" material="ID34">
          <input offset="0" semantic="VERTEX" source="#ID115"/>
          <p>0 1 2 1 0 3 4 5 6 6 7 4 8 9 10 10 11 8 12 13 14 13 12 15 16 17 18 17 16 19 20 21 22 22 23 20</p>
        </triangles>
      </mesh>
    </geometry>
  </library_geometries>

  <library_visual_scenes>
    <visual_scene id="ID1">
      <node id="ID2" name="Assembly 1">
        <node>
          <matrix>1 0 0 0 0 1 0 0 0 0 1 0 0 0 0 1</matrix>
          <instance_node url="#ID3"/>
        </node>
        <node>
          <matrix>1 0 0 0 0 1 0 0 0 0 1 0 0 0 0 1</matrix>
          <instance_node url="#ID11"/>
        </node>
        <node>
          <matrix>1 0 0 0 0 1 0 0 0 0 1 0 0 0 0 1</matrix>
          <instance_node url="#ID19"/>
        </node>
        <node>
          <matrix>1 0 0 0 0 1 0 0 0 0 1 0 0 0 0 1</matrix>
          <instance_node url="#ID27"/>
        </node>
        <node>
          <matrix>1 0 0 0 0 1 0 0 0 0 1 0 0 0 0 1</matrix>
          <instance_node url="#ID35"/>
        </node>
        <node>
          <matrix>1 0 0 0 0 1 0 0 0 0 1 0 0 0 0 1</matrix>
          <instance_node url="#ID42"/>
        </node>
        <node>
          <matrix>1 0 0 0 0 1 0 0 0 0 1 0 0 0 0 1</matrix>
          <instance_node url="#ID50"/>
        </node>
        <node>
          <matrix>1 0 0 0 0 1 0 0 0 0 1 0 0 0 0 1</matrix>
          <instance_node url="#ID58"/>
        </node>
        <node>
          <matrix>1 0 0 0 0 1 0 0 0 0 1 0 0 0 0 1</matrix>
          <instance_node url="#ID66"/>
        </node>
        <node>
          <matrix>1 0 0 0 0 1 0 0 0 0 1 0 0 0 0 1</matrix>
          <instance_node url="#ID74"/>
        </node>
        <node>
          <matrix>1 0 0 0 0 1 0 0 0 0 1 0 0 0 0 1</matrix>
          <instance_node url="#ID81"/>
        </node>
        <node>
          <matrix>1 0 0 0 0 1 0 0 0 0 1 0 0 0 0 1</matrix>
          <instance_node url="#ID88"/>
        </node>
        <node>
          <matrix>1 0 0 0 0 1 0 0 0 0 1 0 0 0 0 1</matrix>
          <instance_node url="#ID95"/>
        </node>
        <node>
          <matrix>1 0 0 0 0 1 0 0 0 0 1 0 0 0 0 1</matrix>
          <instance_node url="#ID102"/>
        </node>
        <node>
          <matrix>1 0 0 0 0 1 0 0 0 0 1 0 0 0 0 1</matrix>
          <instance_node url="#ID109"/>
        </node>
      </node>
    </visual_scene>
  </library_visual_scenes>

  <scene>
    <instance_visual_scene url="#ID1"/>
  </scene>

  <library_nodes>
    <node id="ID3" name="Part 32">
      <instance_geometry url="#ID4">
        <bind_material>
          <technique_common>
            <instance_material symbol="ID10" target="#ID10"/>
          </technique_common>
        </bind_material>
      </instance_geometry>
    </node>
    <node id="ID11" name="Part 19">
      <instance_geometry url="#ID12">
        <bind_material>
          <technique_common>
            <instance_material symbol="ID18" target="#ID18"/>
          </technique_common>
        </bind_material>
      </instance_geometry>
    </node>
    <node id="ID19" name="Part 21">
      <instance_geometry url="#ID20">
        <bind_material>
          <technique_common>
            <instance_material symbol="ID26" target="#ID26"/>
          </technique_common>
        </bind_material>
      </instance_geometry>
    </node>
    <node id="ID27" name="Part 23">
      <instance_geometry url="#ID28">
        <bind_material>
          <technique_common>
            <instance_material symbol="ID34" target="#ID34"/>
          </technique_common>
        </bind_material>
      </instance_geometry>
    </node>
    <node id="ID35" name="Part 27">
      <instance_geometry url="#ID36">
        <bind_material>
          <technique_common>
            <instance_material symbol="ID18" target="#ID18"/>
          </technique_common>
        </bind_material>
      </instance_geometry>
    </node>
    <node id="ID42" name="Part 33">
      <instance_geometry url="#ID43">
        <bind_material>
          <technique_common>
            <instance_material symbol="ID49" target="#ID49"/>
          </technique_common>
        </bind_material>
      </instance_geometry>
    </node>
    <node id="ID50" name="Part 30">
      <instance_geometry url="#ID51">
        <bind_material>
          <technique_common>
            <instance_material symbol="ID57" target="#ID57"/>
          </technique_common>
        </bind_material>
      </instance_geometry>
    </node>
    <node id="ID58" name="Part 26">
      <instance_geometry url="#ID59">
        <bind_material>
          <technique_common>
            <instance_material symbol="ID65" target="#ID65"/>
          </technique_common>
        </bind_material>
      </instance_geometry>
    </node>
    <node id="ID66" name="Part 28">
      <instance_geometry url="#ID67">
        <bind_material>
          <technique_common>
            <instance_material symbol="ID73" target="#ID73"/>
          </technique_common>
        </bind_material>
      </instance_geometry>
    </node>
    <node id="ID74" name="Part 25">
      <instance_geometry url="#ID75">
        <bind_material>
          <technique_common>
            <instance_material symbol="ID49" target="#ID49"/>
          </technique_common>
        </bind_material>
      </instance_geometry>
    </node>
    <node id="ID81" name="Part 29">
      <instance_geometry url="#ID82">
        <bind_material>
          <technique_common>
            <instance_material symbol="ID26" target="#ID26"/>
          </technique_common>
        </bind_material>
      </instance_geometry>
    </node>
    <node id="ID88" name="Part 22">
      <instance_geometry url="#ID89">
        <bind_material>
          <technique_common>
            <instance_material symbol="ID57" target="#ID57"/>
          </technique_common>
        </bind_material>
      </instance_geometry>
    </node>
    <node id="ID95" name="Part 24">
      <instance_geometry url="#ID96">
        <bind_material>
          <technique_common>
            <instance_material symbol="ID10" target="#ID10"/>
          </technique_common>
        </bind_material>
      </instance_geometry>
    </node>
    <node id="ID102" name="Part 20">
      <instance_geometry url="#ID103">
        <bind_material>
          <technique_common>
            <instance_material symbol="ID73" target="#ID73"/>
          </technique_common>
        </bind_material>
      </instance_geometry>
    </node>
    <node id="ID109" name="Part 31">
      <instance_geometry url="#ID110">
        <bind_material>
          <technique_common>
            <instance_material symbol="ID34" target="#ID34"/>
          </technique_common>
        </bind_material>
      </instance_geometry>
    </node>
  </library_nodes>

</COLLADA>
