<?xml version="1.0" encoding="UTF-8" standalone="no" ?>
<COLLADA version="1.4.1" xmlns="http://www.collada.org/2005/11/COLLADASchema">

  <asset>
    <created>2024-08-09T21:35:10</created>
    <modified>2024-08-09T21:35:10</modified>
    <unit meter="1" name="meters"/>
    <up_axis>Z_UP</up_axis>
  </asset>

  <library_materials>
    <material id="ID10" name="ID10">
      <instance_effect url="#ID10-fx"/>
    </material>
    <material id="ID18" name="ID18">
      <instance_effect url="#ID18-fx"/>
    </material>
    <material id="ID26" name="ID26">
      <instance_effect url="#ID26-fx"/>
    </material>
    <material id="ID34" name="ID34">
      <instance_effect url="#ID34-fx"/>
    </material>
    <material id="ID42" name="ID42">
      <instance_effect url="#ID42-fx"/>
    </material>
    <material id="ID57" name="ID57">
      <instance_effect url="#ID57-fx"/>
    </material>
    <material id="ID65" name="ID65">
      <instance_effect url="#ID65-fx"/>
    </material>
    <material id="ID73" name="ID73">
      <instance_effect url="#ID73-fx"/>
    </material>
  </library_materials>

  <library_effects>
    <effect id="ID10-fx" name="ID10">
      <profile_COMMON>
        <technique sid="COMMON">
          <lambert>
            <diffuse>
              <color sid="diffuse">0.231373 0.376471 0.705882 1</color>
            </diffuse>
            <transparent opaque="A_ONE">
              <color sid="transparent">1 1 1 1</color>
            </transparent>
            <transparency>
              <float sid="transparency">1</float>
            </transparency>
          </lambert>
        </technique>
        <extra>
          <technique profile="OTHER">
            <double_sided>1</double_sided>
          </technique>
        </extra>
      </profile_COMMON>
    </effect>
    <effect id="ID18-fx" name="ID18">
      <profile_COMMON>
        <technique sid="COMMON">
          <lambert>
            <diffuse>
              <color sid="diffuse">0.498039 0.498039 0.498039 1</color>
            </diffuse>
            <transparent opaque="A_ONE">
              <color sid="transparent">1 1 1 1</color>
            </transparent>
            <transparency>
              <float sid="transparency">1</float>
            </transparency>
          </lambert>
        </technique>
        <extra>
          <technique profile="OTHER">
            <double_sided>1</double_sided>
          </technique>
        </extra>
      </profile_COMMON>
    </effect>
    <effect id="ID26-fx" name="ID26">
      <profile_COMMON>
        <technique sid="COMMON">
          <lambert>
            <diffuse>
              <color sid="diffuse">0.615686 0.811765 0.92549 1</color>
            </diffuse>
            <transparent opaque="A_ONE">
              <color sid="transparent">1 1 1 1</color>
            </transparent>
            <transparency>
              <float sid="transparency">1</float>
            </transparency>
          </lambert>
        </technique>
        <extra>
          <technique profile="OTHER">
            <double_sided>1</double_sided>
          </technique>
        </extra>
      </profile_COMMON>
    </effect>
    <effect id="ID34-fx" name="ID34">
      <profile_COMMON>
        <technique sid="COMMON">
          <lambert>
            <diffuse>
              <color sid="diffuse">0.647059 0.647059 0.647059 1</color>
            </diffuse>
            <transparent opaque="A_ONE">
              <color sid="transparent">1 1 1 1</color>
            </transparent>
            <transparency>
              <float sid="transparency">1</float>
            </transparency>
          </lambert>
        </technique>
        <extra>
          <technique profile="OTHER">
            <double_sided>1</double_sided>
          </technique>
        </extra>
      </profile_COMMON>
    </effect>
    <effect id="ID42-fx" name="ID42">
      <profile_COMMON>
        <technique sid="COMMON">
          <lambert>
            <diffuse>
              <color sid="diffuse">0.968627 0.52549 0.00392157 1</color>
            </diffuse>
            <transparent opaque="A_ONE">
              <color sid="transparent">1 1 1 1</color>
            </transparent>
            <transparency>
              <float sid="transparency">1</float>
            </transparency>
          </lambert>
        </technique>
        <extra>
          <technique profile="OTHER">
            <double_sided>1</double_sided>
          </technique>
        </extra>
      </profile_COMMON>
    </effect>
    <effect id="ID57-fx" name="ID57">
      <profile_COMMON>
        <technique sid="COMMON">
          <lambert>
            <diffuse>
              <color sid="diffuse">0.976471 0.709804 0.00392157 1</color>
            </diffuse>
            <transparent opaque="A_ONE">
              <color sid="transparent">1 1 1 1</color>
            </transparent>
            <transparency>
              <float sid="transparency">1</float>
            </transparency>
          </lambert>
        </technique>
        <extra>
          <technique profile="OTHER">
            <double_sided>1</double_sided>
          </technique>
        </extra>
      </profile_COMMON>
    </effect>
    <effect id="ID65-fx" name="ID65">
      <profile_COMMON>
        <technique sid="COMMON">
          <lambert>
            <diffuse>
              <color sid="diffuse">0.764706 0.886275 0.94902 1</color>
            </diffuse>
            <transparent opaque="A_ONE">
              <color sid="transparent">1 1 1 1</color>
            </transparent>
            <transparency>
              <float sid="transparency">1</float>
            </transparency>
          </lambert>
        </technique>
        <extra>
          <technique profile="OTHER">
            <double_sided>1</double_sided>
          </technique>
        </extra>
      </profile_COMMON>
    </effect>
    <effect id="ID73-fx" name="ID73">
      <profile_COMMON>
        <technique sid="COMMON">
          <lambert>
            <diffuse>
              <color sid="diffuse">0.913725 0.913725 0.913725 1</color>
            </diffuse>
            <transparent opaque="A_ONE">
              <color sid="transparent">1 1 1 1</color>
            </transparent>
            <transparency>
              <float sid="transparency">1</float>
            </transparency>
          </lambert>
        </technique>
        <extra>
          <technique profile="OTHER">
            <double_sided>1</double_sided>
          </technique>
        </extra>
      </profile_COMMON>
    </effect>
  </library_effects>

  <library_geometries>
    <geometry id="ID4">
      <mesh>
        <source id="ID5">
          <float_array count="72" id="ID6">30.2546 24.0481 0 30.2546 14.0407 4.5 30.2546 24.0481 4.5 30.2546 14.0407 0 30.2546 24.0481 4.5 30 24.0481 4.5 30 24.0481 0 30.2546 24.0481 0 30 24.0481 0 30 24.0481 4.5 30 14.0407 4.5 30 14.0407 0 30.2546 14.0407 0 30 14.0407 4.5 30.2546 14.0407 4.5 30 14.0407 0 30.2546 14.0407 4.5 30 24.0481 4.5 30.2546 24.0481 4.5 30 14.0407 4.5 30 24.0481 0 30 14.0407 0 30.2546 14.0407 0 30.2546 24.0481 0</float_array>
          <technique_common>
            <accessor count="24" source="#ID6" stride="3">
              <param name="X" type="float"/>
              <param name="Y" type="float"/>
              <param name="Z" type="float"/>
            </accessor>
          </technique_common>
        </source>
        <source id="ID7">
          <float_array count="72" id="ID8">1 0 0 1 0 0 1 0 0 1 0 0 0 1 0 0 1 0 0 1 0 0 1 0 -1 0 0 -1 0 0 -1 0 0 -1 0 0 -0 -1 -0 -0 -1 -0 -0 -1 -0 -0 -1 -0 0 0 1 0 0 1 0 0 1 0 0 1 -0 -0 -1 -0 -0 -1 -0 -0 -1 -0 -0 -1</float_array>
          <technique_common>
            <accessor count="24" source="#ID8" stride="3">
              <param name="X" type="float"/>
              <param name="Y" type="float"/>
              <param name="Z" type="float"/>
            </accessor>
          </technique_common>
        </source>
        <vertices id="ID9">
          <input semantic="POSITION" source="#ID5"/>
          <input semantic="NORMAL" source="#ID7"/>
        </vertices>
        <triangles count="12" material="ID10">
          <input offset="0" semantic="VERTEX" source="#ID9"/>
          <p>0 2 1 1 3 0 4 6 5 4 7 6 8 10 9 10 8 11 12 14 13 13 15 12 16 18 17 16 17 19 20 22 21 20 23 22</p>
        </triangles>
      </mesh>
    </geometry>
    <geometry id="ID12">
      <mesh>
        <source id="ID13">
          <float_array count="72" id="ID14">23.9659 18.3749 0 25 18.3749 0 25 18.3749 4.5 23.9659 18.3749 4.5 25 25.1677 0 25 25.1677 4.5 25 18.3749 4.5 25 18.3749 0 25 25.1677 4.5 23.9659 25.1677 0 23.9659 25.1677 4.5 25 25.1677 0 23.9659 25.1677 0 23.9659 18.3749 4.5 23.9659 25.1677 4.5 23.9659 18.3749 0 23.9659 25.1677 4.5 25 18.3749 4.5 25 25.1677 4.5 23.9659 18.3749 4.5 25 18.3749 0 23.9659 25.1677 0 25 25.1677 0 23.9659 18.3749 0</float_array>
          <technique_common>
            <accessor count="24" source="#ID14" stride="3">
              <param name="X" type="float"/>
              <param name="Y" type="float"/>
              <param name="Z" type="float"/>
            </accessor>
          </technique_common>
        </source>
        <source id="ID15">
          <float_array count="72" id="ID16">0 -1 0 0 -1 0 0 -1 0 0 -1 0 1 0 0 1 0 0 1 0 0 1 0 0 0 1 0 0 1 0 0 1 0 0 1 0 -1 0 0 -1 0 0 -1 0 0 -1 0 0 0 0 1 0 0 1 0 0 1 0 0 1 -0 -0 -1 -0 -0 -1 -0 -0 -1 -0 -0 -1</float_array>
          <technique_common>
            <accessor count="24" source="#ID16" stride="3">
              <param name="X" type="float"/>
              <param name="Y" type="float"/>
              <param name="Z" type="float"/>
            </accessor>
          </technique_common>
        </source>
        <vertices id="ID17">
          <input semantic="POSITION" source="#ID13"/>
          <input semantic="NORMAL" source="#ID15"/>
        </vertices>
        <triangles count="12" material="ID18">
          <input offset="0" semantic="VERTEX" source="#ID17"/>
          <p>0 1 2 0 2 3 4 5 6 6 7 4 8 9 10 8 11 9 12 13 14 13 12 15 16 17 18 17 16 19 20 21 22 20 23 21</p>
        </triangles>
      </mesh>
    </geometry>
    <geometry id="ID20">
      <mesh>
        <source id="ID21">
          <float_array count="72" id="ID22">4.91884 2.07806 0 0.1 2.07806 4.5 4.91884 2.07806 4.5 0.1 2.07806 0 0.1 2.07806 0 0.1 0.0998039 4.5 0.1 2.07806 4.5 0.1 0.0998039 0 4.91884 0.0998039 0 4.91884 0.0998039 4.5 0.1 0.0998039 4.5 0.1 0.0998039 0 4.91884 2.07806 0 4.91884 2.07806 4.5 4.91884 0.0998039 4.5 4.91884 0.0998039 0 0.1 2.07806 4.5 0.1 0.0998039 4.5 4.91884 0.0998039 4.5 4.91884 2.07806 4.5 0.1 2.07806 0 4.91884 2.07806 0 4.91884 0.0998039 0 0.1 0.0998039 0</float_array>
          <technique_common>
            <accessor count="24" source="#ID22" stride="3">
              <param name="X" type="float"/>
              <param name="Y" type="float"/>
              <param name="Z" type="float"/>
            </accessor>
          </technique_common>
        </source>
        <source id="ID23">
          <float_array count="72" id="ID24">0 1 0 0 1 0 0 1 0 0 1 0 -1 0 0 -1 0 0 -1 0 0 -1 0 0 -0 -1 -0 -0 -1 -0 -0 -1 -0 -0 -1 -0 1 0 0 1 0 0 1 0 0 1 0 0 0 0 1 0 0 1 0 0 1 0 0 1 -0 -0 -1 -0 -0 -1 -0 -0 -1 -0 -0 -1</float_array>
          <technique_common>
            <accessor count="24" source="#ID24" stride="3">
              <param name="X" type="float"/>
              <param name="Y" type="float"/>
              <param name="Z" type="float"/>
            </accessor>
          </technique_common>
        </source>
        <vertices id="ID25">
          <input semantic="POSITION" source="#ID21"/>
          <input semantic="NORMAL" source="#ID23"/>
        </vertices>
        <triangles count="12" material="ID26">
          <input offset="0" semantic="VERTEX" source="#ID25"/>
          <p>0 1 2 1 0 3 4 5 6 5 4 7 8 9 10 10 11 8 12 13 14 14 15 12 16 17 18 16 18 19 20 21 22 22 23 20</p>
        </triangles>
      </mesh>
    </geometry>
    <geometry id="ID28">
      <mesh>
        <source id="ID29">
          <float_array count="72" id="ID30">10 14.9329 0 10 14.1662 4.5 10 14.9329 4.5 10 14.1662 0 10.4966 14.1662 0 10.4966 14.1662 4.5 10 14.1662 4.5 10 14.1662 0 10.4966 14.9329 0 10.4966 14.9329 4.5 10.4966 14.1662 4.5 10.4966 14.1662 0 10.4966 14.9329 0 10 14.9329 4.5 10.4966 14.9329 4.5 10 14.9329 0 10 14.9329 4.5 10.4966 14.1662 4.5 10.4966 14.9329 4.5 10 14.1662 4.5 10 14.9329 0 10.4966 14.9329 0 10.4966 14.1662 0 10 14.1662 0</float_array>
          <technique_common>
            <accessor count="24" source="#ID30" stride="3">
              <param name="X" type="float"/>
              <param name="Y" type="float"/>
              <param name="Z" type="float"/>
            </accessor>
          </technique_common>
        </source>
        <source id="ID31">
          <float_array count="72" id="ID32">-1 0 0 -1 0 0 -1 0 0 -1 0 0 -0 -1 -0 -0 -1 -0 -0 -1 -0 -0 -1 -0 1 0 0 1 0 0 1 0 0 1 0 0 0 1 0 0 1 0 0 1 0 0 1 0 0 0 1 0 0 1 0 0 1 0 0 1 -0 -0 -1 -0 -0 -1 -0 -0 -1 -0 -0 -1</float_array>
          <technique_common>
            <accessor count="24" source="#ID32" stride="3">
              <param name="X" type="float"/>
              <param name="Y" type="float"/>
              <param name="Z" type="float"/>
            </accessor>
          </technique_common>
        </source>
        <vertices id="ID33">
          <input semantic="POSITION" source="#ID29"/>
          <input semantic="NORMAL" source="#ID31"/>
        </vertices>
        <triangles count="12" material="ID34">
          <input offset="0" semantic="VERTEX" source="#ID33"/>
          <p>0 1 2 1 0 3 4 5 6 6 7 4 8 9 10 10 11 8 12 13 14 13 12 15 16 17 18 17 16 19 20 21 22 22 23 20</p>
        </triangles>
      </mesh>
    </geometry>
    <geometry id="ID36">
      <mesh>
        <source id="ID37">
          <float_array count="90" id="ID38">4.55583 21.2578 4.5 4.11166 20.6593 9.09495e-16 4.11166 20.6593 4.5 4.55583 21.2578 9.09495e-16 5 20.6593 0 5 20.6593 4.5 4.11166 20.6593 4.5 4.11166 20.6593 9.09495e-16 5 20.6593 0 5 23.9889 0 5 23.9889 4.5 5 20.6593 4.5 5 23.9889 0 4.55583 23.9889 4.5 5 23.9889 4.5 4.55583 23.9889 0 4.55583 23.9889 0 4.55583 21.2578 4.5 4.55583 23.9889 4.5 4.55583 21.2578 9.09495e-16 5 20.6593 4.5 4.55583 21.2578 4.5 4.11166 20.6593 4.5 4.55583 23.9889 4.5 5 23.9889 4.5 4.55583 21.2578 9.09495e-16 4.55583 23.9889 0 5 23.9889 0 4.11166 20.6593 9.09495e-16 5 20.6593 0</float_array>
          <technique_common>
            <accessor count="30" source="#ID38" stride="3">
              <param name="X" type="float"/>
              <param name="Y" type="float"/>
              <param name="Z" type="float"/>
            </accessor>
          </technique_common>
        </source>
        <source id="ID39">
          <float_array count="90" id="ID40">-0.803025 0.595945 0 -0.803025 0.595945 0 -0.803025 0.595945 0 -0.803025 0.595945 0 -0 -1 -0 -0 -1 -0 -0 -1 -0 -0 -1 -0 1 0 0 1 0 0 1 0 0 1 0 0 0 1 0 0 1 0 0 1 0 0 1 0 -1 0 0 -1 0 0 -1 0 0 -1 0 0 0 0 1 0 0 1 0 0 1 0 0 1 0 0 1 -0 -0 -1 -0 -0 -1 -0 -0 -1 -0 -0 -1 -0 -0 -1</float_array>
          <technique_common>
            <accessor count="30" source="#ID40" stride="3">
              <param name="X" type="float"/>
              <param name="Y" type="float"/>
              <param name="Z" type="float"/>
            </accessor>
          </technique_common>
        </source>
        <vertices id="ID41">
          <input semantic="POSITION" source="#ID37"/>
          <input semantic="NORMAL" source="#ID39"/>
        </vertices>
        <triangles count="16" material="ID42">
          <input offset="0" semantic="VERTEX" source="#ID41"/>
          <p>0 1 2 1 0 3 4 5 6 6 7 4 8 9 10 8 10 11 12 13 14 13 12 15 16 17 18 17 16 19 20 21 22 23 21 24 21 20 24 25 26 27 28 25 29 27 29 25</p>
        </triangles>
      </mesh>
    </geometry>
    <geometry id="ID44">
      <mesh>
        <source id="ID45">
          <float_array count="72" id="ID46">34.9 22.5847 0 34.025 22.5847 4.5 34.9 22.5847 4.5 34.025 22.5847 0 34.9 22.5847 0 34.9 23.9942 4.5 34.9 23.9942 0 34.9 22.5847 4.5 34.9 23.9942 4.5 34.025 23.9942 4.5 34.025 23.9942 0 34.9 23.9942 0 34.025 23.9942 4.5 34.025 22.5847 4.5 34.025 22.5847 0 34.025 23.9942 0 34.025 23.9942 4.5 34.9 23.9942 4.5 34.9 22.5847 4.5 34.025 22.5847 4.5 34.9 22.5847 0 34.9 23.9942 0 34.025 23.9942 0 34.025 22.5847 0</float_array>
          <technique_common>
            <accessor count="24" source="#ID46" stride="3">
              <param name="X" type="float"/>
              <param name="Y" type="float"/>
              <param name="Z" type="float"/>
            </accessor>
          </technique_common>
        </source>
        <source id="ID47">
          <float_array count="72" id="ID48">-0 -1 -0 -0 -1 -0 -0 -1 -0 -0 -1 -0 1 0 0 1 0 0 1 0 0 1 0 0 0 1 0 0 1 0 0 1 0 0 1 0 -1 -0 -0 -1 -0 -0 -1 -0 -0 -1 -0 -0 0 0 1 0 0 1 0 0 1 0 0 1 -0 -0 -1 -0 -0 -1 -0 -0 -1 -0 -0 -1</float_array>
          <technique_common>
            <accessor count="24" source="#ID48" stride="3">
              <param name="X" type="float"/>
              <param name="Y" type="float"/>
              <param name="Z" type="float"/>
            </accessor>
          </technique_common>
        </source>
        <vertices id="ID49">
          <input semantic="POSITION" source="#ID45"/>
          <input semantic="NORMAL" source="#ID47"/>
        </vertices>
        <triangles count="12" material="ID26">
          <input offset="0" semantic="VERTEX" source="#ID49"/>
          <p>0 2 1 1 3 0 4 6 5 4 5 7 8 10 9 8 11 10 12 14 13 12 15 14 16 18 17 18 16 19 20 22 21 20 23 22</p>
        </triangles>
      </mesh>
    </geometry>
    <geometry id="ID51">
      <mesh>
        <source id="ID52">
          <float_array count="72" id="ID53">34.9 1.90797 0 34.9 0.0998039 4.5 34.9 1.90797 4.5 34.9 0.0998039 0 34.9 1.90797 4.5 33.681 1.90797 4.5 33.681 1.90797 0 34.9 1.90797 0 33.681 1.90797 0 33.681 1.90797 4.5 33.681 0.0998039 4.5 33.681 0.0998039 0 33.681 0.0998039 0 34.9 0.0998039 4.5 34.9 0.0998039 0 33.681 0.0998039 4.5 34.9 0.0998039 4.5 33.681 1.90797 4.5 34.9 1.90797 4.5 33.681 0.0998039 4.5 33.681 1.90797 0 33.681 0.0998039 0 34.9 0.0998039 0 34.9 1.90797 0</float_array>
          <technique_common>
            <accessor count="24" source="#ID53" stride="3">
              <param name="X" type="float"/>
              <param name="Y" type="float"/>
              <param name="Z" type="float"/>
            </accessor>
          </technique_common>
        </source>
        <source id="ID54">
          <float_array count="72" id="ID55">1 0 0 1 0 0 1 0 0 1 0 0 0 1 0 0 1 0 0 1 0 0 1 0 -1 0 0 -1 0 0 -1 0 0 -1 0 0 0 -1 0 0 -1 0 0 -1 0 0 -1 0 0 0 1 0 0 1 0 0 1 0 0 1 -0 -0 -1 -0 -0 -1 -0 -0 -1 -0 -0 -1</float_array>
          <technique_common>
            <accessor count="24" source="#ID55" stride="3">
              <param name="X" type="float"/>
              <param name="Y" type="float"/>
              <param name="Z" type="float"/>
            </accessor>
          </technique_common>
        </source>
        <vertices id="ID56">
          <input semantic="POSITION" source="#ID52"/>
          <input semantic="NORMAL" source="#ID54"/>
        </vertices>
        <triangles count="12" material="ID57">
          <input offset="0" semantic="VERTEX" source="#ID56"/>
          <p>0 2 1 1 3 0 4 6 5 4 7 6 8 10 9 10 8 11 12 14 13 12 13 15 16 18 17 16 17 19 20 22 21 20 23 22</p>
        </triangles>
      </mesh>
    </geometry>
    <geometry id="ID59">
      <mesh>
        <source id="ID60">
          <float_array count="72" id="ID61">34.9 33.9234 0 34.9 34.8998 0 34.9 34.8998 4.5 34.9 33.9234 4.5 34.9 34.8998 4.5 27.6804 34.8998 0 27.6804 34.8998 4.5 34.9 34.8998 0 27.6804 34.8998 4.5 27.6804 33.9234 0 27.6804 33.9234 4.5 27.6804 34.8998 0 27.6804 33.9234 0 34.9 33.9234 0 34.9 33.9234 4.5 27.6804 33.9234 4.5 34.9 33.9234 4.5 34.9 34.8998 4.5 27.6804 34.8998 4.5 27.6804 33.9234 4.5 27.6804 34.8998 0 34.9 33.9234 0 27.6804 33.9234 0 34.9 34.8998 0</float_array>
          <technique_common>
            <accessor count="24" source="#ID61" stride="3">
              <param name="X" type="float"/>
              <param name="Y" type="float"/>
              <param name="Z" type="float"/>
            </accessor>
          </technique_common>
        </source>
        <source id="ID62">
          <float_array count="72" id="ID63">1 0 0 1 0 0 1 0 0 1 0 0 0 1 0 0 1 0 0 1 0 0 1 0 -1 -0 -0 -1 -0 -0 -1 -0 -0 -1 -0 -0 0 -1 0 0 -1 0 0 -1 0 0 -1 0 0 0 1 0 0 1 0 0 1 0 0 1 -0 -0 -1 -0 -0 -1 -0 -0 -1 -0 -0 -1</float_array>
          <technique_common>
            <accessor count="24" source="#ID63" stride="3">
              <param name="X" type="float"/>
              <param name="Y" type="float"/>
              <param name="Z" type="float"/>
            </accessor>
          </technique_common>
        </source>
        <vertices id="ID64">
          <input semantic="POSITION" source="#ID60"/>
          <input semantic="NORMAL" source="#ID62"/>
        </vertices>
        <triangles count="12" material="ID65">
          <input offset="0" semantic="VERTEX" source="#ID64"/>
          <p>0 1 2 0 2 3 4 5 6 4 7 5 8 9 10 8 11 9 12 13 14 12 14 15 16 17 18 16 18 19 20 21 22 20 23 21</p>
        </triangles>
      </mesh>
    </geometry>
    <geometry id="ID67">
      <mesh>
        <source id="ID68">
          <float_array count="72" id="ID69">18.4673 20.6252 0 16.9673 20.6252 4.5 18.4673 20.6252 4.5 16.9673 20.6252 0 18.4673 22.1252 0 18.4673 20.6252 4.5 18.4673 22.1252 4.5 18.4673 20.6252 0 18.4673 22.1252 0 18.4673 22.1252 4.5 16.9673 22.1252 4.5 16.9673 22.1252 0 16.9673 22.1252 0 16.9673 22.1252 4.5 16.9673 20.6252 4.5 16.9673 20.6252 0 16.9673 22.1252 4.5 18.4673 22.1252 4.5 18.4673 20.6252 4.5 16.9673 20.6252 4.5 18.4673 20.6252 0 18.4673 22.1252 0 16.9673 22.1252 0 16.9673 20.6252 0</float_array>
          <technique_common>
            <accessor count="24" source="#ID69" stride="3">
              <param name="X" type="float"/>
              <param name="Y" type="float"/>
              <param name="Z" type="float"/>
            </accessor>
          </technique_common>
        </source>
        <source id="ID70">
          <float_array count="72" id="ID71">-0 -1 -0 -0 -1 -0 -0 -1 -0 -0 -1 -0 1 0 0 1 0 0 1 0 0 1 0 0 0 1 0 0 1 0 0 1 0 0 1 0 -1 0 0 -1 0 0 -1 0 0 -1 0 0 0 0 1 0 0 1 0 0 1 0 0 1 -0 -0 -1 -0 -0 -1 -0 -0 -1 -0 -0 -1</float_array>
          <technique_common>
            <accessor count="24" source="#ID71" stride="3">
              <param name="X" type="float"/>
              <param name="Y" type="float"/>
              <param name="Z" type="float"/>
            </accessor>
          </technique_common>
        </source>
        <vertices id="ID72">
          <input semantic="POSITION" source="#ID68"/>
          <input semantic="NORMAL" source="#ID70"/>
        </vertices>
        <triangles count="12" material="ID73">
          <input offset="0" semantic="VERTEX" source="#ID72"/>
          <p>0 2 1 1 3 0 4 6 5 5 7 4 8 10 9 10 8 11 12 14 13 14 12 15 16 18 17 18 16 19 20 22 21 20 23 22</p>
        </triangles>
      </mesh>
    </geometry>
    <geometry id="ID75">
      <mesh>
        <source id="ID76">
          <float_array count="372" id="ID77">34.32 20.3284 0 34.402 20.4595 4.5 34.402 20.4595 0 34.2599 20.1859 0 34.32 20.3284 4.5 34.2599 20.1859 4.5 34.2233 20.0356 0 34.2109 19.8815 0 34.2233 20.0356 4.5 34.2109 19.8815 4.5 34.5038 20.5759 4.5 34.6228 20.6747 4.5 34.5038 20.5759 0 34.756 20.7533 4.5 34.6228 20.6747 0 34.756 20.7533 0 34.9 20.8097 4.5 34.9 20.8097 0 34.2109 19.8815 0 34.2109 19.1453 4.5 34.2109 19.8815 4.5 34.2109 19.1453 0 34.3398 19.071 4.5 34.2109 19.1453 4.5 34.2109 19.1453 0 34.6334 18.74 4.5 34.5538 18.8657 4.5 34.5538 18.8657 0 34.4551 18.977 4.5 34.3398 19.071 0 34.4551 18.977 0 34.7273 18.4588 0 34.7273 18.4588 4.5 34.6917 18.6032 0 34.6334 18.74 0 34.6917 18.6032 4.5 34.7393 18.3105 4.5 34.7393 18.3105 0 34.7393 18.3105 0 34.7393 17.2816 4.5 34.7393 18.3105 4.5 34.7393 17.2816 0 34.7393 17.2816 0 34.2127 17.2816 4.5 34.7393 17.2816 4.5 34.2127 17.2816 0 34.2127 17.2816 0 34.2127 16.103 4.5 34.2127 17.2816 4.5 34.2127 16.103 0 34.2127 16.103 0 34.7078 16.103 0 34.7078 16.103 4.5 34.2127 16.103 4.5 34.7078 16.103 0 34.7078 14.9441 4.5 34.7078 16.103 4.5 34.7078 14.9441 0 34.7078 14.9441 0 34.2127 14.9441 4.5 34.7078 14.9441 4.5 34.2127 14.9441 0 34.2127 14.9441 0 34.2127 13.7693 4.5 34.2127 14.9441 4.5 34.2127 13.7693 0 34.9 13.7693 0 34.9 13.7693 4.5 34.2127 13.7693 4.5 34.2127 13.7693 0 34.9 20.8097 0 34.9 20.8097 4.5 34.9 13.7693 4.5 34.9 13.7693 0 34.2599 20.1859 4.5 34.2233 20.0356 4.5 34.2109 19.8815 4.5 34.2109 19.1453 4.5 34.3398 19.071 4.5 34.402 20.4595 4.5 34.32 20.3284 4.5 34.4551 18.977 4.5 34.5038 20.5759 4.5 34.5538 18.8657 4.5 34.2127 17.2816 4.5 34.2127 16.103 4.5 34.7078 16.103 4.5 34.6228 20.6747 4.5 34.6334 18.74 4.5 34.6917 18.6032 4.5 34.756 20.7533 4.5 34.7273 18.4588 4.5 34.9 20.8097 4.5 34.7393 18.3105 4.5 34.7393 17.2816 4.5 34.7078 14.9441 4.5 34.9 13.7693 4.5 34.2127 14.9441 4.5 34.2127 13.7693 4.5 34.2599 20.1859 0 34.3398 19.071 0 34.2109 19.1453 0 34.9 20.8097 0 34.9 13.7693 0 34.7393 17.2816 0 34.6228 20.6747 0 34.6917 18.6032 0 34.6334 18.74 0 34.5538 18.8657 0 34.4551 18.977 0 34.5038 20.5759 0 34.7273 18.4588 0 34.756 20.7533 0 34.7393 18.3105 0 34.2127 17.2816 0 34.7078 16.103 0 34.2127 16.103 0 34.2127 14.9441 0 34.7078 14.9441 0 34.2127 13.7693 0 34.402 20.4595 0 34.32 20.3284 0 34.2233 20.0356 0 34.2109 19.8815 0</float_array>
          <technique_common>
            <accessor count="124" source="#ID77" stride="3">
              <param name="X" type="float"/>
              <param name="Y" type="float"/>
              <param name="Z" type="float"/>
            </accessor>
          </technique_common>
        </source>
        <source id="ID78">
          <float_array count="372" id="ID79">-0.887493 0.460821 0 -0.802955 0.59604 0 -0.802955 0.59604 0 -0.949462 0.313883 0 -0.887493 0.460821 0 -0.949462 0.313883 0 -0.987285 0.158963 0 -1 5.66567e-08 0 -0.987285 0.158963 0 -1 5.66567e-08 0 -0.697997 0.716101 0 -0.575288 0.817951 0 -0.697997 0.716101 0 -0.437949 0.899 0 -0.575288 0.817951 0 -0.437949 0.899 0 -0.289473 0.957186 0 -0.289473 0.957186 0 -1 0 0 -1 0 0 -1 0 0 -1 0 0 -0.567425 -0.823425 -0 -0.427873 -0.903839 -0 -0.427873 -0.903839 -0 -0.885275 -0.465067 0 -0.799131 -0.601157 -0 -0.799131 -0.601157 -0 -0.692257 -0.721651 -0 -0.567425 -0.823425 -0 -0.692257 -0.721651 -0 -0.987029 -0.160539 0 -0.987029 -0.160539 0 -0.948454 -0.316914 0 -0.885275 -0.465067 0 -0.948454 -0.316914 0 -1 -3.47959e-08 0 -1 -3.47959e-08 0 -1 0 0 -1 0 0 -1 0 0 -1 0 0 0 1 0 0 1 0 0 1 0 0 1 0 -1 0 0 -1 0 0 -1 0 0 -1 0 0 0 -1 0 0 -1 0 0 -1 0 0 -1 0 -1 0 0 -1 0 0 -1 0 0 -1 0 0 0 1 0 0 1 0 0 1 0 0 1 0 -1 0 0 -1 0 0 -1 0 0 -1 0 0 -0 -1 -0 -0 -1 -0 -0 -1 -0 -0 -1 -0 1 0 0 1 0 0 1 0 0 1 0 0 0 0 1 0 0 1 0 0 1 0 0 1 0 0 1 0 0 1 0 0 1 0 0 1 0 0 1 0 0 1 0 0 1 0 0 1 0 0 1 0 0 1 0 0 1 0 0 1 0 0 1 0 0 1 0 0 1 0 0 1 0 0 1 0 0 1 0 0 1 0 0 1 0 0 1 -0 -0 -1 -0 -0 -1 -0 -0 -1 -0 -0 -1 -0 -0 -1 -0 -0 -1 -0 -0 -1 -0 -0 -1 -0 -0 -1 -0 -0 -1 -0 -0 -1 -0 -0 -1 -0 -0 -1 -0 -0 -1 -0 -0 -1 -0 -0 -1 -0 -0 -1 -0 -0 -1 -0 -0 -1 -0 -0 -1 -0 -0 -1 -0 -0 -1 -0 -0 -1 -0 -0 -1 -0 -0 -1</float_array>
          <technique_common>
            <accessor count="124" source="#ID79" stride="3">
              <param name="X" type="float"/>
              <param name="Y" type="float"/>
              <param name="Z" type="float"/>
            </accessor>
          </technique_common>
        </source>
        <vertices id="ID80">
          <input semantic="POSITION" source="#ID76"/>
          <input semantic="NORMAL" source="#ID78"/>
        </vertices>
        <triangles count="96" material="ID57">
          <input offset="0" semantic="VERTEX" source="#ID80"/>
          <p>0 1 2 0 3 4 4 1 0 5 3 6 3 5 4 7 8 6 5 6 8 9 8 7 10 2 1 11 12 10 2 10 12 11 13 14 14 12 11 15 13 16 13 15 14 15 16 17 18 19 20 19 18 21 22 23 24 25 26 27 28 29 30 31 32 33 34 33 35 36 31 37 31 36 32 25 34 35 33 32 35 27 26 30 34 25 27 28 22 29 26 28 30 24 29 22 38 39 40 39 38 41 42 43 44 43 42 45 46 47 48 47 46 49 50 51 52 50 52 53 54 55 56 55 54 57 58 59 60 59 58 61 62 63 64 63 62 65 66 67 68 68 69 66 70 71 72 72 73 70 74 75 76 77 78 74 77 74 76 79 80 78 78 80 74 81 82 79 79 78 81 81 83 82 84 85 86 87 82 83 88 89 87 88 87 83 90 89 91 89 90 87 92 91 93 90 91 92 93 94 92 95 96 86 97 98 95 84 86 94 94 86 96 95 98 96 94 96 92 99 100 101 102 103 104 105 106 107 108 109 110 111 106 112 105 112 106 108 105 107 111 102 113 111 112 102 102 104 113 114 115 116 117 118 119 114 104 115 115 103 118 118 103 119 115 104 103 110 105 108 109 100 120 109 120 110 100 99 121 120 100 121 122 99 123 99 101 123</p>
        </triangles>
      </mesh>
    </geometry>
    <geometry id="ID82">
      <mesh>
        <source id="ID83">
          <float_array count="108" id="ID84">0.735083 18.8403 0 0.421773 18.8403 4.5 0.735083 18.8403 4.5 0.421773 18.8403 0 0.421773 18.8403 4.5 0.421773 23.9889 0 0.421773 23.9889 4.5 0.421773 18.8403 0 0.421773 23.9889 0 0.1 23.9889 4.5 0.421773 23.9889 4.5 0.1 23.9889 0 0.1 23.9889 4.5 0.1 15.5916 0 0.1 15.5916 4.5 0.1 23.9889 0 0.735083 15.5916 0 0.735083 15.5916 4.5 0.1 15.5916 4.5 0.1 15.5916 0 0.735083 15.5916 0 0.735083 18.8403 0 0.735083 18.8403 4.5 0.735083 15.5916 4.5 0.421773 18.8403 4.5 0.1 15.5916 4.5 0.735083 15.5916 4.5 0.421773 23.9889 4.5 0.1 23.9889 4.5 0.735083 18.8403 4.5 0.421773 18.8403 0 0.1 23.9889 0 0.421773 23.9889 0 0.1 15.5916 0 0.735083 15.5916 0 0.735083 18.8403 0</float_array>
          <technique_common>
            <accessor count="36" source="#ID84" stride="3">
              <param name="X" type="float"/>
              <param name="Y" type="float"/>
              <param name="Z" type="float"/>
            </accessor>
          </technique_common>
        </source>
        <source id="ID85">
          <float_array count="108" id="ID86">0 1 0 0 1 0 0 1 0 0 1 0 1 6.46914e-17 0 1 6.46914e-17 0 1 6.46914e-17 0 1 6.46914e-17 0 0 1 0 0 1 0 0 1 0 0 1 0 -1 -0 -0 -1 -0 -0 -1 -0 -0 -1 -0 -0 -0 -1 -0 -0 -1 -0 -0 -1 -0 -0 -1 -0 1 0 0 1 0 0 1 0 0 1 0 0 0 0 1 0 0 1 0 0 1 0 0 1 0 0 1 0 0 1 -0 -0 -1 -0 -0 -1 -0 -0 -1 -0 -0 -1 -0 -0 -1 -0 -0 -1</float_array>
          <technique_common>
            <accessor count="36" source="#ID86" stride="3">
              <param name="X" type="float"/>
              <param name="Y" type="float"/>
              <param name="Z" type="float"/>
            </accessor>
          </technique_common>
        </source>
        <vertices id="ID87">
          <input semantic="POSITION" source="#ID83"/>
          <input semantic="NORMAL" source="#ID85"/>
        </vertices>
        <triangles count="20" material="ID34">
          <input offset="0" semantic="VERTEX" source="#ID87"/>
          <p>0 1 2 1 0 3 4 5 6 5 4 7 8 9 10 9 8 11 12 13 14 12 15 13 16 17 18 18 19 16 20 21 22 20 22 23 24 25 26 24 27 28 24 28 25 24 26 29 30 31 32 33 30 34 30 33 31 30 35 34</p>
        </triangles>
      </mesh>
    </geometry>
    <geometry id="ID89">
      <mesh>
        <source id="ID90">
          <float_array count="108" id="ID91">4.55583 15.6996 0 4.55583 14.1662 4.5 4.55583 15.6996 4.5 4.55583 14.1662 0 5 14.1662 0 5 14.1662 4.5 4.55583 14.1662 4.5 4.55583 14.1662 0 5 14.1662 0 5 16.4869 0 5 16.4869 4.5 5 14.1662 4.5 5 16.4869 0 4.11166 16.4869 4.5 5 16.4869 4.5 4.11166 16.4869 0 4.11166 16.4869 0 4.11166 15.6996 4.5 4.11166 16.4869 4.5 4.11166 15.6996 0 4.11166 15.6996 0 4.55583 15.6996 0 4.55583 15.6996 4.5 4.11166 15.6996 4.5 5 16.4869 4.5 4.11166 16.4869 4.5 4.55583 15.6996 4.5 5 14.1662 4.5 4.11166 15.6996 4.5 4.55583 14.1662 4.5 4.55583 15.6996 0 5 16.4869 0 5 14.1662 0 4.11166 16.4869 0 4.11166 15.6996 0 4.55583 14.1662 0</float_array>
          <technique_common>
            <accessor count="36" source="#ID91" stride="3">
              <param name="X" type="float"/>
              <param name="Y" type="float"/>
              <param name="Z" type="float"/>
            </accessor>
          </technique_common>
        </source>
        <source id="ID92">
          <float_array count="108" id="ID93">-1 0 0 -1 0 0 -1 0 0 -1 0 0 -0 -1 -0 -0 -1 -0 -0 -1 -0 -0 -1 -0 1 0 0 1 0 0 1 0 0 1 0 0 0 1 0 0 1 0 0 1 0 0 1 0 -1 0 0 -1 0 0 -1 0 0 -1 0 0 0 -1 0 0 -1 0 0 -1 0 0 -1 0 0 0 1 0 0 1 0 0 1 0 0 1 0 0 1 0 0 1 -0 -0 -1 -0 -0 -1 -0 -0 -1 -0 -0 -1 -0 -0 -1 -0 -0 -1</float_array>
          <technique_common>
            <accessor count="36" source="#ID93" stride="3">
              <param name="X" type="float"/>
              <param name="Y" type="float"/>
              <param name="Z" type="float"/>
            </accessor>
          </technique_common>
        </source>
        <vertices id="ID94">
          <input semantic="POSITION" source="#ID90"/>
          <input semantic="NORMAL" source="#ID92"/>
        </vertices>
        <triangles count="20" material="ID18">
          <input offset="0" semantic="VERTEX" source="#ID94"/>
          <p>0 1 2 1 0 3 4 5 6 6 7 4 8 9 10 8 10 11 12 13 14 13 12 15 16 17 18 17 16 19 20 21 22 20 22 23 24 25 26 26 27 24 26 25 28 27 26 29 30 31 32 33 30 34 33 31 30 32 35 30</p>
        </triangles>
      </mesh>
    </geometry>
  </library_geometries>

  <library_visual_scenes>
    <visual_scene id="ID1">
      <node id="ID2" name="Assembly 1">
        <node>
          <matrix>1 0 0 0 0 1 0 0 0 0 1 0 0 0 0 1</matrix>
          <instance_node url="#ID3"/>
        </node>
        <node>
          <matrix>1 0 0 0 0 1 0 0 0 0 1 0 0 0 0 1</matrix>
          <instance_node url="#ID11"/>
        </node>
        <node>
          <matrix>1 0 0 0 0 1 0 0 0 0 1 0 0 0 0 1</matrix>
          <instance_node url="#ID19"/>
        </node>
        <node>
          <matrix>1 0 0 0 0 1 0 0 0 0 1 0 0 0 0 1</matrix>
          <instance_node url="#ID27"/>
        </node>
        <node>
          <matrix>1 0 0 0 0 1 0 0 0 0 1 0 0 0 0 1</matrix>
          <instance_node url="#ID35"/>
        </node>
        <node>
          <matrix>1 0 0 0 0 1 0 0 0 0 1 0 0 0 0 1</matrix>
          <instance_node url="#ID43"/>
        </node>
        <node>
          <matrix>1 0 0 0 0 1 0 0 0 0 1 0 0 0 0 1</matrix>
          <instance_node url="#ID50"/>
        </node>
        <node>
          <matrix>1 0 0 0 0 1 0 0 0 0 1 0 0 0 0 1</matrix>
          <instance_node url="#ID58"/>
        </node>
        <node>
          <matrix>1 0 0 0 0 1 0 0 0 0 1 0 0 0 0 1</matrix>
          <instance_node url="#ID66"/>
        </node>
        <node>
          <matrix>1 0 0 0 0 1 0 0 0 0 1 0 0 0 0 1</matrix>
          <instance_node url="#ID74"/>
        </node>
        <node>
          <matrix>1 0 0 0 0 1 0 0 0 0 1 0 0 0 0 1</matrix>
          <instance_node url="#ID81"/>
        </node>
        <node>
          <matrix>1 0 0 0 0 1 0 0 0 0 1 0 0 0 0 1</matrix>
          <instance_node url="#ID88"/>
        </node>
      </node>
    </visual_scene>
  </library_visual_scenes>

  <scene>
    <instance_visual_scene url="#ID1"/>
  </scene>

  <library_nodes>
    <node id="ID3" name="Part 11">
      <instance_geometry url="#ID4">
        <bind_material>
          <technique_common>
            <instance_material symbol="ID10" target="#ID10"/>
          </technique_common>
        </bind_material>
      </instance_geometry>
    </node>
    <node id="ID11" name="Part 7">
      <instance_geometry url="#ID12">
        <bind_material>
          <technique_common>
            <instance_material symbol="ID18" target="#ID18"/>
          </technique_common>
        </bind_material>
      </instance_geometry>
    </node>
    <node id="ID19" name="Part 9">
      <instance_geometry url="#ID20">
        <bind_material>
          <technique_common>
            <instance_material symbol="ID26" target="#ID26"/>
          </technique_common>
        </bind_material>
      </instance_geometry>
    </node>
    <node id="ID27" name="Part 18">
      <instance_geometry url="#ID28">
        <bind_material>
          <technique_common>
            <instance_material symbol="ID34" target="#ID34"/>
          </technique_common>
        </bind_material>
      </instance_geometry>
    </node>
    <node id="ID35" name="Part 14">
      <instance_geometry url="#ID36">
        <bind_material>
          <technique_common>
            <instance_material symbol="ID42" target="#ID42"/>
          </technique_common>
        </bind_material>
      </instance_geometry>
    </node>
    <node id="ID43" name="Part 17">
      <instance_geometry url="#ID44">
        <bind_material>
          <technique_common>
            <instance_material symbol="ID26" target="#ID26"/>
          </technique_common>
        </bind_material>
      </instance_geometry>
    </node>
    <node id="ID50" name="Part 8">
      <instance_geometry url="#ID51">
        <bind_material>
          <technique_common>
            <instance_material symbol="ID57" target="#ID57"/>
          </technique_common>
        </bind_material>
      </instance_geometry>
    </node>
    <node id="ID58" name="Part 13">
      <instance_geometry url="#ID59">
        <bind_material>
          <technique_common>
            <instance_material symbol="ID65" target="#ID65"/>
          </technique_common>
        </bind_material>
      </instance_geometry>
    </node>
    <node id="ID66" name="Part 12">
      <instance_geometry url="#ID67">
        <bind_material>
          <technique_common>
            <instance_material symbol="ID73" target="#ID73"/>
          </technique_common>
        </bind_material>
      </instance_geometry>
    </node>
    <node id="ID74" name="Part 16">
      <instance_geometry url="#ID75">
        <bind_material>
          <technique_common>
            <instance_material symbol="ID57" target="#ID57"/>
          </technique_common>
        </bind_material>
      </instance_geometry>
    </node>
    <node id="ID81" name="Part 10">
      <instance_geometry url="#ID82">
        <bind_material>
          <technique_common>
            <instance_material symbol="ID34" target="#ID34"/>
          </technique_common>
        </bind_material>
      </instance_geometry>
    </node>
    <node id="ID88" name="Part 15">
      <instance_geometry url="#ID89">
        <bind_material>
          <technique_common>
            <instance_material symbol="ID18" target="#ID18"/>
          </technique_common>
        </bind_material>
      </instance_geometry>
    </node>
  </library_nodes>

</COLLADA>
