solid Mesh
  facet normal 0 -1 0
    outer loop
      vertex 25 0 4
      vertex 10 0 4
      vertex 25 0 0
    endloop
  endfacet
  facet normal 0 -1 0
    outer loop
      vertex 10 0 4
      vertex 10 0 0
      vertex 25 0 0
    endloop
  endfacet
  facet normal 0 1 0
    outer loop
      vertex 10 0.1 4
      vertex 25 0.1 4
      vertex 10 0.1 0
    endloop
  endfacet
  facet normal 0 1 0
    outer loop
      vertex 25 0.1 4
      vertex 25 0.1 0
      vertex 10 0.1 0
    endloop
  endfacet
  facet normal -1 0 0
    outer loop
      vertex 10 0.1 4
      vertex 10 0.1 0
      vertex 10 0 4
    endloop
  endfacet
  facet normal -1 0 0
    outer loop
      vertex 10 0.1 0
      vertex 10 0 0
      vertex 10 0 4
    endloop
  endfacet
  facet normal 0 0 1
    outer loop
      vertex 25 0.1 4
      vertex 10 0.1 4
      vertex 25 0 4
    endloop
  endfacet
  facet normal 0 0 1
    outer loop
      vertex 10 0.1 4
      vertex 10 0 4
      vertex 25 0 4
    endloop
  endfacet
  facet normal 0 0 -1
    outer loop
      vertex 10 0.1 0
      vertex 25 0.1 0
      vertex 10 0 0
    endloop
  endfacet
  facet normal 0 0 -1
    outer loop
      vertex 25 0.1 0
      vertex 25 0 0
      vertex 10 0 0
    endloop
  endfacet
  facet normal 1 0 0
    outer loop
      vertex 25 0.1 0
      vertex 25 0.1 4
      vertex 25 0 0
    endloop
  endfacet
  facet normal 1 0 0
    outer loop
      vertex 25 0.1 4
      vertex 25 0 4
      vertex 25 0 0
    endloop
  endfacet
endsolid Mesh
