<?xml version="1.0" encoding="UTF-8" standalone="no" ?>
<COLLADA version="1.4.1" xmlns="http://www.collada.org/2005/11/COLLADASchema">

  <asset>
    <created>2022-12-23T00:22:01</created>
    <modified>2022-12-23T00:22:01</modified>
    <unit meter="1" name="meters"/>
    <up_axis>Z_UP</up_axis>
  </asset>

  <library_materials>
    <material id="ID10" name="ID10">
      <instance_effect url="#ID10-fx"/>
    </material>
  </library_materials>

  <library_effects>
    <effect id="ID10-fx" name="ID10">
      <profile_COMMON>
        <technique sid="COMMON">
          <lambert>
            <diffuse>
              <color sid="diffuse">0.596078 0.666667 0.686275 1</color>
            </diffuse>
            <transparent opaque="A_ONE">
              <color sid="transparent">1 1 1 1</color>
            </transparent>
            <transparency>
              <float sid="transparency">1</float>
            </transparency>
          </lambert>
        </technique>
        <extra>
          <technique profile="OTHER">
            <double_sided>1</double_sided>
          </technique>
        </extra>
      </profile_COMMON>
    </effect>
  </library_effects>

  <library_geometries>
    <geometry id="ID4">
      <mesh>
        <source id="ID5">
          <float_array count="1764" id="ID6">59.8 -40.6 0 60 -40 0 59.8 -40 0 15.3 -47.8 0 15.3 -47.6 0 15.1 -49.8 0 15.3 -40.8 0 15.1 -40.6 0 52.86 -40.6 0 52.86 -40.8 0 59.8 -40.8 0 15.5 -40.6 0 1.11171e-15 -47.8 0 0 -50 0 0.2 -49.8 0 60 -47.8 0 59.8 -47.6 0 15.5 -40.8 0 15.3 -50 0 0.2 -47.8 0 60 -30 4.5 60 0 0 60 -30 0 60 0 5 60 -47.8 5 60 -40 4.5 60 -47.8 0 60 -40 0 30 -18.2 0 26.05 -18.2 2.4 26.05 -18.2 0 24.6 -18.2 5 30 -18.2 5 25.2 -18.2 2.4 24.6 -18.2 0 25.2 -18.2 0 24.4 -18.2 0 18.3 -18.2 2.8 18.3 -18.2 0 15.3 -18.2 5 24.4 -18.2 5 15.9 -18.2 2.8 15.3 -18.2 0 15.9 -18.2 0 2.2 -30 2.8 2.2 -30 0 0.2 -30 0 11.798 -30 2.4 11.798 -30 0 4.6 -30 0 0.2 -30 5 4.6 -30 2.8 15.9 -30 2.8 15.9 -30 1.81899e-15 13.398 -30 0 13.398 -30 2.4 30.2 -30 0 18.3 -30 0 18.3 -30 2.8 30.2 -30 5 9.65 -29.8 0 11.798 -30 0 11.798 -29.8 0 9.65 -21.15 0 9.45 -21.15 0 9.45 -29.8 0 4.6 -30 0 4.6 -29.8 0 2.2 -29.8 0 2.2 -29.8 2.8 0.2 -29.8 0 9.45 -29.8 0 4.6 -29.8 2.8 4.6 -29.8 0 0.2 -29.8 5 9.45 -29.8 5 9.45 -21.15 2.4 9.45 -29.8 0 9.45 -21.15 0 9.45 -29.8 5 9.45 -20.3 2.4 9.45 -19.7 0 9.45 -19.7 5 9.45 -20.3 0 11.798 -29.8 0 11.798 -29.8 2.4 9.65 -29.8 0 15.1 -29.8 0 13.398 -29.8 2.4 13.398 -29.8 0 15.1 -29.8 5 9.65 -29.8 5 43.92 -40.6 0 43.92 -40.8 0 51.26 -40.8 0 51.26 -40.6 0 59.8 -40.8 5 59.8 -40.8 0 52.86 -40.8 2.4 43.92 -40.8 0 43.92 -40.8 2.4 51.26 -40.8 0 52.86 -40.8 0 51.26 -40.8 2.4 34.98 -40.8 3.63798e-15 34.98 -40.8 2.4 42.32 -40.8 0 42.32 -40.8 2.4 15.3 -40.8 5 26.04 -40.8 3.63798e-15 26.04 -40.8 2.4 33.38 -40.8 0 24.44 -40.8 2.4 17.1 -40.8 3.63798e-15 17.1 -40.8 2.4 24.44 -40.8 0 33.38 -40.8 2.4 15.5 -40.8 0 15.3 -40.8 0 15.5 -40.8 2.4 34.98 -40.6 0 34.98 -40.8 3.63798e-15 42.32 -40.8 0 42.32 -40.6 0 26.04 -40.6 0 26.04 -40.8 3.63798e-15 33.38 -40.8 0 33.38 -40.6 0 17.1 -40.6 0 17.1 -40.8 3.63798e-15 24.44 -40.8 0 24.44 -40.6 0 59.8 -40.8 5 59.8 -47.6 0 59.8 -40.8 0 59.8 -47.6 5 15.1 -49.8 5 0.2 -49.8 0 15.1 -49.8 0 0.2 -49.8 5 24.4 -29.8 0 18.3 -29.8 2.8 18.3 -29.8 0 15.9 -29.8 2.8 15.3 -29.8 5 15.3 -29.8 0 24.4 -29.8 5 15.9 -29.8 0 15.3 -18.2 5 15.3 -10.2 0 15.3 -18.2 0 15.3 -10.2 5 30 -10.2 5 30 -10.2 0 24.6 -10.2 0 24.6 -10.2 5 30 -18.4 5 30 -29.8 0 30 -18.4 0 30 -29.8 5 15.1 -19.9 5 15.1 -29.8 0 15.1 -19.9 0 15.1 -29.8 5 24.4 -10.2 5 24.4 -10.2 0 15.3 -10.2 0 15.3 -10.2 5 0.2 -29.8 5 0.2 -10.2 0 0.2 -29.8 0 0.2 -10.2 5 18.3 -18.2 0 18.3 -18.4 0 24.4 -18.2 0 30 -10 0 15.3 -10.2 0 24.4 -10.2 0 15.1 -10.2 0 2.02129e-14 -10 0 0.2 -10.2 0 25.2 -18.4 0 24.6 -10.2 0 24.4 -29.8 0 18.3 -30 0 30.2 -30 0 15.1 -19.9 0 15.3 -29.8 0 15.3 -18.4 0 15.9 -18.4 0 15.9 -18.2 0 15.3 -18.2 0 30.2 -0.2 0 30 -10.2 0 30 -18.2 0 24.6 -18.2 0 25.2 -18.2 0 30 0 0 24.6 -29.8 0 26.05 -18.4 0 30 -18.4 0 26.05 -18.2 0 30 -29.8 0 18.3 -29.8 0 15.1 -19.7 0 24.6 -23 0 24.4 -23 0 9.65 -19.9 0 9.45 -20.3 0 9.65 -20.3 0 0.2 -37.8 0 0.2 -30 0 7.27596e-15 -37.8 0 59.8 -0.2 0 60 0 0 60 -30 0 59.8 -30 0 2.2 -30 0 0.2 -29.8 0 15.1 -29.8 0 13.398 -30 0 15.9 -30 1.81899e-15 2.2 -29.8 0 9.45 -19.7 0 13.398 -29.8 0 15.9 -29.8 0 1.11171e-15 -47.8 4.5 0 -50 0 1.11171e-15 -47.8 0 -9.69352e-29 -50 5 6.16492e-15 -37.8 4.5 2.02129e-14 -10 5 2.02129e-14 -10 0 7.27596e-15 -37.8 0 15.3 -50 5 0 -50 0 -9.69352e-29 -50 5 15.3 -50 0 30 0 0 60 0 0 60 0 5 30 0 5 30 -10 5 30 0 0 30 0 5 30 -10 0 2.02129e-14 -10 0 30 -10 0 30 -10 5 2.02129e-14 -10 5 0.2 -49.8 0 0.2 -47.8 4.5 0.2 -47.8 0 0.2 -49.8 5 0.2 -37.8 4.5 0.2 -30 5 0.2 -37.8 0 0.2 -30 0 59.8 -0.2 0 59.8 -30 4.5 59.8 -30 0 59.8 -40.6 5 59.8 -0.2 5 59.8 -40 4.5 59.8 -40.6 0 59.8 -40 0 59.8 -0.2 5 59.8 -0.2 0 30.2 -0.2 0 30.2 -0.2 5 30.2 -30 5 30.2 -0.2 0 30.2 -30 0 30.2 -0.2 5 15.1 -10.2 5 15.1 -10.2 0 0.2 -10.2 0 0.2 -10.2 5 0.2 -47.8 4.5 1.11171e-15 -47.8 0 0.2 -47.8 0 1.11171e-15 -47.8 4.5 0.2 -37.8 0 6.16492e-15 -37.8 4.5 0.2 -37.8 4.5 7.27596e-15 -37.8 0 0.2 -37.8 4.5 1.11171e-15 -47.8 4.5 0.2 -47.8 4.5 6.16492e-15 -37.8 4.5 24.6 -29.8 5 30 -29.8 0 30 -29.8 5 24.6 -29.8 0 30 -10.2 5 30 -18.2 0 30 -10.2 0 30 -18.2 5 15.1 -10.2 5 15.1 -19.7 0 15.1 -10.2 0 15.1 -19.7 5 15.3 -29.8 5 15.3 -18.4 0 15.3 -29.8 0 15.3 -18.4 5 15.1 -19.9 5 9.65 -19.9 0 9.65 -19.9 5 15.1 -19.9 0 9.45 -19.7 5 15.1 -19.7 0 15.1 -19.7 5 9.45 -19.7 0 9.65 -20.3 2.4 9.65 -19.9 0 9.65 -20.3 0 9.65 -19.9 5 9.65 -21.15 2.4 9.65 -29.8 5 9.65 -29.8 0 9.65 -21.15 0 24.4 -10.2 5 24.4 -18.2 0 24.4 -10.2 0 24.4 -18.2 5 24.6 -18.2 5 24.6 -10.2 0 24.6 -18.2 0 24.6 -10.2 5 15.3 -18.4 0 15.9 -18.4 2.8 15.9 -18.4 0 15.3 -18.4 5 18.3 -18.4 2.8 30 -18.4 5 25.2 -18.4 0 18.3 -18.4 0 25.2 -18.4 2.4 26.05 -18.4 2.4 26.05 -18.4 0 30 -18.4 0 24.4 -29.8 5 24.4 -23 0 24.4 -23 5 24.4 -29.8 0 24.6 -23 5 24.6 -29.8 0 24.6 -29.8 5 24.6 -23 0 24.4 -23 0 24.6 -23 0 24.6 -23 5 24.4 -23 5 15.3 -47.6 5 59.8 -47.6 0 59.8 -47.6 5 15.3 -47.6 0 60 -47.8 5 60 -47.8 0 15.3 -47.8 0 15.3 -47.8 5 15.3 -50 5 15.3 -47.8 0 15.3 -50 0 15.3 -47.8 5 15.1 -40.6 5 15.1 -49.8 0 15.1 -40.6 0 15.1 -49.8 5 15.1 -40.6 0 15.5 -40.6 2.4 15.1 -40.6 5 24.44 -40.6 2.4 17.1 -40.6 2.4 15.5 -40.6 0 17.1 -40.6 0 24.44 -40.6 0 26.04 -40.6 2.4 33.38 -40.6 2.4 26.04 -40.6 0 33.38 -40.6 0 34.98 -40.6 2.4 59.8 -40.6 5 34.98 -40.6 0 42.32 -40.6 0 42.32 -40.6 2.4 43.92 -40.6 2.4 43.92 -40.6 0 51.26 -40.6 0 51.26 -40.6 2.4 52.86 -40.6 2.4 52.86 -40.6 0 59.8 -40.6 0 15.3 -40.8 5 15.3 -47.6 0 15.3 -47.6 5 15.3 -40.8 0 60 -40 4.5 59.8 -40 4.5 59.8 -40 0 60 -40 0 60 -30 0 59.8 -30 0 59.8 -30 4.5 60 -30 4.5 60 -40 4.5 60 -30 4.5 59.8 -30 4.5 59.8 -40 4.5 17.1 -40.6 2.4 15.5 -40.8 2.4 17.1 -40.8 2.4 15.5 -40.6 2.4 15.5 -40.6 2.4 15.5 -40.8 0 15.5 -40.8 2.4 15.5 -40.6 0 17.1 -40.6 0 17.1 -40.8 2.4 17.1 -40.8 3.63798e-15 17.1 -40.6 2.4 26.04 -40.6 2.4 24.44 -40.8 2.4 26.04 -40.8 2.4 24.44 -40.6 2.4 24.44 -40.6 2.4 24.44 -40.8 0 24.44 -40.8 2.4 24.44 -40.6 0 26.04 -40.6 0 26.04 -40.8 2.4 26.04 -40.8 3.63798e-15 26.04 -40.6 2.4 34.98 -40.6 2.4 33.38 -40.8 2.4 34.98 -40.8 2.4 33.38 -40.6 2.4 33.38 -40.6 2.4 33.38 -40.8 0 33.38 -40.8 2.4 33.38 -40.6 0 34.98 -40.6 0 34.98 -40.8 2.4 34.98 -40.8 3.63798e-15 34.98 -40.6 2.4 43.92 -40.6 2.4 42.32 -40.8 2.4 43.92 -40.8 2.4 42.32 -40.6 2.4 42.32 -40.6 2.4 42.32 -40.8 0 42.32 -40.8 2.4 42.32 -40.6 0 43.92 -40.6 0 43.92 -40.8 2.4 43.92 -40.8 0 43.92 -40.6 2.4 52.86 -40.6 2.4 51.26 -40.8 2.4 52.86 -40.8 2.4 51.26 -40.6 2.4 51.26 -40.6 2.4 51.26 -40.8 0 51.26 -40.8 2.4 51.26 -40.6 0 52.86 -40.6 0 52.86 -40.8 2.4 52.86 -40.8 0 52.86 -40.6 2.4 11.798 -30 2.4 11.798 -29.8 2.4 11.798 -29.8 0 11.798 -30 0 13.398 -30 0 13.398 -29.8 0 13.398 -29.8 2.4 13.398 -30 2.4 13.398 -30 2.4 13.398 -29.8 2.4 11.798 -29.8 2.4 11.798 -30 2.4 9.45 -21.15 0 9.65 -21.15 0 9.65 -21.15 2.4 9.45 -21.15 2.4 9.45 -20.3 2.4 9.65 -21.15 2.4 9.65 -20.3 2.4 9.45 -21.15 2.4 9.45 -20.3 2.4 9.65 -20.3 2.4 9.65 -20.3 0 9.45 -20.3 0 4.6 -30 2.8 4.6 -29.8 2.8 2.2 -29.8 2.8 2.2 -30 2.8 2.2 -30 2.8 2.2 -29.8 2.8 2.2 -29.8 0 2.2 -30 0 4.6 -30 0 4.6 -29.8 0 4.6 -29.8 2.8 4.6 -30 2.8 18.3 -29.8 0 18.3 -29.8 2.8 18.3 -30 2.8 18.3 -30 0 15.9 -29.8 2.8 15.9 -29.8 0 15.9 -30 1.81899e-15 15.9 -30 2.8 18.3 -29.8 2.8 15.9 -29.8 2.8 15.9 -30 2.8 18.3 -30 2.8 15.9 -18.4 2.8 15.9 -18.2 2.8 15.9 -18.2 0 15.9 -18.4 0 18.3 -18.4 0 18.3 -18.2 0 18.3 -18.2 2.8 18.3 -18.4 2.8 18.3 -18.4 2.8 18.3 -18.2 2.8 15.9 -18.2 2.8 15.9 -18.4 2.8 25.2 -18.4 2.4 25.2 -18.2 2.4 25.2 -18.2 0 25.2 -18.4 0 26.05 -18.4 0 26.05 -18.2 0 26.05 -18.2 2.4 26.05 -18.4 2.4 26.05 -18.4 2.4 26.05 -18.2 2.4 25.2 -18.2 2.4 25.2 -18.4 2.4 60 -47.8 5 15.3 -47.8 5 59.8 -47.6 5 60 0 5 59.8 -0.2 5 30.2 -0.2 5 15.3 -47.6 5 15.3 -50 5 -9.69352e-29 -50 5 15.1 -49.8 5 0.2 -49.8 5 2.02129e-14 -10 5 0.2 -30 5 15.3 -40.8 5 59.8 -40.6 5 59.8 -40.8 5 30.2 -30 5 15.3 -29.8 5 15.1 -40.6 5 24.6 -18.2 5 30 -18.2 5 30 -18.4 5 30 -10 5 30 0 5 24.4 -29.8 5 24.4 -23 5 24.6 -23 5 15.1 -29.8 5 24.6 -29.8 5 30 -29.8 5 24.4 -18.2 5 15.3 -18.4 5 30 -10.2 5 24.6 -10.2 5 24.4 -10.2 5 15.3 -18.2 5 9.65 -19.9 5 15.1 -19.7 5 15.1 -19.9 5 15.3 -10.2 5 15.1 -10.2 5 9.65 -29.8 5 9.45 -19.7 5 9.45 -29.8 5 0.2 -29.8 5 0.2 -10.2 5</float_array>
          <technique_common>
            <accessor count="588" source="#ID6" stride="3">
              <param name="X" type="float"/>
              <param name="Y" type="float"/>
              <param name="Z" type="float"/>
            </accessor>
          </technique_common>
        </source>
        <source id="ID7">
          <float_array count="1764" id="ID8">-0 -0 -1 -0 -0 -1 -0 -0 -1 -0 -0 -1 -0 -0 -1 -0 -0 -1 -0 -0 -1 -0 -0 -1 -0 -0 -1 -0 -0 -1 -0 -0 -1 -0 -0 -1 -0 -0 -1 -0 -0 -1 -0 -0 -1 -0 -0 -1 -0 -0 -1 -0 -0 -1 -0 -0 -1 -0 -0 -1 1 -3.747e-15 0 1 -3.747e-15 0 1 -3.747e-15 0 1 -3.747e-15 0 1 -3.747e-15 0 1 -3.747e-15 0 1 -3.747e-15 0 1 -3.747e-15 0 1.92747e-15 1 0 1.92747e-15 1 0 1.92747e-15 1 0 1.92747e-15 1 0 1.92747e-15 1 0 1.92747e-15 1 0 1.92747e-15 1 0 1.92747e-15 1 0 2.66881e-15 1 0 2.66881e-15 1 0 2.66881e-15 1 0 2.66881e-15 1 0 2.66881e-15 1 0 2.66881e-15 1 0 2.66881e-15 1 0 2.66881e-15 1 0 0 -1 0 0 -1 0 0 -1 0 0 -1 0 0 -1 0 0 -1 0 0 -1 0 0 -1 0 0 -1 0 0 -1 0 0 -1 0 0 -1 0 0 -1 0 0 -1 0 0 -1 0 0 -1 0 -0 -0 -1 -0 -0 -1 -0 -0 -1 -0 -0 -1 -0 -0 -1 -0 -0 -1 -0 -0 -1 -0 -0 -1 0 1 0 0 1 0 0 1 0 0 1 0 0 1 0 0 1 0 0 1 0 0 1 0 -1 -1.20228e-15 -0 -1 -1.20228e-15 -0 -1 -1.20228e-15 -0 -1 -1.20228e-15 -0 -1 -1.20228e-15 -0 -1 -1.20228e-15 -0 -1 -1.20228e-15 -0 -1 -1.20228e-15 -0 0 1 0 0 1 0 0 1 0 0 1 0 0 1 0 0 1 0 0 1 0 0 1 0 -0 -0 -1 -0 -0 -1 -0 -0 -1 -0 -0 -1 -0 -1 -0 -0 -1 -0 -0 -1 -0 -0 -1 -0 -0 -1 -0 -0 -1 -0 -0 -1 -0 -0 -1 -0 -0 -1 -0 -0 -1 -0 -0 -1 -0 -0 -1 -0 -0 -1 -0 -0 -1 -0 -0 -1 -0 -0 -1 -0 -0 -1 -0 -0 -1 -0 -0 -1 -0 -0 -1 -0 -0 -1 -0 -0 -1 -0 -0 -1 -0 -0 -1 -0 -0 -0 -1 -0 -0 -1 -0 -0 -1 -0 -0 -1 -0 -0 -1 -0 -0 -1 -0 -0 -1 -0 -0 -1 -0 -0 -1 -0 -0 -1 -0 -0 -1 -0 -0 -1 -1 3.77722e-15 0 -1 3.77722e-15 0 -1 3.77722e-15 0 -1 3.77722e-15 0 2.32849e-15 1 0 2.32849e-15 1 0 2.32849e-15 1 0 2.32849e-15 1 0 0 1 0 0 1 0 0 1 0 0 1 0 0 1 0 0 1 0 0 1 0 0 1 0 1 -1.15058e-15 0 1 -1.15058e-15 0 1 -1.15058e-15 0 1 -1.15058e-15 0 0 -1 0 0 -1 0 0 -1 0 0 -1 0 -1 7.0805e-16 0 -1 7.0805e-16 0 -1 7.0805e-16 0 -1 7.0805e-16 0 -1 3.71726e-15 0 -1 3.71726e-15 0 -1 3.71726e-15 0 -1 3.71726e-15 0 0 -1 0 0 -1 0 0 -1 0 0 -1 0 1 -5.0514e-16 0 1 -5.0514e-16 0 1 -5.0514e-16 0 1 -5.0514e-16 0 -0 -0 -1 -0 -0 -1 -0 -0 -1 -0 -0 -1 -0 -0 -1 -0 -0 -1 -0 -0 -1 -0 -0 -1 -0 -0 -1 -0 -0 -1 -0 -0 -1 -0 -0 -1 -0 -0 -1 -0 -0 -1 -0 -0 -1 -0 -0 -1 -0 -0 -1 -0 -0 -1 -0 -0 -1 -0 -0 -1 -0 -0 -1 -0 -0 -1 -0 -0 -1 -0 -0 -1 -0 -0 -1 -0 -0 -1 -0 -0 -1 -0 -0 -1 -0 -0 -1 -0 -0 -1 -0 -0 -1 -0 -0 -1 -0 -0 -1 -0 -0 -1 -0 -0 -1 -0 -0 -1 -0 -0 -1 -0 -0 -1 -0 -0 -1 -0 -0 -1 -0 -0 -1 -0 -0 -1 -0 -0 -1 -0 -0 -1 -0 -0 -1 -0 -0 -1 -0 -0 -1 -0 -0 -1 -0 -0 -1 -0 -0 -1 -0 -0 -1 -0 -0 -1 -0 -0 -1 -0 -0 -1 -1 5.05322e-16 0 -1 5.05322e-16 0 -1 5.05322e-16 0 -1 5.05322e-16 0 -1 5.05322e-16 0 -1 5.05322e-16 0 -1 5.05322e-16 0 -1 5.05322e-16 0 -2.42861e-15 -1 -0 -2.42861e-15 -1 -0 -2.42861e-15 -1 -0 -2.42861e-15 -1 -0 0 1 0 0 1 0 0 1 0 0 1 0 -1 1.38778e-15 0 -1 1.38778e-15 0 -1 1.38778e-15 0 -1 1.38778e-15 0 0 1 0 0 1 0 0 1 0 0 1 0 1 -5.0514e-16 0 1 -5.0514e-16 0 1 -5.0514e-16 0 1 -5.0514e-16 0 1 -5.0514e-16 0 1 -5.0514e-16 0 1 -5.0514e-16 0 1 -5.0514e-16 0 -1 3.77722e-15 0 -1 3.77722e-15 0 -1 3.77722e-15 0 -1 3.77722e-15 0 -1 3.77722e-15 0 -1 3.77722e-15 0 -1 3.77722e-15 0 -1 3.77722e-15 0 0 -1 0 0 -1 0 0 -1 0 0 -1 0 1 -1.04083e-15 0 1 -1.04083e-15 0 1 -1.04083e-15 0 1 -1.04083e-15 0 0 -1 0 0 -1 0 0 -1 0 0 -1 0 0 1 -3.08395e-15 0 1 -3.08395e-15 0 1 -3.08395e-15 0 1 -3.08395e-15 0 -1 6.16791e-15 0 -1 6.16791e-15 0 -1 6.16791e-15 0 -1 6.16791e-15 -0 -2.1684e-14 -1 -0 -2.1684e-14 -1 -0 -2.1684e-14 -1 -0 -2.1684e-14 -1 0 1 0 0 1 0 0 1 0 0 1 0 -1 7.0805e-16 0 -1 7.0805e-16 0 -1 7.0805e-16 0 -1 7.0805e-16 0 -1 3.71726e-15 0 -1 3.71726e-15 0 -1 3.71726e-15 0 -1 3.71726e-15 0 1 -1.15058e-15 0 1 -1.15058e-15 0 1 -1.15058e-15 0 1 -1.15058e-15 0 2.54638e-15 -1 0 2.54638e-15 -1 0 2.54638e-15 -1 0 2.54638e-15 -1 0 -2.45625e-15 1 0 -2.45625e-15 1 0 -2.45625e-15 1 0 -2.45625e-15 1 0 1 1.22657e-15 0 1 1.22657e-15 0 1 1.22657e-15 0 1 1.22657e-15 0 1 1.22657e-15 0 1 1.22657e-15 0 1 1.22657e-15 0 1 1.22657e-15 0 -1 1.26931e-15 0 -1 1.26931e-15 0 -1 1.26931e-15 0 -1 1.26931e-15 0 1 -1.30104e-15 0 1 -1.30104e-15 0 1 -1.30104e-15 0 1 -1.30104e-15 0 -2.47818e-15 -1 0 -2.47818e-15 -1 0 -2.47818e-15 -1 0 -2.47818e-15 -1 0 -2.47818e-15 -1 0 -2.47818e-15 -1 0 -2.47818e-15 -1 0 -2.47818e-15 -1 0 -2.47818e-15 -1 0 -2.47818e-15 -1 0 -2.47818e-15 -1 0 -2.47818e-15 -1 0 -1 3.57149e-15 0 -1 3.57149e-15 0 -1 3.57149e-15 0 -1 3.57149e-15 0 1 -3.57149e-15 0 1 -3.57149e-15 0 1 -3.57149e-15 0 1 -3.57149e-15 0 0 1 0 0 1 0 0 1 0 0 1 0 0 1 0 0 1 0 0 1 0 0 1 0 0 -1 0 0 -1 0 0 -1 0 0 -1 0 1 -1.73472e-15 0 1 -1.73472e-15 0 1 -1.73472e-15 0 1 -1.73472e-15 0 -1 1.57702e-15 0 -1 1.57702e-15 0 -1 1.57702e-15 0 -1 1.57702e-15 0 0 1 0 0 1 0 0 1 0 0 1 0 0 1 0 0 1 0 0 1 0 0 1 0 0 1 0 0 1 0 0 1 0 0 1 0 0 1 0 0 1 0 0 1 0 0 1 0 0 1 0 0 1 0 0 1 0 0 1 0 0 1 0 0 1 0 0 1 0 0 1 0 1 -3.57149e-15 0 1 -3.57149e-15 0 1 -3.57149e-15 0 1 -3.57149e-15 0 0 1 4.62593e-15 0 1 4.62593e-15 0 1 4.62593e-15 0 1 4.62593e-15 -0 -1 -2.31296e-15 -0 -1 -2.31296e-15 -0 -1 -2.31296e-15 -0 -1 -2.31296e-15 -0 -0 -1 -0 -0 -1 -0 -0 -1 -0 -0 -1 0 0 -1 0 0 -1 0 0 -1 0 0 -1 1 0 2.1684e-15 1 0 2.1684e-15 1 0 2.1684e-15 1 0 2.1684e-15 -1 0 -1.4456e-15 -1 0 -1.4456e-15 -1 0 -1.4456e-15 -1 0 -1.4456e-15 0 0 -1 0 0 -1 0 0 -1 0 0 -1 1 0 1.4456e-15 1 0 1.4456e-15 1 0 1.4456e-15 1 0 1.4456e-15 -1 0 -1.4456e-15 -1 0 -1.4456e-15 -1 0 -1.4456e-15 -1 0 -1.4456e-15 0 0 -1 0 0 -1 0 0 -1 0 0 -1 1 0 2.89121e-15 1 0 2.89121e-15 1 0 2.89121e-15 1 0 2.89121e-15 -1 0 0 -1 0 0 -1 0 0 -1 0 0 0 0 -1 0 0 -1 0 0 -1 0 0 -1 1 0 0 1 0 0 1 0 0 1 0 0 -1 0 -2.89121e-15 -1 0 -2.89121e-15 -1 0 -2.89121e-15 -1 0 -2.89121e-15 0 0 -1 0 0 -1 0 0 -1 0 0 -1 1 0 0 1 0 0 1 0 0 1 0 0 -1 0 -2.89121e-15 -1 0 -2.89121e-15 -1 0 -2.89121e-15 -1 0 -2.89121e-15 1 0 -1.4456e-15 1 0 -1.4456e-15 1 0 -1.4456e-15 1 0 -1.4456e-15 -1 0 2.1684e-15 -1 0 2.1684e-15 -1 0 2.1684e-15 -1 0 2.1684e-15 -0 -0 -1 -0 -0 -1 -0 -0 -1 -0 -0 -1 0 1 4.33681e-15 0 1 4.33681e-15 0 1 4.33681e-15 0 1 4.33681e-15 -0 -0 -1 -0 -0 -1 -0 -0 -1 -0 -0 -1 -0 -1 -1.4456e-15 -0 -1 -1.4456e-15 -0 -1 -1.4456e-15 -0 -1 -1.4456e-15 -0 -0 -1 -0 -0 -1 -0 -0 -1 -0 -0 -1 1 0 -1.0842e-15 1 0 -1.0842e-15 1 0 -1.0842e-15 1 0 -1.0842e-15 -1 0 1.85863e-15 -1 0 1.85863e-15 -1 0 1.85863e-15 -1 0 1.85863e-15 -1 0 2.47818e-15 -1 0 2.47818e-15 -1 0 2.47818e-15 -1 0 2.47818e-15 1 0 -1.23909e-15 1 0 -1.23909e-15 1 0 -1.23909e-15 1 0 -1.23909e-15 0 0 -1 0 0 -1 0 0 -1 0 0 -1 1 0 -1.23909e-15 1 0 -1.23909e-15 1 0 -1.23909e-15 1 0 -1.23909e-15 -1 0 2.47818e-15 -1 0 2.47818e-15 -1 0 2.47818e-15 -1 0 2.47818e-15 -4.69821e-15 -0 -1 -4.69821e-15 -0 -1 -4.69821e-15 -0 -1 -4.69821e-15 -0 -1 1 0 -1.4456e-15 1 0 -1.4456e-15 1 0 -1.4456e-15 1 0 -1.4456e-15 -1 0 1.4456e-15 -1 0 1.4456e-15 -1 0 1.4456e-15 -1 0 1.4456e-15 -0 -0 -1 -0 -0 -1 -0 -0 -1 -0 -0 -1 0 0 1 0 0 1 0 0 1 0 0 1 0 0 1 0 0 1 0 0 1 0 0 1 0 0 1 0 0 1 0 0 1 0 0 1 0 0 1 0 0 1 0 0 1 0 0 1 0 0 1 0 0 1 0 0 1 0 0 1 0 0 1 0 0 1 0 0 1 0 0 1 0 0 1 0 0 1 0 0 1 0 0 1 0 0 1 0 0 1 0 0 1 0 0 1 0 0 1 0 0 1 0 0 1 0 0 1 0 0 1 0 0 1 0 0 1 0 0 1 0 0 1 0 0 1 0 0 1 0 0 1 0 0 1 0 0 1</float_array>
          <technique_common>
            <accessor count="588" source="#ID8" stride="3">
              <param name="X" type="float"/>
              <param name="Y" type="float"/>
              <param name="Z" type="float"/>
            </accessor>
          </technique_common>
        </source>
        <vertices id="ID9">
          <input semantic="POSITION" source="#ID5"/>
          <input semantic="NORMAL" source="#ID7"/>
        </vertices>
        <triangles count="416" material="ID10">
          <input offset="0" semantic="VERTEX" source="#ID9"/>
          <p>0 2 1 3 5 4 4 7 6 8 10 9 0 1 10 6 7 11 12 14 13 15 3 16 8 0 10 1 15 10 15 16 10 4 5 7 4 16 3 17 6 11 13 14 18 3 18 5 14 12 19 14 5 18 20 22 21 21 23 20 24 25 20 24 20 23 25 24 26 25 26 27 28 30 29 31 32 29 28 29 32 33 35 34 29 33 31 33 34 31 36 38 37 39 40 37 36 37 40 41 43 42 37 41 39 41 42 39 44 46 45 47 49 48 50 44 51 46 44 50 47 52 51 53 55 54 55 52 47 49 47 51 55 53 52 56 58 57 59 50 52 52 50 51 59 52 58 56 59 58 60 62 61 60 64 63 60 61 65 61 66 65 60 65 64 65 66 67 68 70 69 71 73 72 74 75 72 71 72 75 74 72 69 70 74 69 76 78 77 76 77 79 80 82 81 82 76 79 76 82 80 80 81 83 84 86 85 87 89 88 90 88 85 87 88 90 90 85 91 86 91 85 92 94 93 92 95 94 96 98 97 99 101 100 102 97 98 103 98 96 100 103 96 104 106 105 101 103 100 96 105 107 105 96 108 109 111 110 106 107 105 107 100 96 110 108 112 113 115 114 111 116 110 116 108 110 112 108 114 117 119 118 115 112 114 114 108 119 119 108 118 116 105 108 120 122 121 120 123 122 124 126 125 124 127 126 128 130 129 128 131 130 132 134 133 132 133 135 136 138 137 136 137 139 140 142 141 143 145 144 144 146 141 140 141 146 143 147 145 141 143 144 148 150 149 148 149 151 152 154 153 154 152 155 156 158 157 156 157 159 160 162 161 160 161 163 164 166 165 166 164 167 168 170 169 168 169 171 172 174 173 175 177 176 178 180 179 181 173 174 182 177 175 183 185 184 186 188 187 189 191 190 192 194 193 195 196 181 194 192 185 174 195 181 177 195 174 195 177 182 175 197 192 198 185 183 199 201 200 200 185 202 201 194 200 185 200 194 183 184 203 204 188 186 198 206 205 206 198 183 207 209 208 210 212 211 198 202 185 197 214 213 213 192 197 214 215 213 213 215 216 178 179 175 182 175 193 193 175 192 211 218 217 212 218 211 219 221 220 217 218 222 212 179 218 179 180 218 175 176 178 191 178 176 191 204 178 204 207 223 208 223 207 207 204 186 186 187 219 187 221 219 219 220 224 221 187 225 189 188 191 191 188 204 226 228 227 227 229 226 229 231 230 229 230 226 230 231 232 230 232 233 234 236 235 235 237 234 238 240 239 238 241 240 242 244 243 243 245 242 246 248 247 246 249 248 250 252 251 253 251 254 250 251 253 253 254 255 256 257 254 254 257 255 258 260 259 261 262 259 258 259 262 263 265 264 259 263 261 263 264 261 266 268 267 268 266 269 270 272 271 270 271 273 274 276 275 276 274 277 278 280 279 279 281 278 282 284 283 283 285 282 286 288 287 287 289 286 290 292 291 290 291 293 294 296 295 294 295 297 298 300 299 298 299 301 302 304 303 302 303 305 306 308 307 307 309 306 310 312 311 311 313 310 314 316 315 315 317 314 317 319 318 317 318 314 320 321 318 318 319 320 322 324 323 322 323 325 326 328 327 326 327 329 330 332 331 333 331 334 330 331 333 333 334 335 336 338 337 335 334 338 337 338 334 335 338 339 340 341 339 339 341 335 342 344 343 343 345 342 346 348 347 347 349 346 350 352 351 350 353 352 354 356 355 354 355 357 358 360 359 360 358 361 362 364 363 362 363 365 366 368 367 366 367 369 370 372 371 373 374 372 370 371 375 376 373 377 372 379 378 380 379 381 372 383 382 382 379 372 376 374 373 384 386 385 386 383 387 373 372 378 380 378 379 388 390 389 383 386 382 390 387 383 384 382 386 391 393 392 393 391 383 391 390 383 388 387 390 374 371 372 394 396 395 395 397 394 398 400 399 398 401 400 402 404 403 402 405 404 406 408 407 406 409 408 410 412 411 410 411 413 414 416 415 414 415 417 418 420 419 418 419 421 422 424 423 422 423 425 426 428 427 426 427 429 430 432 431 430 431 433 434 436 435 434 435 437 438 440 439 438 439 441 442 444 443 442 443 445 446 448 447 446 447 449 450 452 451 450 451 453 454 456 455 454 455 457 458 460 459 458 459 461 462 464 463 462 463 465 466 468 467 466 467 469 470 472 471 470 473 472 474 476 475 474 477 476 478 480 479 478 481 480 482 484 483 482 485 484 486 488 487 487 489 486 490 492 491 490 493 492 494 496 495 494 497 496 498 500 499 498 501 500 502 504 503 502 505 504 506 508 507 508 506 509 510 512 511 512 510 513 514 516 515 516 514 517 518 520 519 518 521 520 522 524 523 522 525 524 526 528 527 526 529 528 530 532 531 530 533 532 534 536 535 534 537 536 538 540 539 538 541 540 542 544 543 545 547 546 548 543 544 549 551 550 550 551 552 550 554 553 555 557 556 542 556 557 558 559 554 560 555 556 543 548 551 557 544 542 548 555 560 556 545 546 561 563 562 560 551 548 550 552 554 543 551 549 542 545 556 558 562 563 564 547 565 545 565 547 566 559 558 566 568 567 569 554 559 566 558 570 566 570 568 571 570 558 572 573 563 558 563 571 574 564 575 564 574 547 562 558 547 576 572 575 564 576 575 572 563 561 547 574 562 573 572 577 575 572 561 578 580 579 576 564 581 581 564 582 579 573 577 583 554 569 559 580 569 559 573 580 584 585 578 579 577 582 554 583 585 585 586 554 578 585 583 553 554 586 577 581 582 584 578 579 573 579 580 564 553 582 553 587 582 553 586 587</p>
        </triangles>
      </mesh>
    </geometry>
    <geometry id="ID12">
      <mesh>
        <source id="ID13">
          <float_array count="144" id="ID14">39.4 -10.4 0 44.2 -10.4 0 44.2 -10.4 2.4 39.4 -10.4 5 50.6 -10.4 5 50.6 -10.4 0 45.8 -10.4 2.4 45.8 -10.4 0 45.8 -10.2 2.4 50.6 -10.2 0 45.8 -10.2 0 50.6 -10.2 5 44.2 -10.2 2.4 39.4 -10.2 0 39.4 -10.2 5 44.2 -10.2 0 50.6 -10.2 5 50.6 -10.4 5 50.6 -10.4 0 50.6 -10.2 0 39.4 -10.2 0 39.4 -10.4 5 39.4 -10.2 5 39.4 -10.4 0 44.2 -10.2 0 44.2 -10.4 0 39.4 -10.4 0 39.4 -10.2 0 45.8 -10.4 0 45.8 -10.2 0 50.6 -10.2 0 50.6 -10.4 0 44.2 -10.2 2.4 44.2 -10.4 0 44.2 -10.2 0 44.2 -10.4 2.4 45.8 -10.2 2.4 44.2 -10.4 2.4 44.2 -10.2 2.4 45.8 -10.4 2.4 45.8 -10.2 0 45.8 -10.4 2.4 45.8 -10.2 2.4 45.8 -10.4 0 39.4 -10.2 5 39.4 -10.4 5 50.6 -10.4 5 50.6 -10.2 5</float_array>
          <technique_common>
            <accessor count="48" source="#ID14" stride="3">
              <param name="X" type="float"/>
              <param name="Y" type="float"/>
              <param name="Z" type="float"/>
            </accessor>
          </technique_common>
        </source>
        <source id="ID15">
          <float_array count="144" id="ID16">0 -1 0 0 -1 0 0 -1 0 0 -1 0 0 -1 0 0 -1 0 0 -1 0 0 -1 0 9.29316e-16 1 0 9.29316e-16 1 0 9.29316e-16 1 0 9.29316e-16 1 0 9.29316e-16 1 0 9.29316e-16 1 0 9.29316e-16 1 0 9.29316e-16 1 0 1 0 0 1 0 0 1 0 0 1 0 0 -1 0 0 -1 0 0 -1 0 0 -1 0 0 0 0 -1 0 0 -1 0 0 -1 0 0 -1 0 0 -1 0 0 -1 0 0 -1 0 0 -1 1 0 0 1 0 0 1 0 0 1 0 0 0 0 -1 0 0 -1 0 0 -1 0 0 -1 -1 0 2.89121e-15 -1 0 2.89121e-15 -1 0 2.89121e-15 -1 0 2.89121e-15 0 0 1 0 0 1 0 0 1 0 0 1</float_array>
          <technique_common>
            <accessor count="48" source="#ID16" stride="3">
              <param name="X" type="float"/>
              <param name="Y" type="float"/>
              <param name="Z" type="float"/>
            </accessor>
          </technique_common>
        </source>
        <vertices id="ID17">
          <input semantic="POSITION" source="#ID13"/>
          <input semantic="NORMAL" source="#ID15"/>
        </vertices>
        <triangles count="28" material="ID10">
          <input offset="0" semantic="VERTEX" source="#ID17"/>
          <p>0 1 2 0 2 3 4 3 2 5 4 6 4 2 6 7 5 6 8 9 10 11 8 12 9 8 11 13 14 12 11 12 14 13 12 15 16 17 18 16 18 19 20 21 22 21 20 23 24 25 26 24 26 27 28 29 30 28 30 31 32 33 34 33 32 35 36 37 38 37 36 39 40 41 42 41 40 43 44 45 46 44 46 47</p>
        </triangles>
      </mesh>
    </geometry>
    <geometry id="ID19">
      <mesh>
        <source id="ID20">
          <float_array count="72" id="ID21">41.92 -47.6 5 41.92 -40.8 0 41.92 -40.8 5 41.92 -47.6 0 42.12 -47.6 0 41.92 -47.6 5 42.12 -47.6 5 41.92 -47.6 0 42.12 -40.8 5 42.12 -47.6 0 42.12 -47.6 5 42.12 -40.8 0 41.92 -40.8 0 42.12 -40.8 0 42.12 -40.8 5 41.92 -40.8 5 41.92 -40.8 0 42.12 -47.6 0 42.12 -40.8 0 41.92 -47.6 0 41.92 -47.6 5 41.92 -40.8 5 42.12 -40.8 5 42.12 -47.6 5</float_array>
          <technique_common>
            <accessor count="24" source="#ID21" stride="3">
              <param name="X" type="float"/>
              <param name="Y" type="float"/>
              <param name="Z" type="float"/>
            </accessor>
          </technique_common>
        </source>
        <source id="ID22">
          <float_array count="72" id="ID23">-1 5.10213e-15 0 -1 5.10213e-15 0 -1 5.10213e-15 0 -1 5.10213e-15 0 -0 -1 -0 -0 -1 -0 -0 -1 -0 -0 -1 -0 1 -3.06128e-15 0 1 -3.06128e-15 0 1 -3.06128e-15 0 1 -3.06128e-15 0 0 1 0 0 1 0 0 1 0 0 1 0 -0 -0 -1 -0 -0 -1 -0 -0 -1 -0 -0 -1 0 0 1 0 0 1 0 0 1 0 0 1</float_array>
          <technique_common>
            <accessor count="24" source="#ID23" stride="3">
              <param name="X" type="float"/>
              <param name="Y" type="float"/>
              <param name="Z" type="float"/>
            </accessor>
          </technique_common>
        </source>
        <vertices id="ID24">
          <input semantic="POSITION" source="#ID20"/>
          <input semantic="NORMAL" source="#ID22"/>
        </vertices>
        <triangles count="12" material="ID10">
          <input offset="0" semantic="VERTEX" source="#ID24"/>
          <p>0 2 1 1 3 0 4 6 5 5 7 4 8 10 9 9 11 8 12 14 13 12 15 14 16 18 17 17 19 16 20 22 21 20 23 22</p>
        </triangles>
      </mesh>
    </geometry>
    <geometry id="ID26">
      <mesh>
        <source id="ID27">
          <float_array count="72" id="ID28">24.04 -47.6 5 24.04 -40.8 0 24.04 -40.8 5 24.04 -47.6 0 24.24 -47.6 0 24.04 -47.6 0 24.04 -47.6 5 24.24 -47.6 5 24.24 -40.8 5 24.24 -47.6 0 24.24 -47.6 5 24.24 -40.8 0 24.24 -40.8 5 24.04 -40.8 0 24.24 -40.8 0 24.04 -40.8 5 24.04 -40.8 0 24.24 -47.6 0 24.24 -40.8 0 24.04 -47.6 0 24.04 -40.8 5 24.24 -40.8 5 24.24 -47.6 5 24.04 -47.6 5</float_array>
          <technique_common>
            <accessor count="24" source="#ID28" stride="3">
              <param name="X" type="float"/>
              <param name="Y" type="float"/>
              <param name="Z" type="float"/>
            </accessor>
          </technique_common>
        </source>
        <source id="ID29">
          <float_array count="72" id="ID30">-1 3.57149e-15 0 -1 3.57149e-15 0 -1 3.57149e-15 0 -1 3.57149e-15 0 -0 -1 -0 -0 -1 -0 -0 -1 -0 -0 -1 -0 1 -3.57149e-15 0 1 -3.57149e-15 0 1 -3.57149e-15 0 1 -3.57149e-15 0 0 1 0 0 1 0 0 1 0 0 1 0 -0 -0 -1 -0 -0 -1 -0 -0 -1 -0 -0 -1 0 0 1 0 0 1 0 0 1 0 0 1</float_array>
          <technique_common>
            <accessor count="24" source="#ID30" stride="3">
              <param name="X" type="float"/>
              <param name="Y" type="float"/>
              <param name="Z" type="float"/>
            </accessor>
          </technique_common>
        </source>
        <vertices id="ID31">
          <input semantic="POSITION" source="#ID27"/>
          <input semantic="NORMAL" source="#ID29"/>
        </vertices>
        <triangles count="12" material="ID10">
          <input offset="0" semantic="VERTEX" source="#ID31"/>
          <p>0 2 1 1 3 0 4 6 5 4 7 6 8 10 9 9 11 8 12 14 13 13 15 12 16 18 17 17 19 16 20 22 21 22 20 23</p>
        </triangles>
      </mesh>
    </geometry>
    <geometry id="ID33">
      <mesh>
        <source id="ID34">
          <float_array count="72" id="ID35">32.98 -47.6 5 32.98 -40.8 0 32.98 -40.8 5 32.98 -47.6 0 33.18 -47.6 0 32.98 -47.6 0 32.98 -47.6 5 33.18 -47.6 5 33.18 -40.8 5 33.18 -47.6 0 33.18 -47.6 5 33.18 -40.8 0 33.18 -40.8 5 32.98 -40.8 0 33.18 -40.8 0 32.98 -40.8 5 32.98 -40.8 0 33.18 -47.6 0 33.18 -40.8 0 32.98 -47.6 0 32.98 -40.8 5 33.18 -40.8 5 33.18 -47.6 5 32.98 -47.6 5</float_array>
          <technique_common>
            <accessor count="24" source="#ID35" stride="3">
              <param name="X" type="float"/>
              <param name="Y" type="float"/>
              <param name="Z" type="float"/>
            </accessor>
          </technique_common>
        </source>
        <source id="ID36">
          <float_array count="72" id="ID37">-1 4.0817e-15 0 -1 4.0817e-15 0 -1 4.0817e-15 0 -1 4.0817e-15 0 -0 -1 -0 -0 -1 -0 -0 -1 -0 -0 -1 -0 1 -3.06128e-15 0 1 -3.06128e-15 0 1 -3.06128e-15 0 1 -3.06128e-15 0 0 1 0 0 1 0 0 1 0 0 1 0 -0 -0 -1 -0 -0 -1 -0 -0 -1 -0 -0 -1 0 0 1 0 0 1 0 0 1 0 0 1</float_array>
          <technique_common>
            <accessor count="24" source="#ID37" stride="3">
              <param name="X" type="float"/>
              <param name="Y" type="float"/>
              <param name="Z" type="float"/>
            </accessor>
          </technique_common>
        </source>
        <vertices id="ID38">
          <input semantic="POSITION" source="#ID34"/>
          <input semantic="NORMAL" source="#ID36"/>
        </vertices>
        <triangles count="12" material="ID10">
          <input offset="0" semantic="VERTEX" source="#ID38"/>
          <p>0 2 1 1 3 0 4 6 5 4 7 6 8 10 9 9 11 8 12 14 13 13 15 12 16 18 17 17 19 16 20 22 21 22 20 23</p>
        </triangles>
      </mesh>
    </geometry>
    <geometry id="ID40">
      <mesh>
        <source id="ID41">
          <float_array count="504" id="ID42">55.6 -10.4 0 55.2 -10.2 0 55.2 -10.4 0 55.8 -10.2 0 55.8 -30 0 53.4232 -30 0 55.6 -29.8 0 53.4232 -29.8 0 55.8 -30 5 55.8 -30 0 53.4232 -30 2.8 38.9768 -30 0 38.9768 -30 2.8 51.0232 -30 0 53.4232 -30 0 51.0232 -30 2.8 34.2 -30 5 36.5768 -30 0 34.2 -30 0 36.5768 -30 2.8 55.6 -29.8 0 53.4232 -29.8 2.8 53.4232 -29.8 0 55.6 -29.8 5 51.0232 -29.8 2.8 38.9768 -29.8 2.8 51.0232 -29.8 0 38.9768 -29.8 0 34.4 -29.8 5 36.5768 -29.8 2.8 36.5768 -29.8 0 34.4 -29.8 0 38.9768 -29.8 0 51.0232 -30 0 51.0232 -29.8 0 38.9768 -30 0 34.4 -29.8 5 34.4 -10.4 0 34.4 -29.8 0 34.4 -10.4 5 39.4 -10.4 5 39.4 -10.4 0 34.4 -10.4 0 34.4 -10.4 5 39.4 -10.4 5 39.4 -4.4 0 39.4 -10.4 0 39.4 -4.4 5 50.6 -4.4 5 50.6 -4.4 0 39.4 -4.4 0 39.4 -4.4 5 50.6 -4.4 5 50.6 -10.4 0 50.6 -4.4 0 50.6 -10.4 5 53.6 -10.4 2.4 53.6 -10.4 0 50.6 -10.4 0 55.6 -10.4 5 50.6 -10.4 5 55.2 -10.4 2.4 55.6 -10.4 0 55.2 -10.4 0 55.6 -10.4 5 55.6 -29.8 0 55.6 -10.4 0 55.6 -29.8 5 55.8 -10.2 5 55.8 -30 0 55.8 -30 5 55.8 -10.2 0 53.6 -10.2 2.4 50.8 -10.2 0 53.6 -10.2 0 55.8 -10.2 5 50.8 -10.2 5 55.2 -10.2 2.4 55.8 -10.2 0 55.2 -10.2 0 50.8 -4.2 5 50.8 -10.2 0 50.8 -10.2 5 50.8 -4.2 0 39.2 -4.2 0 50.8 -4.2 0 50.8 -4.2 5 39.2 -4.2 5 39.2 -10.2 5 39.2 -4.2 0 39.2 -4.2 5 39.2 -10.2 0 34.2 -10.2 0 39.2 -10.2 0 39.2 -10.2 5 34.2 -10.2 5 34.2 -30 0 34.2 -10.2 0 34.2 -10.2 5 34.2 -30 5 34.4 -29.8 0 34.4 -10.4 0 34.2 -10.2 0 39.2 -10.2 0 39.4 -4.4 0 39.2 -4.2 0 36.5768 -29.8 0 36.5768 -30 0 50.6 -4.4 0 50.8 -4.2 0 34.2 -30 0 53.6 -10.4 0 53.6 -10.2 0 50.8 -10.2 0 50.6 -10.4 0 39.4 -10.4 0 53.6 -10.2 2.4 53.6 -10.4 0 53.6 -10.4 2.4 53.6 -10.2 0 55.2 -10.2 0 55.2 -10.4 2.4 55.2 -10.4 0 55.2 -10.2 2.4 55.2 -10.2 2.4 53.6 -10.4 2.4 55.2 -10.4 2.4 53.6 -10.2 2.4 38.9768 -29.8 2.8 36.5768 -29.8 2.8 36.5768 -30 2.8 38.9768 -30 2.8 38.9768 -29.8 0 38.9768 -29.8 2.8 38.9768 -30 2.8 38.9768 -30 0 36.5768 -29.8 2.8 36.5768 -29.8 0 36.5768 -30 0 36.5768 -30 2.8 53.4232 -30 2.8 53.4232 -29.8 2.8 51.0232 -29.8 2.8 51.0232 -30 2.8 51.0232 -30 2.8 51.0232 -29.8 2.8 51.0232 -29.8 0 51.0232 -30 0 53.4232 -30 0 53.4232 -29.8 0 53.4232 -29.8 2.8 53.4232 -30 2.8 34.4 -10.4 5 39.2 -10.2 5 39.4 -10.4 5 50.8 -4.2 5 50.8 -10.2 5 50.6 -4.4 5 55.6 -10.4 5 50.6 -10.4 5 55.8 -10.2 5 55.6 -29.8 5 55.8 -30 5 34.2 -30 5 39.4 -4.4 5 39.2 -4.2 5 34.2 -10.2 5 34.4 -29.8 5</float_array>
          <technique_common>
            <accessor count="168" source="#ID42" stride="3">
              <param name="X" type="float"/>
              <param name="Y" type="float"/>
              <param name="Z" type="float"/>
            </accessor>
          </technique_common>
        </source>
        <source id="ID43">
          <float_array count="504" id="ID44">-0 -0 -1 -0 -0 -1 -0 -0 -1 -0 -0 -1 -0 -0 -1 -0 -0 -1 -0 -0 -1 -0 -0 -1 -0 -1 -0 -0 -1 -0 -0 -1 -0 -0 -1 -0 -0 -1 -0 -0 -1 -0 -0 -1 -0 -0 -1 -0 -0 -1 -0 -0 -1 -0 -0 -1 -0 -0 -1 -0 9.81919e-16 1 0 9.81919e-16 1 0 9.81919e-16 1 0 9.81919e-16 1 0 9.81919e-16 1 0 9.81919e-16 1 0 9.81919e-16 1 0 9.81919e-16 1 0 9.81919e-16 1 0 9.81919e-16 1 0 9.81919e-16 1 0 9.81919e-16 1 0 -0 -0 -1 -0 -0 -1 -0 -0 -1 -0 -0 -1 1 -1.07302e-15 0 1 -1.07302e-15 0 1 -1.07302e-15 0 1 -1.07302e-15 0 0 -1 0 0 -1 0 0 -1 0 0 -1 0 1 -1.15648e-15 0 1 -1.15648e-15 0 1 -1.15648e-15 0 1 -1.15648e-15 0 0 -1 0 0 -1 0 0 -1 0 0 -1 0 -1 4.62593e-15 0 -1 4.62593e-15 0 -1 4.62593e-15 0 -1 4.62593e-15 0 0 -1 0 0 -1 0 0 -1 0 0 -1 0 0 -1 0 0 -1 0 0 -1 0 0 -1 0 -1 3.57675e-15 0 -1 3.57675e-15 0 -1 3.57675e-15 0 -1 3.57675e-15 0 1 -1.75225e-15 0 1 -1.75225e-15 0 1 -1.75225e-15 0 1 -1.75225e-15 0 2.08167e-15 1 0 2.08167e-15 1 0 2.08167e-15 1 0 2.08167e-15 1 0 2.08167e-15 1 0 2.08167e-15 1 0 2.08167e-15 1 0 2.08167e-15 1 0 1 -1.15648e-15 0 1 -1.15648e-15 0 1 -1.15648e-15 0 1 -1.15648e-15 0 0 1 0 0 1 0 0 1 0 0 1 0 -1 2.31296e-15 0 -1 2.31296e-15 0 -1 2.31296e-15 0 -1 2.31296e-15 0 0 1 0 0 1 0 0 1 0 0 1 0 -1 -0 -0 -1 -0 -0 -1 -0 -0 -1 -0 -0 -0 -0 -1 -0 -0 -1 -0 -0 -1 -0 -0 -1 -0 -0 -1 -0 -0 -1 -0 -0 -1 -0 -0 -1 -0 -0 -1 -0 -0 -1 -0 -0 -1 -0 -0 -1 -0 -0 -1 -0 -0 -1 -0 -0 -1 -0 -0 -1 1 0 2.89121e-15 1 0 2.89121e-15 1 0 2.89121e-15 1 0 2.89121e-15 -1 0 0 -1 0 0 -1 0 0 -1 0 0 0 0 -1 0 0 -1 0 0 -1 0 0 -1 0 0 -1 0 0 -1 0 0 -1 0 0 -1 -1 0 2.47818e-15 -1 0 2.47818e-15 -1 0 2.47818e-15 -1 0 2.47818e-15 1 0 0 1 0 0 1 0 0 1 0 0 -0 -0 -1 -0 -0 -1 -0 -0 -1 -0 -0 -1 1 0 2.47818e-15 1 0 2.47818e-15 1 0 2.47818e-15 1 0 2.47818e-15 -1 -0 -0 -1 -0 -0 -1 -0 -0 -1 -0 -0 0 0 1 0 0 1 0 0 1 0 0 1 0 0 1 0 0 1 0 0 1 0 0 1 0 0 1 0 0 1 0 0 1 0 0 1 0 0 1 0 0 1 0 0 1 0 0 1</float_array>
          <technique_common>
            <accessor count="168" source="#ID44" stride="3">
              <param name="X" type="float"/>
              <param name="Y" type="float"/>
              <param name="Z" type="float"/>
            </accessor>
          </technique_common>
        </source>
        <vertices id="ID45">
          <input semantic="POSITION" source="#ID41"/>
          <input semantic="NORMAL" source="#ID43"/>
        </vertices>
        <triangles count="112" material="ID10">
          <input offset="0" semantic="VERTEX" source="#ID45"/>
          <p>0 2 1 1 3 0 4 0 3 5 6 4 0 4 6 7 6 5 8 10 9 11 13 12 14 9 10 15 10 8 15 8 16 17 19 18 13 15 12 16 19 12 19 16 18 15 16 12 20 22 21 23 21 24 20 21 23 24 25 23 26 27 24 23 25 28 24 27 25 28 25 29 30 31 29 29 31 28 32 34 33 33 35 32 36 38 37 36 37 39 40 42 41 42 40 43 44 46 45 44 45 47 48 50 49 50 48 51 52 54 53 52 53 55 56 58 57 59 60 56 58 56 60 61 63 62 56 61 59 59 61 62 64 66 65 64 65 67 68 70 69 69 71 68 72 74 73 72 76 75 75 77 72 72 73 76 77 75 78 77 78 79 80 82 81 81 83 80 84 86 85 84 87 86 88 90 89 89 91 88 92 94 93 92 95 94 96 98 97 96 99 98 100 102 101 103 105 104 106 107 100 105 109 108 105 108 104 110 100 107 111 113 112 108 113 114 111 114 113 113 108 109 101 103 115 104 115 103 103 101 102 100 110 102 116 118 117 116 117 119 120 122 121 120 121 123 124 126 125 124 125 127 128 130 129 130 128 131 132 134 133 134 132 135 136 138 137 138 136 139 140 142 141 140 143 142 144 146 145 144 147 146 148 150 149 148 151 150 152 154 153 155 157 156 158 156 159 158 161 160 156 157 159 160 161 162 162 161 163 156 158 160 153 154 164 165 164 155 155 164 157 153 164 165 153 166 152 163 152 166 161 167 163 167 152 163</p>
        </triangles>
      </mesh>
    </geometry>
    <geometry id="ID47">
      <mesh>
        <source id="ID48">
          <float_array count="72" id="ID49">50.86 -47.6 5 50.86 -40.8 0 50.86 -40.8 5 50.86 -47.6 0 51.06 -47.6 0 50.86 -47.6 5 51.06 -47.6 5 50.86 -47.6 0 51.06 -40.8 5 51.06 -47.6 0 51.06 -47.6 5 51.06 -40.8 0 50.86 -40.8 0 51.06 -40.8 0 51.06 -40.8 5 50.86 -40.8 5 50.86 -40.8 0 51.06 -47.6 0 51.06 -40.8 0 50.86 -47.6 0 50.86 -47.6 5 50.86 -40.8 5 51.06 -40.8 5 51.06 -47.6 5</float_array>
          <technique_common>
            <accessor count="24" source="#ID49" stride="3">
              <param name="X" type="float"/>
              <param name="Y" type="float"/>
              <param name="Z" type="float"/>
            </accessor>
          </technique_common>
        </source>
        <source id="ID50">
          <float_array count="72" id="ID51">-1 4.0817e-15 0 -1 4.0817e-15 0 -1 4.0817e-15 0 -1 4.0817e-15 0 -0 -1 -0 -0 -1 -0 -0 -1 -0 -0 -1 -0 1 -3.06128e-15 0 1 -3.06128e-15 0 1 -3.06128e-15 0 1 -3.06128e-15 0 0 1 0 0 1 0 0 1 0 0 1 0 -0 -0 -1 -0 -0 -1 -0 -0 -1 -0 -0 -1 0 0 1 0 0 1 0 0 1 0 0 1</float_array>
          <technique_common>
            <accessor count="24" source="#ID51" stride="3">
              <param name="X" type="float"/>
              <param name="Y" type="float"/>
              <param name="Z" type="float"/>
            </accessor>
          </technique_common>
        </source>
        <vertices id="ID52">
          <input semantic="POSITION" source="#ID48"/>
          <input semantic="NORMAL" source="#ID50"/>
        </vertices>
        <triangles count="12" material="ID10">
          <input offset="0" semantic="VERTEX" source="#ID52"/>
          <p>0 2 1 1 3 0 4 6 5 5 7 4 8 10 9 9 11 8 12 14 13 12 15 14 16 18 17 17 19 16 20 22 21 20 23 22</p>
        </triangles>
      </mesh>
    </geometry>
  </library_geometries>

  <library_visual_scenes>
    <visual_scene id="ID1">
      <node id="ID2" name="Assembly 1">
        <node>
          <matrix>1 0 0 0 0 1 0 0 0 0 1 0 0 0 0 1</matrix>
          <instance_node url="#ID3"/>
        </node>
        <node>
          <matrix>1 0 0 0 0 1 0 0 0 0 1 0 0 0 0 1</matrix>
          <instance_node url="#ID11"/>
        </node>
        <node>
          <matrix>1 0 0 0 0 1 0 0 0 0 1 0 0 0 0 1</matrix>
          <instance_node url="#ID18"/>
        </node>
        <node>
          <matrix>1 0 0 0 0 1 0 0 0 0 1 0 0 0 0 1</matrix>
          <instance_node url="#ID25"/>
        </node>
        <node>
          <matrix>1 0 0 0 0 1 0 0 0 0 1 0 0 0 0 1</matrix>
          <instance_node url="#ID32"/>
        </node>
        <node>
          <matrix>1 0 0 0 0 1 0 0 0 0 1 0 0 0 0 1</matrix>
          <instance_node url="#ID39"/>
        </node>
        <node>
          <matrix>1 0 0 0 0 1 0 0 0 0 1 0 0 0 0 1</matrix>
          <instance_node url="#ID46"/>
        </node>
      </node>
    </visual_scene>
  </library_visual_scenes>

  <scene>
    <instance_visual_scene url="#ID1"/>
  </scene>

  <library_nodes>
    <node id="ID3" name="63a4e33597abfb1b1e2a80e4">
      <instance_geometry url="#ID4">
        <bind_material>
          <technique_common>
            <instance_material symbol="ID10" target="#ID10"/>
          </technique_common>
        </bind_material>
      </instance_geometry>
    </node>
    <node id="ID11" name="Part 7">
      <instance_geometry url="#ID12">
        <bind_material>
          <technique_common>
            <instance_material symbol="ID10" target="#ID10"/>
          </technique_common>
        </bind_material>
      </instance_geometry>
    </node>
    <node id="ID18" name="Part 3">
      <instance_geometry url="#ID19">
        <bind_material>
          <technique_common>
            <instance_material symbol="ID10" target="#ID10"/>
          </technique_common>
        </bind_material>
      </instance_geometry>
    </node>
    <node id="ID25" name="Part 5">
      <instance_geometry url="#ID26">
        <bind_material>
          <technique_common>
            <instance_material symbol="ID10" target="#ID10"/>
          </technique_common>
        </bind_material>
      </instance_geometry>
    </node>
    <node id="ID32" name="Part 4">
      <instance_geometry url="#ID33">
        <bind_material>
          <technique_common>
            <instance_material symbol="ID10" target="#ID10"/>
          </technique_common>
        </bind_material>
      </instance_geometry>
    </node>
    <node id="ID39" name="Part 6">
      <instance_geometry url="#ID40">
        <bind_material>
          <technique_common>
            <instance_material symbol="ID10" target="#ID10"/>
          </technique_common>
        </bind_material>
      </instance_geometry>
    </node>
    <node id="ID46" name="Part 2">
      <instance_geometry url="#ID47">
        <bind_material>
          <technique_common>
            <instance_material symbol="ID10" target="#ID10"/>
          </technique_common>
        </bind_material>
      </instance_geometry>
    </node>
  </library_nodes>

</COLLADA>
